# RE2-Dokument-Weltmodell, mesh11  md5=6f2c45d4b6065e661e56ed6c56198d9d
v 0 -9 324
v -225 -9 162
v -450 -9 324
f 1 2 3
v -450 -9 0
v -225 -9 162
v 0 -9 0
f 4 5 6
v -225 -9 162
v -450 -9 0
v -450 -9 324
f 7 8 9
v -225 -9 162
v 0 -9 324
v 0 -9 0
f 10 11 12
v -450 -9 0
v 0 -9 0
v -450 0 0
v 0 0 0
f 13 14 16 15
v 0 -9 0
v 0 -9 324
v 0 0 0
v 0 0 324
f 17 18 20 19
v 0 -9 324
v -450 -9 324
v 0 0 324
v -450 0 324
f 21 22 24 23
v -450 -9 324
v -450 -9 0
v -450 0 324
v -450 0 0
f 25 26 28 27
v -450 0 0
v 0 0 0
v -450 0 324
v 0 0 324
f 29 30 32 31
