# RE2-Dokument-Weltmodell, mesh10  md5=494cb230481caa150c5b86630a82d881
v 0 -267 189
v 0 -535 189
v 0 -267 0
v 0 -535 0
f 1 2 4 3
v 0 -535 189
v 0 -267 189
v 0 -535 378
v 0 -267 378
f 5 6 8 7
v 0 0 189
v 0 -267 189
v 0 0 0
v 0 -267 0
f 9 10 12 11
v 0 -267 189
v 0 0 189
v 0 -267 378
v 0 0 378
f 13 14 16 15
v 0 -267 189
v 0 -267 0
v 0 -535 189
v 0 -535 0
f 17 18 20 19
v 0 -535 189
v 0 -535 378
v 0 -267 189
v 0 -267 378
f 21 22 24 23
v 0 0 189
v 0 0 0
v 0 -267 189
v 0 -267 0
f 25 26 28 27
v 0 -267 189
v 0 -267 378
v 0 0 189
v 0 0 378
f 29 30 32 31
