# RE2-Dokument-Weltmodell, mesh03  md5=cf9f316dd6ba0ecf599bea18a83c36d1
v -137 -13 189
v -137 -13 -189
v -137 13 189
v -137 13 -189
f 1 2 4 3
v -137 -13 -189
v 137 -13 -189
v -137 13 -189
v 137 13 -189
f 5 6 8 7
v 137 -13 -189
v 137 -13 189
v 137 13 -189
v 137 13 189
f 9 10 12 11
v 137 -13 189
v -137 -13 189
v 137 13 189
v -137 13 189
f 13 14 16 15
v -137 13 189
v -137 13 -189
v 137 13 189
v 137 13 -189
f 17 18 20 19
v 137 -13 189
v 137 -13 -189
v -137 -13 189
v -137 -13 -189
f 21 22 24 23
