# RE2-Dokument-Weltmodell, mesh00  md5=0541704ee41d6445b718ee0b1b8abb3b
v -137 -13 189
v -137 -13 -189
v -137 13 189
v -137 13 -189
f 1 2 4 3
v -137 -13 -189
v 137 -13 -189
v -137 13 -189
v 137 13 -189
f 5 6 8 7
v 137 -13 -189
v 137 -13 189
v 137 13 -189
v 137 13 189
f 9 10 12 11
v 137 -13 189
v -137 -13 189
v 137 13 189
v -137 13 189
f 13 14 16 15
v -137 13 189
v -137 13 -189
v 137 13 189
v 137 13 -189
f 17 18 20 19
v 137 -13 189
v 137 -13 -189
v -137 -13 189
v -137 -13 -189
f 21 22 24 23
