# RE2-Dokument-Weltmodell, mesh06  md5=3909288c68bcf5e61ac2112787f4851b
v 0 -9 180
v -135 -9 90
v -270 -9 180
f 1 2 3
v -270 -9 0
v -135 -9 90
v 0 -9 0
f 4 5 6
v -135 -9 90
v -270 -9 0
v -270 -9 180
f 7 8 9
v -135 -9 90
v 0 -9 180
v 0 -9 0
f 10 11 12
v -270 -9 0
v 0 -9 0
v -270 0 0
v 0 0 0
f 13 14 16 15
v 0 -9 0
v 0 -9 180
v 0 0 0
v 0 0 180
f 17 18 20 19
v 0 -9 180
v -270 -9 180
v 0 0 180
v -270 0 180
f 21 22 24 23
v -270 -9 180
v -270 -9 0
v -270 0 180
v -270 0 0
f 25 26 28 27
v -270 0 0
v 0 0 0
v -270 0 180
v 0 0 180
f 29 30 32 31
