# RE2-Dokument-Weltmodell, mesh08  md5=61be27214e730e2393f8aae52a1a3df6
v -40 -18 -7
v -66 -21 0
v -40 -18 7
f 1 2 3
v -40 -18 7
v -66 -21 0
v -47 -18 20
f 4 5 6
v -47 -18 20
v -66 -21 0
v -59 -18 27
f 7 8 9
v -59 -18 27
v -66 -21 0
v -73 -18 27
f 10 11 12
v -73 -18 27
v -66 -21 0
v -86 -18 19
f 13 14 15
v -86 -18 19
v -66 -21 0
v -93 -18 7
f 16 17 18
v -93 -18 7
v -66 -21 0
v -93 -18 -7
f 19 20 21
v -93 -18 -7
v -66 -21 0
v -86 -18 -20
f 22 23 24
v -86 -18 -20
v -66 -21 0
v -73 -18 -27
f 25 26 27
v -73 -18 -27
v -66 -21 0
v -59 -18 -27
f 28 29 30
v -59 -18 -27
v -66 -21 0
v -47 -18 -19
f 31 32 33
v -47 -18 -19
v -66 -21 0
v -40 -18 -7
f 34 35 36
v -4 -8 6
v -8 -8 15
v -4 -8 17
f 37 38 39
v -8 -8 -16
v -4 -8 -6
v -4 -8 -17
f 40 41 42
v -40 -15 -3
v -93 -15 -7
v -40 -15 -7
f 43 44 45
v -93 -15 7
v -40 -15 2
v -40 -15 7
f 46 47 48
v -14 -14 14
v -14 -14 -14
v -40 -18 7
v -40 -18 -7
f 49 50 52 51
v 2 -8 6
v 2 -8 12
v 2 -3 6
v 2 -3 12
f 53 54 56 55
v -28 -14 39
v -14 -14 14
v -47 -18 20
v -40 -18 7
f 57 58 60 59
v -4 -8 17
v -21 -8 45
v -4 -3 17
v -21 -3 45
f 61 62 64 63
v -52 -14 53
v -28 -14 39
v -59 -18 27
v -47 -18 20
f 65 66 68 67
v -21 -8 45
v -50 -8 62
v -21 -3 45
v -50 -3 62
f 69 70 72 71
v -81 -14 53
v -52 -14 53
v -73 -18 27
v -59 -18 27
f 73 74 76 75
v -50 -8 62
v -83 -8 62
v -50 -3 62
v -83 -3 62
f 77 78 80 79
v -105 -14 39
v -81 -14 53
v -86 -18 19
v -73 -18 27
f 81 82 84 83
v -83 -8 62
v -112 -8 45
v -83 -3 62
v -112 -3 45
f 85 86 88 87
v -119 -14 14
v -105 -14 39
v -93 -18 7
v -86 -18 19
f 89 90 92 91
v -112 -8 45
v -129 -8 17
v -112 -3 45
v -129 -3 17
f 93 94 96 95
v -119 -14 -14
v -119 -14 14
v -93 -18 -7
v -93 -18 7
f 97 98 100 99
v -129 -8 17
v -129 -8 -17
v -129 -3 17
v -129 -3 -17
f 101 102 104 103
v -105 -14 -39
v -119 -14 -14
v -86 -18 -20
v -93 -18 -7
f 105 106 108 107
v -129 -8 -17
v -112 -8 -45
v -129 -3 -17
v -112 -3 -45
f 109 110 112 111
v -80 -14 -53
v -105 -14 -39
v -73 -18 -27
v -86 -18 -20
f 113 114 116 115
v -112 -8 -45
v -83 -8 -62
v -112 -3 -45
v -83 -3 -62
f 117 118 120 119
v -52 -14 -53
v -80 -14 -53
v -59 -18 -27
v -73 -18 -27
f 121 122 124 123
v -83 -8 -62
v -49 -8 -62
v -83 -3 -62
v -49 -3 -62
f 125 126 128 127
v -14 -14 -14
v -28 -14 -39
v -40 -18 -7
v -47 -18 -19
f 129 130 132 131
v -49 -8 -62
v -20 -8 -45
v -49 -3 -62
v -20 -3 -45
f 133 134 136 135
v -28 -14 -39
v -52 -14 -53
v -47 -18 -19
v -59 -18 -27
f 137 138 140 139
v -20 -8 -45
v -4 -8 -17
v -20 -3 -45
v -4 -3 -17
f 141 142 144 143
v -24 -8 -42
v -8 -8 -16
v -20 -8 -45
v -4 -8 -17
f 145 146 148 147
v -20 -8 -45
v -49 -8 -62
v -24 -8 -42
v -51 -8 -58
f 149 150 152 151
v -49 -8 -62
v -83 -8 -62
v -51 -8 -58
v -82 -8 -58
f 153 154 156 155
v -83 -8 -62
v -112 -8 -45
v -82 -8 -58
v -109 -8 -42
f 157 158 160 159
v -125 -8 -15
v -109 -8 -42
v -129 -8 -17
v -112 -8 -45
f 161 162 164 163
v -129 -8 -17
v -129 -8 17
v -125 -8 -15
v -125 -8 16
f 165 166 168 167
v -129 -8 17
v -112 -8 45
v -125 -8 16
v -109 -8 42
f 169 170 172 171
v -112 -8 45
v -83 -8 62
v -109 -8 42
v -82 -8 58
f 173 174 176 175
v -83 -8 62
v -50 -8 62
v -82 -8 58
v -51 -8 58
f 177 178 180 179
v -50 -8 62
v -21 -8 45
v -51 -8 58
v -24 -8 42
f 181 182 184 183
v -8 -8 15
v -24 -8 42
v -4 -8 17
v -21 -8 45
f 185 186 188 187
v -8 -8 15
v -8 -8 -16
v -14 -14 14
v -14 -14 -14
f 189 190 192 191
v -24 -8 42
v -8 -8 15
v -28 -14 39
v -14 -14 14
f 193 194 196 195
v -8 -8 -16
v -24 -8 -42
v -14 -14 -14
v -28 -14 -39
f 197 198 200 199
v -51 -8 58
v -24 -8 42
v -52 -14 53
v -28 -14 39
f 201 202 204 203
v -82 -8 58
v -51 -8 58
v -81 -14 53
v -52 -14 53
f 205 206 208 207
v -109 -8 42
v -82 -8 58
v -105 -14 39
v -81 -14 53
f 209 210 212 211
v -125 -8 16
v -109 -8 42
v -119 -14 14
v -105 -14 39
f 213 214 216 215
v -125 -8 -15
v -125 -8 16
v -119 -14 -14
v -119 -14 14
f 217 218 220 219
v -109 -8 -42
v -125 -8 -15
v -105 -14 -39
v -119 -14 -14
f 221 222 224 223
v -82 -8 -58
v -109 -8 -42
v -80 -14 -53
v -105 -14 -39
f 225 226 228 227
v -51 -8 -58
v -82 -8 -58
v -52 -14 -53
v -80 -14 -53
f 229 230 232 231
v -24 -8 -42
v -51 -8 -58
v -28 -14 -39
v -52 -14 -53
f 233 234 236 235
v -86 -15 -19
v -73 -15 -27
v -47 -15 -19
v -59 -15 -27
f 237 238 240 239
v 2 -3 12
v 2 -8 12
v -4 -3 17
v -4 -8 17
f 241 242 244 243
v 2 -8 -12
v 2 -3 -12
v -4 -8 -17
v -4 -3 -17
f 245 246 248 247
v -4 -8 -17
v -4 -8 -6
v 2 -8 -12
v 2 -8 -6
f 249 250 252 251
v -4 2 17
v -4 2 6
v 2 2 12
v 2 2 6
f 253 254 256 255
v 2 -3 -6
v 2 -3 -12
v 2 -8 -6
v 2 -8 -12
f 257 258 260 259
v -4 -8 6
v -4 -8 17
v 2 -8 6
v 2 -8 12
f 261 262 264 263
v -4 2 -6
v -4 2 -17
v 2 2 -6
v 2 2 -12
f 265 266 268 267
v -8 -8 -16
v -8 -8 15
v -4 -8 -6
v -4 -8 6
f 269 270 272 271
v 2 -3 -6
v 2 -8 -6
v -4 -3 -6
v -4 -8 -6
f 273 274 276 275
v -4 -8 6
v -4 -3 6
v -4 -8 -6
v -4 -3 -6
f 277 278 280 279
v 2 -8 6
v 2 -3 6
v -4 -8 6
v -4 -3 6
f 281 282 284 283
v -4 2 -17
v -4 2 -6
v -4 -3 -17
v -4 -3 -6
f 285 286 288 287
v -4 2 -6
v 2 2 -6
v -4 -3 -6
v 2 -3 -6
f 289 290 292 291
v 2 2 -6
v 2 2 -12
v 2 -3 -6
v 2 -3 -12
f 293 294 296 295
v 2 2 -12
v -4 2 -17
v 2 -3 -12
v -4 -3 -17
f 297 298 300 299
v 2 2 6
v -4 2 6
v 2 -3 6
v -4 -3 6
f 301 302 304 303
v -4 2 17
v 2 2 12
v -4 -3 17
v 2 -3 12
f 305 306 308 307
v -4 2 6
v -4 2 17
v -4 -3 6
v -4 -3 17
f 309 310 312 311
v 2 2 12
v 2 2 6
v 2 -3 12
v 2 -3 6
f 313 314 316 315
v -4 -3 -6
v -4 -3 6
v -9 -3 -5
v -9 -3 5
f 317 318 320 319
v -4 -3 -17
v -4 -3 -6
v -9 -3 -15
v -9 -3 -5
f 321 322 324 323
v -4 -3 6
v -4 -3 17
v -9 -3 5
v -9 -3 15
f 325 326 328 327
v -9 -3 -15
v -24 -3 -42
v -4 -3 -17
v -20 -3 -45
f 329 330 332 331
v -49 -3 -62
v -20 -3 -45
v -51 -3 -57
v -24 -3 -42
f 333 334 336 335
v -83 -3 -62
v -49 -3 -62
v -82 -3 -57
v -51 -3 -57
f 337 338 340 339
v -112 -3 -45
v -83 -3 -62
v -108 -3 -42
v -82 -3 -57
f 341 342 344 343
v -129 -3 -17
v -112 -3 -45
v -124 -3 -15
v -108 -3 -42
f 345 346 348 347
v -129 -3 17
v -129 -3 -17
v -124 -3 15
v -124 -3 -15
f 349 350 352 351
v -124 -3 15
v -109 -3 42
v -129 -3 17
v -112 -3 45
f 353 354 356 355
v -83 -3 62
v -112 -3 45
v -82 -3 57
v -109 -3 42
f 357 358 360 359
v -50 -3 62
v -83 -3 62
v -51 -3 57
v -82 -3 57
f 361 362 364 363
v -51 -3 57
v -24 -3 42
v -50 -3 62
v -21 -3 45
f 365 366 368 367
v -4 -3 17
v -21 -3 45
v -9 -3 15
v -24 -3 42
f 369 370 372 371
v -82 -3 57
v -109 -3 42
v -81 -10 53
v -105 -10 39
f 373 374 376 375
v -109 -3 42
v -124 -3 15
v -105 -10 39
v -120 -10 14
f 377 378 380 379
v -124 -3 15
v -124 -3 -15
v -120 -10 14
v -120 -10 -14
f 381 382 384 383
v -124 -3 -15
v -108 -3 -42
v -120 -10 -14
v -105 -10 -39
f 385 386 388 387
v -108 -3 -42
v -82 -3 -57
v -105 -10 -39
v -80 -10 -53
f 389 390 392 391
v -82 -3 -57
v -51 -3 -57
v -80 -10 -53
v -52 -10 -53
f 393 394 396 395
v -51 -3 -57
v -24 -3 -42
v -52 -10 -53
v -27 -10 -39
f 397 398 400 399
v -24 -3 -42
v -9 -3 -15
v -27 -10 -39
v -13 -10 -14
f 401 402 404 403
v -9 -3 -15
v -9 -3 -5
v -13 -10 -14
v -13 -10 -5
f 405 406 408 407
v -13 -10 5
v -13 -10 -5
v -9 -3 5
v -9 -3 -5
f 409 410 412 411
v -9 -3 5
v -9 -3 15
v -13 -10 5
v -13 -10 14
f 413 414 416 415
v -28 -10 39
v -13 -10 14
v -24 -3 42
v -9 -3 15
f 417 418 420 419
v -24 -3 42
v -51 -3 57
v -28 -10 39
v -52 -10 53
f 421 422 424 423
v -51 -3 57
v -82 -3 57
v -52 -10 53
v -81 -10 53
f 425 426 428 427
v -81 -10 53
v -105 -10 39
v -74 -15 27
v -86 -15 19
f 429 430 432 431
v -105 -10 39
v -120 -10 14
v -86 -15 19
v -93 -15 7
f 433 434 436 435
v -120 -10 14
v -120 -10 -14
v -93 -15 7
v -93 -15 -7
f 437 438 440 439
v -120 -10 -14
v -105 -10 -39
v -93 -15 -7
v -86 -15 -19
f 441 442 444 443
v -105 -10 -39
v -80 -10 -53
v -86 -15 -19
v -73 -15 -27
f 445 446 448 447
v -80 -10 -53
v -52 -10 -53
v -73 -15 -27
v -59 -15 -27
f 449 450 452 451
v -52 -10 -53
v -27 -10 -39
v -59 -15 -27
v -47 -15 -19
f 453 454 456 455
v -27 -10 -39
v -13 -10 -14
v -47 -15 -19
v -40 -15 -7
f 457 458 460 459
v -13 -10 -14
v -13 -10 -5
v -40 -15 -7
v -40 -15 -3
f 461 462 464 463
v -13 -10 -5
v -13 -10 5
v -40 -15 -3
v -40 -15 2
f 465 466 468 467
v -13 -10 5
v -13 -10 14
v -40 -15 2
v -40 -15 7
f 469 470 472 471
v -13 -10 14
v -28 -10 39
v -40 -15 7
v -47 -15 19
f 473 474 476 475
v -28 -10 39
v -52 -10 53
v -47 -15 19
v -59 -15 27
f 477 478 480 479
v -52 -10 53
v -81 -10 53
v -59 -15 27
v -74 -15 27
f 481 482 484 483
v -47 -15 19
v -59 -15 27
v -86 -15 19
v -74 -15 27
f 485 486 488 487
v -93 -15 -7
v -86 -15 -19
v -40 -15 -7
v -47 -15 -19
f 489 490 492 491
v -93 -15 7
v -40 -15 7
v -86 -15 19
v -47 -15 19
f 493 494 496 495
v -93 -15 7
v -93 -15 -7
v -40 -15 2
v -40 -15 -3
f 497 498 500 499
