# ST_FILE.TS, Block TS_BlockA -> OBJ (re15_port/tools/re2_tm2_obj.py)
# PSX-Koordinaten unveraendert (Y zeigt nach unten wie auf der PSX).
v 0 270 -204
v 0 -270 -204
v -72 270 -204
v -72 -270 -204
v 0 270 204
v 0 -270 204
v -72 270 204
v -72 -270 204
v 0 -135 153
v 0 135 204
v -72 135 204
v 0 -270 153
v 0 270 153
v -36 -270 204
v -36 270 204
v -72 -270 153
v -72 270 153
v 0 0 204
v -72 0 204
v 0 0 153
v 0 135 153
v 0 -135 204
v -72 -135 204
v -36 0 204
v -36 -135 204
v 0 270 178
v -36 135 204
v 0 135 178
v 0 -270 178
v 0 -135 178
v 0 0 178
v 0 -270 191
v 0 -135 191
v 0 0 191
v 0 135 191
v 0 270 191
f 16 29 12
f 26 17 13
f 20 1 2
f 3 4 2 1
f 6 32 29 16
f 27 11 7 15
f 3 1 13 17
f 20 21 13 1
f 15 5 10 27
f 30 9 12 29
f 16 12 2 4
f 5 15 7 17
f 25 22 6 14
f 27 10 18 24
f 25 23 19 24
f 14 8 23 25
f 35 10 5 36
f 24 19 11 27
f 28 21 20 31
f 24 18 22 25
f 31 20 9 30
f 32 6 22 33
f 33 22 18 34
f 34 18 10 35
f 26 13 21 28
f 33 30 29 32
f 34 31 30 33
f 35 28 31 34
f 36 26 28 35
f 16 8 14 6
f 17 26 36 5
f 2 12 9 20
