# ROOM60D0.RDT Prop-Slot 3 -> Main Fuse
v 19 324 34
v 0 324 0
v 38 324 0
f 1 2 3
v 38 -324 0
v 0 -324 0
v 19 -324 34
f 4 5 6
v -19 324 34
v 0 324 0
v 19 324 34
f 7 8 9
v 19 -324 34
v 0 -324 0
v -19 -324 34
f 10 11 12
v -38 324 0
v 0 324 0
v -19 324 34
f 13 14 15
v -19 -324 34
v 0 -324 0
v -38 -324 0
f 16 17 18
v -19 324 -34
v 0 324 0
v -38 324 0
f 19 20 21
v -38 -324 0
v 0 -324 0
v -19 -324 -34
f 22 23 24
v 19 324 -34
v 0 324 0
v -19 324 -34
f 25 26 27
v -19 -324 -34
v 0 -324 0
v 19 -324 -34
f 28 29 30
v 38 324 0
v 0 324 0
v 19 324 -34
f 31 32 33
v 19 -324 -34
v 0 -324 0
v 38 -324 0
f 34 35 36
v 38 108 0
v 19 108 34
v 38 324 0
v 19 324 34
f 37 38 40 39
v 34 108 62
v 19 108 34
v 68 108 0
v 38 108 0
f 41 42 44 43
v 68 -180 0
v 34 -180 62
v 68 108 0
v 34 108 62
f 45 46 48 47
v 34 -180 62
v 68 -180 0
v 18 -180 34
v 37 -180 0
f 49 50 52 51
v 38 -324 0
v 19 -324 34
v 37 -180 0
v 18 -180 34
f 53 54 56 55
v 19 108 34
v -19 108 34
v 19 324 34
v -19 324 34
f 57 58 60 59
v 34 108 62
v -34 108 62
v 19 108 34
v -19 108 34
f 61 62 64 63
v 34 -180 62
v -34 -180 62
v 34 108 62
v -34 108 62
f 65 66 68 67
v -34 -180 62
v 34 -180 62
v -18 -180 34
v 18 -180 34
f 69 70 72 71
v 19 -324 34
v -19 -324 34
v 18 -180 34
v -18 -180 34
f 73 74 76 75
v -19 108 34
v -38 108 0
v -19 324 34
v -38 324 0
f 77 78 80 79
v -34 108 62
v -68 108 0
v -19 108 34
v -38 108 0
f 81 82 84 83
v -34 -180 62
v -68 -180 0
v -34 108 62
v -68 108 0
f 85 86 88 87
v -68 -180 0
v -34 -180 62
v -37 -180 0
v -18 -180 34
f 89 90 92 91
v -19 -324 34
v -38 -324 0
v -18 -180 34
v -37 -180 0
f 93 94 96 95
v -38 108 0
v -19 108 -34
v -38 324 0
v -19 324 -34
f 97 98 100 99
v -34 108 -62
v -19 108 -34
v -68 108 0
v -38 108 0
f 101 102 104 103
v -68 -180 0
v -34 -180 -62
v -68 108 0
v -34 108 -62
f 105 106 108 107
v -34 -180 -62
v -68 -180 0
v -18 -180 -34
v -37 -180 0
f 109 110 112 111
v -38 -324 0
v -19 -324 -34
v -37 -180 0
v -18 -180 -34
f 113 114 116 115
v -19 108 -34
v 19 108 -34
v -19 324 -34
v 19 324 -34
f 117 118 120 119
v -34 108 -62
v 34 108 -62
v -19 108 -34
v 19 108 -34
f 121 122 124 123
v -34 -180 -62
v 34 -180 -62
v -34 108 -62
v 34 108 -62
f 125 126 128 127
v 34 -180 -62
v -34 -180 -62
v 18 -180 -34
v -18 -180 -34
f 129 130 132 131
v -19 -324 -34
v 19 -324 -34
v -18 -180 -34
v 18 -180 -34
f 133 134 136 135
v 19 108 -34
v 38 108 0
v 19 324 -34
v 38 324 0
f 137 138 140 139
v 34 108 -62
v 68 108 0
v 19 108 -34
v 38 108 0
f 141 142 144 143
v 34 -180 -62
v 68 -180 0
v 34 108 -62
v 68 108 0
f 145 146 148 147
v 68 -180 0
v 34 -180 -62
v 37 -180 0
v 18 -180 -34
f 149 150 152 151
v 19 -324 -34
v 38 -324 0
v 18 -180 -34
v 37 -180 0
f 153 154 156 155
