# Wavefront OBJ exported by RE2MV
#
# object Object_0 to come ...
#
v  0.000000 -0.040000 2.880000
v  71.959999 -0.040000 2.880000
v  0.000000 131.979996 2.880000
v  71.959999 131.979996 2.880000
v  0.000000 -0.040000 -2.860000
v  71.959999 -0.040000 -2.860000
v  0.000000 131.979996 -2.860000
v  71.959999 131.979996 -2.860000
# 8 vertices

vt  0.000000 0.149020
vt  0.000000 1.000000
vt  0.984375 0.149020
vt  0.000000 1.000000
vt  0.984375 1.000000
vt  0.984375 0.149020
vt  0.992188 0.149020
vt  0.992188 1.000000
vt  0.968750 0.149020
vt  0.992188 1.000000
vt  0.968750 1.000000
vt  0.968750 0.149020
vt  0.984375 0.149020
vt  0.984375 1.000000
vt  0.000000 0.149020
vt  0.984375 1.000000
vt  0.000000 1.000000
vt  0.000000 0.149020
vt  0.960938 1.000000
vt  0.007813 1.000000
vt  0.960938 0.984314
vt  0.007813 1.000000
vt  0.007813 0.984314
vt  0.960938 0.984314
vt  0.992188 0.149020
vt  0.968750 0.149020
vt  0.992188 1.000000
vt  0.968750 0.149020
vt  0.968750 1.000000
vt  0.992188 1.000000
vt  0.960938 0.984314
vt  0.007813 0.984314
vt  0.960938 1.000000
vt  0.007813 0.984314
vt  0.007813 1.000000
vt  0.960938 1.000000
# 36 texture coordinates

vn  0.000000 0.000000 0.957514
vn  0.000000 0.000000 0.957514
vn  0.856502 -0.428368 0.000000
vn  0.428134 -0.856735 0.000000
vn  0.856502 0.428134 0.000000
vn  0.856502 -0.428368 0.000000
vn  0.856502 0.428134 0.000000
vn  0.428134 0.856502 0.000000
vn  0.000000 0.000000 -0.957748
vn  0.000000 0.000000 -0.957748
vn  0.428134 0.856502 0.000000
vn  0.856502 0.428134 0.000000
vn  -0.677158 0.676924 0.000000
vn  0.428134 0.856502 0.000000
vn  -0.677158 0.676924 0.000000
vn  -0.677158 0.676924 0.000000
vn  -0.677158 -0.677158 0.000000
vn  -0.677158 0.676924 0.000000
vn  -0.677158 -0.677158 0.000000
vn  0.428134 -0.856735 0.000000
vn  0.856502 -0.428368 0.000000
vn  -0.677158 -0.677158 0.000000
vn  0.428134 -0.856735 0.000000
vn  -0.677158 -0.677158 0.000000
# 24 vertex normals

g Object_0
s 1
f 2/1/1 4/2/1 1/3/1
f 4/4/2 3/5/2 1/6/2
f 6/7/4 8/8/5 2/9/3
f 8/10/7 4/11/8 2/12/6
f 5/13/9 7/14/9 6/15/9
f 7/16/10 8/17/10 6/18/10
f 8/19/12 7/20/13 4/21/11
f 7/22/15 3/23/15 4/24/14
f 5/25/17 1/26/17 7/27/16
f 1/28/19 3/29/18 7/30/18
f 2/31/21 1/32/22 6/33/20
f 1/34/24 5/35/24 6/36/23
# 12 faces

g
v  -9.100000 0.000000 -4.220000
v  1.000000 0.000000 -4.240000
v  1.060000 0.000000 -0.020000
v  -9.040000 1.020000 -3.220000
v  0.000000 1.020000 -3.140000
v  0.040000 1.020000 -0.020000
v  -9.020000 0.000000 -2.160000
v  -0.920000 0.000000 -2.260000
v  -0.980000 0.000000 0.000000
v  -9.040000 -1.040000 -3.220000
v  0.000000 -1.040000 -3.140000
v  0.040000 -1.040000 -0.020000
# 12 vertices

vt  0.062500 0.062745
vt  0.195313 0.062745
vt  0.117188 0.035294
vt  0.195313 0.062745
vt  0.195313 0.035294
vt  0.117188 0.035294
vt  0.468750 0.066667
vt  0.062500 0.066667
vt  0.484375 0.035294
vt  0.062500 0.066667
vt  0.000000 0.031373
vt  0.484375 0.035294
vt  0.062500 0.003922
vt  0.195313 0.003922
vt  0.000000 0.035294
vt  0.195313 0.003922
vt  0.195313 0.035294
vt  0.000000 0.035294
vt  0.000000 0.035294
vt  0.195313 0.035294
vt  0.062500 0.062745
vt  0.195313 0.035294
vt  0.195313 0.062745
vt  0.062500 0.062745
vt  0.468750 0.003922
vt  0.062500 0.003922
vt  0.460938 0.035294
vt  0.062500 0.003922
vt  0.117188 0.031373
vt  0.460938 0.035294
vt  0.460938 0.035294
vt  0.117188 0.031373
vt  0.468750 0.066667
vt  0.117188 0.035294
vt  0.062500 0.003922
vt  0.078125 0.011765
vt  0.117188 0.035294
vt  0.195313 0.035294
vt  0.062500 0.003922
vt  0.195313 0.035294
vt  0.195313 0.003922
vt  0.062500 0.003922
vt  0.484375 0.035294
vt  0.000000 0.031373
vt  0.468750 0.003922
vt  0.000000 0.031373
vt  0.062500 0.003922
vt  0.468750 0.003922
# 48 texture coordinates

vn  -0.674586 -0.002104 0.679496
vn  0.155728 -0.928987 0.173031
vn  -0.319873 -0.902565 -0.007482
vn  -0.674586 -0.002104 0.679496
vn  -0.319873 -0.902565 -0.007482
vn  -0.917296 0.274745 -0.009353
vn  0.000935 0.305609 -0.907709
vn  0.003507 0.899759 0.327355
vn  -0.170692 0.929923 -0.151986
vn  0.000935 0.305609 -0.907709
vn  -0.170692 0.929923 -0.151986
vn  0.676690 0.000701 -0.677625
vn  0.676690 0.000701 -0.677625
vn  -0.170692 0.929923 -0.151986
vn  0.309584 0.906072 -0.005144
vn  0.676690 0.000701 -0.677625
vn  0.309584 0.906072 -0.005144
vn  0.910047 -0.297659 -0.016368
vn  0.155728 -0.928987 0.173031
vn  0.676690 0.000701 -0.677625
vn  0.910047 -0.297659 -0.016368
vn  0.155728 -0.928987 0.173031
vn  0.910047 -0.297659 -0.016368
vn  -0.319873 -0.902565 -0.007482
vn  0.005378 -0.270068 0.918699
vn  -0.000468 -0.908878 -0.302336
vn  0.155728 -0.928987 0.173031
vn  0.005378 -0.270068 0.918699
vn  0.155728 -0.928987 0.173031
vn  -0.674586 -0.002104 0.679496
vn  0.003507 0.899759 0.327355
vn  0.005378 -0.270068 0.918699
vn  -0.674586 -0.002104 0.679496
vn  0.003507 0.899759 0.327355
vn  -0.674586 -0.002104 0.679496
vn  -0.170692 0.929923 -0.151986
vn  -0.170692 0.929923 -0.151986
vn  -0.674586 -0.002104 0.679496
vn  -0.917296 0.274745 -0.009353
vn  -0.170692 0.929923 -0.151986
vn  -0.917296 0.274745 -0.009353
vn  0.309584 0.906072 -0.005144
vn  -0.000468 -0.908878 -0.302336
vn  0.000935 0.305609 -0.907709
vn  0.676690 0.000701 -0.677625
vn  -0.000468 -0.908878 -0.302336
vn  0.676690 0.000701 -0.677625
vn  0.155728 -0.928987 0.173031
# 48 vertex normals

g Object_1
s 1
f 19/37/26 20/38/27 16/39/25
f 20/40/29 17/41/30 16/42/28
f 12/43/32 13/44/33 9/45/31
f 13/46/35 10/47/36 9/48/34
f 13/49/38 14/50/39 10/51/37
f 14/52/41 11/53/42 10/54/40
f 10/55/44 11/56/45 19/57/43
f 11/58/47 20/59/48 19/60/46
f 18/61/50 19/62/51 15/63/49
f 19/64/53 16/65/54 15/66/52
f 15/67/56 16/68/57 12/69/55
f 16/70/59 13/71/60 12/72/58
f 16/73/62 17/74/63 13/75/61
f 17/76/65 14/77/66 13/78/64
f 9/79/68 10/80/69 18/81/67
f 10/82/71 19/83/72 18/84/70
# 16 faces

g
