# Wavefront OBJ exported by RE2MV
#
# object Object_0 to come ...
#
v  -0.140000 0.180000 0.160000
v  -0.140000 0.180000 -2.880000
v  -1.840000 1.880000 -2.880000
v  -2.300000 2.340000 -2.460000
v  -2.300000 2.340000 -1.020000
v  -3.340000 3.380000 -1.020000
v  -117.279999 0.180000 0.160000
v  -117.279999 0.180000 -2.880000
v  -115.580002 1.880000 -2.880000
v  -115.120003 2.340000 -2.460000
v  -115.120003 2.340000 -1.020000
v  -114.080002 3.380000 -1.020000
v  -117.279999 121.400002 0.160000
v  -117.279999 121.400002 -2.880000
v  -115.580002 119.699997 -2.880000
v  -115.120003 119.239998 -2.460000
v  -115.120003 119.239998 -1.020000
v  -114.080002 118.199997 -1.020000
v  -0.140000 121.400002 0.160000
v  -0.140000 121.400002 -2.880000
v  -1.840000 119.699997 -2.880000
v  -2.300000 119.239998 -2.460000
v  -2.300000 119.239998 -1.020000
v  -3.340000 118.199997 -1.020000
v  -3.340000 118.199997 0.240000
v  -114.080002 118.199997 0.240000
v  -114.080002 3.380000 0.240000
v  -3.340000 3.380000 0.240000
v  -55.459999 118.199997 0.240000
v  -55.459999 3.380000 0.240000
v  -59.700001 118.199997 0.240000
v  -59.700001 3.380000 0.240000
v  -55.459999 118.199997 -0.460000
v  -55.459999 3.380000 -0.460000
v  -59.700001 118.199997 -0.460000
v  -59.700001 3.380000 -0.460000
v  -56.720001 118.199997 -3.100000
v  -56.720001 3.380000 -3.100000
v  -58.439999 118.199997 -3.100000
v  -58.439999 3.380000 -3.100000
v  -55.459999 64.760002 0.240000
v  -59.700001 64.760002 0.240000
v  -114.080002 64.760002 0.240000
v  -114.080002 58.060001 0.240000
v  -59.700001 58.060001 0.240000
v  -55.459999 58.060001 0.240000
v  -3.340000 64.760002 0.240000
v  -3.340000 58.060001 0.240000
v  -55.340000 64.760002 0.240000
v  -55.320000 58.060001 0.240000
v  -59.980000 58.060001 0.240000
v  -59.980000 64.760002 0.240000
v  -114.080002 64.760002 -1.060000
v  -114.080002 58.060001 -1.060000
v  -3.340000 64.760002 -1.060000
v  -3.340000 58.060001 -1.060000
v  -55.340000 64.760002 -1.060000
v  -55.320000 58.060001 -1.060000
v  -59.980000 58.060001 -1.060000
v  -59.980000 64.760002 -1.060000
# 60 vertices

vt  0.960938 0.478431
vt  0.960938 0.478431
vt  0.500000 0.478431
vt  0.960938 0.478431
vt  0.500000 0.478431
vt  0.500000 0.478431
vt  0.500000 0.537255
vt  0.500000 0.537255
vt  0.960938 0.537255
vt  0.500000 0.537255
vt  0.960938 0.537255
vt  0.960938 0.537255
vt  0.000000 0.003922
vt  0.992188 0.003922
vt  0.000000 0.003922
vt  0.992188 0.003922
vt  0.992188 0.003922
vt  0.000000 0.003922
vt  0.015625 0.113725
vt  0.851563 0.113725
vt  0.031250 0.121569
vt  0.851563 0.113725
vt  0.843750 0.121569
vt  0.031250 0.121569
vt  0.007813 0.019608
vt  0.976563 0.019608
vt  0.007813 0.019608
vt  0.976563 0.019608
vt  0.968750 0.019608
vt  0.007813 0.019608
vt  0.007813 0.019608
vt  0.968750 0.019608
vt  0.007813 0.019608
vt  0.968750 0.019608
vt  0.968750 0.019608
vt  0.007813 0.019608
vt  0.031250 0.121569
vt  0.835938 0.121569
vt  0.039063 0.129412
vt  0.835938 0.121569
vt  0.828125 0.129412
vt  0.039063 0.129412
vt  0.023438 0.031373
vt  0.960938 0.031373
vt  0.023438 0.031373
vt  0.960938 0.031373
vt  0.500000 0.031373
vt  0.960938 0.031373
vt  0.500000 0.031373
vt  0.460938 0.031373
vt  0.960938 0.031373
vt  0.460938 0.031373
vt  0.023438 0.031373
vt  0.960938 0.031373
vt  0.023438 0.537255
vt  0.023438 0.537255
vt  0.460938 0.537255
vt  0.023438 0.537255
vt  0.460938 0.537255
vt  0.460938 0.537255
vt  0.460938 0.478431
vt  0.460938 0.478431
vt  0.023438 0.478431
vt  0.460938 0.478431
vt  0.023438 0.478431
vt  0.023438 0.478431
vt  0.460938 0.537255
vt  0.460938 0.537255
vt  0.460938 0.478431
vt  0.460938 0.537255
vt  0.460938 0.478431
vt  0.460938 0.478431
vt  0.500000 0.478431
vt  0.500000 0.478431
vt  0.500000 0.537255
vt  0.500000 0.478431
vt  0.500000 0.537255
vt  0.500000 0.537255
vt  0.992188 0.003922
vt  0.992188 1.000000
vt  0.992188 0.003922
vt  0.992188 1.000000
vt  0.992188 1.000000
vt  0.992188 0.003922
vt  0.921875 0.184314
vt  0.921875 0.937255
vt  0.898438 0.192157
vt  0.921875 0.937255
vt  0.898438 0.925490
vt  0.898438 0.192157
vt  0.898438 0.192157
vt  0.898438 0.925490
vt  0.882813 0.192157
vt  0.976563 0.988235
vt  0.968750 0.980392
vt  0.968750 0.019608
vt  0.968750 0.019608
vt  0.968750 0.980392
vt  0.968750 0.019608
vt  0.968750 0.980392
vt  0.968750 0.980392
vt  0.968750 0.019608
vt  0.882813 0.192157
vt  0.882813 0.921569
vt  0.875000 0.203922
vt  0.882813 0.921569
vt  0.875000 0.917647
vt  0.875000 0.203922
vt  0.960938 0.031373
vt  0.960938 0.976471
vt  0.960938 0.031373
vt  0.960938 0.976471
vt  0.960938 0.976471
vt  0.960938 0.031373
vt  0.960938 0.537255
vt  0.960938 0.478431
vt  0.960938 0.976471
vt  0.960938 0.478431
vt  0.960938 0.031373
vt  0.960938 0.976471
vt  0.023438 0.478431
vt  0.023438 0.478431
vt  0.023438 0.537255
vt  0.023438 0.478431
vt  0.023438 0.537255
vt  0.023438 0.537255
vt  0.960938 0.537255
vt  0.960938 0.537255
vt  0.960938 0.478431
vt  0.960938 0.537255
vt  0.960938 0.478431
vt  0.960938 0.478431
vt  0.875000 0.541176
vt  0.046875 0.541176
vt  0.875000 0.203922
vt  0.046875 0.541176
vt  0.875000 0.541176
vt  0.046875 0.584314
vt  0.875000 0.541176
vt  0.875000 0.584314
vt  0.046875 0.584314
vt  0.992188 1.000000
vt  0.000000 1.000000
vt  0.992188 1.000000
vt  0.000000 1.000000
vt  0.000000 1.000000
vt  0.992188 1.000000
vt  0.882813 1.000000
vt  0.000000 1.000000
vt  0.875000 0.992157
vt  0.000000 1.000000
vt  0.007813 0.992157
vt  0.875000 0.992157
vt  0.875000 0.992157
vt  0.007813 0.992157
vt  0.867188 0.988235
vt  0.007813 0.992157
vt  0.007813 0.988235
vt  0.867188 0.988235
vt  0.968750 0.980392
vt  0.007813 0.980392
vt  0.968750 0.980392
vt  0.007813 0.980392
vt  0.007813 0.980392
vt  0.968750 0.980392
vt  0.867188 0.988235
vt  0.007813 0.988235
vt  0.859375 0.984314
vt  0.007813 0.988235
vt  0.023438 0.984314
vt  0.859375 0.984314
vt  0.960938 0.976471
vt  0.023438 0.976471
vt  0.960938 0.976471
vt  0.023438 0.976471
vt  0.460938 0.976471
vt  0.023438 0.976471
vt  0.460938 0.976471
vt  0.500000 0.976471
vt  0.023438 0.976471
vt  0.500000 0.976471
vt  0.960938 0.976471
vt  0.023438 0.976471
vt  0.046875 0.584314
vt  0.875000 0.584314
vt  0.875000 0.917647
vt  0.062500 0.584314
vt  0.867188 0.584314
vt  0.062500 0.976471
vt  0.867188 0.529412
vt  0.867188 0.584314
vt  0.062500 0.529412
vt  0.867188 0.584314
vt  0.062500 0.584314
vt  0.062500 0.529412
vt  0.062500 0.129412
vt  0.867188 0.529412
vt  0.062500 0.529412
vt  0.000000 1.000000
vt  0.000000 0.003922
vt  0.000000 1.000000
vt  0.000000 0.003922
vt  0.000000 0.003922
vt  0.000000 1.000000
vt  0.000000 1.000000
vt  0.000000 0.105882
vt  0.031250 0.988235
vt  0.000000 0.105882
vt  0.031250 0.117647
vt  0.031250 0.988235
vt  0.007813 0.988235
vt  0.007813 0.019608
vt  0.007813 0.980392
vt  0.007813 0.019608
vt  0.007813 0.019608
vt  0.007813 0.980392
vt  0.007813 0.980392
vt  0.007813 0.019608
vt  0.007813 0.980392
vt  0.007813 0.019608
vt  0.007813 0.019608
vt  0.007813 0.980392
vt  0.031250 0.984314
vt  0.031250 0.117647
vt  0.062500 0.976471
vt  0.031250 0.117647
vt  0.062500 0.129412
vt  0.062500 0.976471
vt  0.023438 0.976471
vt  0.023438 0.031373
vt  0.023438 0.976471
vt  0.023438 0.031373
vt  0.023438 0.031373
vt  0.023438 0.976471
vt  0.023438 0.031373
vt  0.023438 0.478431
vt  0.023438 0.976471
vt  0.023438 0.478431
vt  0.023438 0.537255
vt  0.023438 0.976471
vt  0.929688 0.529412
vt  0.929688 0.129412
vt  0.945313 0.529412
vt  0.031250 0.203922
vt  0.875000 0.203922
vt  0.046875 0.541176
vt  0.500000 0.031373
vt  0.500000 0.478431
vt  0.500000 0.031373
vt  0.031250 0.917647
vt  0.031250 0.584314
vt  0.875000 0.917647
vt  0.500000 0.537255
vt  0.500000 0.537255
vt  0.960938 0.976471
vt  0.867188 0.129412
vt  0.867188 0.529412
vt  0.062500 0.129412
vt  0.460938 0.478431
vt  0.460938 0.478431
vt  0.023438 0.031373
vt  0.882813 0.976471
vt  0.882813 0.129412
vt  0.906250 0.976471
vt  0.882813 0.129412
vt  0.906250 0.129412
vt  0.906250 0.976471
vt  0.460938 0.976471
vt  0.460938 0.976471
vt  0.500000 0.976471
vt  0.460938 0.976471
vt  0.500000 0.976471
vt  0.500000 0.976471
vt  0.460938 0.031373
vt  0.460938 0.031373
vt  0.460938 0.478431
vt  0.500000 0.031373
vt  0.500000 0.031373
vt  0.460938 0.031373
vt  0.500000 0.031373
vt  0.460938 0.031373
vt  0.460938 0.031373
vt  0.500000 0.976471
vt  0.500000 0.976471
vt  0.500000 0.537255
vt  0.500000 0.031373
vt  0.492188 0.031373
vt  0.460938 0.031373
vt  0.492188 0.031373
vt  0.476563 0.031373
vt  0.460938 0.031373
vt  0.929688 0.976471
vt  0.906250 0.976471
vt  0.929688 0.129412
vt  0.906250 0.976471
vt  0.906250 0.129412
vt  0.929688 0.129412
vt  0.460938 0.976471
vt  0.476563 0.976471
vt  0.500000 0.976471
vt  0.476563 0.976471
vt  0.492188 0.976471
vt  0.500000 0.976471
vt  0.867188 0.129412
vt  0.882813 0.129412
vt  0.867188 0.976471
vt  0.882813 0.129412
vt  0.882813 0.976471
vt  0.867188 0.976471
vt  0.460938 0.537255
vt  0.460938 0.976471
vt  0.460938 0.537255
vt  0.867188 0.976471
vt  0.062500 0.976471
vt  0.867188 0.584314
vt  0.460938 0.478431
vt  0.460938 0.537255
vt  0.460938 0.478431
vt  0.460938 0.537255
vt  0.460938 0.537255
vt  0.460938 0.478431
vt  0.460938 0.976471
vt  0.460938 0.537255
vt  0.460938 0.976471
vt  0.929688 0.584314
vt  0.929688 0.529412
vt  0.945313 0.584314
vt  0.929688 0.529412
vt  0.945313 0.529412
vt  0.945313 0.584314
vt  0.460938 0.478431
vt  0.460938 0.031373
vt  0.460938 0.537255
vt  0.460938 0.031373
vt  0.460938 0.976471
vt  0.460938 0.537255
vt  0.500000 0.031373
vt  0.500000 0.478431
vt  0.500000 0.976471
vt  0.500000 0.478431
vt  0.500000 0.537255
vt  0.500000 0.976471
# 342 texture coordinates

vn  0.000000 -0.957748 0.000000
vn  0.000000 -0.957748 0.000000
vn  0.000000 0.957514 0.000000
vn  0.000000 0.957514 0.000000
vn  0.000000 -0.957748 0.000000
vn  0.000000 -0.957748 0.000000
vn  -0.183085 0.182851 -0.922206
vn  0.000000 0.000000 -0.957748
vn  -0.183085 0.182851 -0.922206
vn  0.000000 0.000000 -0.957748
vn  0.182851 0.182851 -0.922206
vn  -0.578016 0.577782 -0.498983
vn  -0.183085 0.182851 -0.922206
vn  0.182851 0.182851 -0.922206
vn  -0.578016 0.577782 -0.498983
vn  0.182851 0.182851 -0.922206
vn  0.577782 0.577782 -0.498983
vn  0.000000 0.957514 0.000000
vn  -0.578016 0.577782 -0.498983
vn  0.577782 0.577782 -0.498983
vn  0.000000 0.957514 0.000000
vn  0.577782 0.577782 -0.498983
vn  0.000000 0.000000 -0.957748
vn  0.000000 0.000000 -0.957748
vn  0.000000 0.957514 0.000000
vn  0.000000 0.957514 0.000000
vn  0.000000 0.957514 0.000000
vn  0.000000 0.957514 0.000000
vn  -0.678093 0.676222 0.000000
vn  0.000000 0.957514 0.000000
vn  -0.678093 0.676222 0.000000
vn  0.000000 0.957514 0.000000
vn  0.000000 -0.957748 0.000000
vn  0.000000 -0.957748 0.000000
vn  -0.957748 -0.002104 0.000000
vn  -0.678093 0.676222 0.000000
vn  -0.957748 -0.002104 0.000000
vn  -0.678093 0.676222 0.000000
vn  0.957514 -0.001169 0.000000
vn  0.957514 -0.001169 0.000000
vn  -0.957748 0.000000 0.000000
vn  -0.957748 0.000000 0.000000
vn  0.182851 0.182851 -0.922206
vn  0.000000 0.000000 -0.957748
vn  0.182851 0.182851 -0.922206
vn  0.000000 0.000000 -0.957748
vn  0.182851 -0.183085 -0.922206
vn  0.577782 0.577782 -0.498983
vn  0.182851 0.182851 -0.922206
vn  0.182851 -0.183085 -0.922206
vn  0.577782 0.577782 -0.498983
vn  0.182851 -0.183085 -0.922206
vn  0.577782 -0.578016 -0.498983
vn  0.957514 0.000000 0.000000
vn  0.577782 0.577782 -0.498983
vn  0.577782 -0.578016 -0.498983
vn  0.957514 0.000000 0.000000
vn  0.577782 -0.578016 -0.498983
vn  0.000000 0.000000 -0.957748
vn  0.000000 0.000000 -0.957748
vn  0.957514 0.000000 0.000000
vn  0.957514 0.000000 0.000000
vn  0.957514 0.000000 0.000000
vn  0.957514 0.000000 0.000000
vn  0.957514 0.000000 0.000000
vn  0.957514 0.000000 0.000000
vn  -0.957748 0.000000 0.000000
vn  -0.957748 0.000000 0.000000
vn  0.000000 0.000000 -0.957748
vn  0.000000 0.000000 -0.957748
vn  0.000000 0.000000 -0.957748
vn  0.000000 0.957514 0.000000
vn  0.000000 0.957514 0.000000
vn  0.182851 -0.183085 -0.922206
vn  0.000000 0.000000 -0.957748
vn  0.182851 -0.183085 -0.922206
vn  0.000000 0.000000 -0.957748
vn  -0.183085 -0.183085 -0.922206
vn  0.577782 -0.578016 -0.498983
vn  0.182851 -0.183085 -0.922206
vn  -0.183085 -0.183085 -0.922206
vn  0.577782 -0.578016 -0.498983
vn  -0.183085 -0.183085 -0.922206
vn  -0.578016 -0.578016 -0.498983
vn  0.000000 -0.957748 0.000000
vn  0.577782 -0.578016 -0.498983
vn  -0.578016 -0.578016 -0.498983
vn  0.000000 -0.957748 0.000000
vn  -0.578016 -0.578016 -0.498983
vn  0.000000 0.000000 -0.957748
vn  0.000000 0.000000 -0.957748
vn  0.000000 -0.957748 0.000000
vn  0.000000 -0.957748 0.000000
vn  0.000000 -0.957748 0.000000
vn  0.000000 -0.957748 0.000000
vn  0.000000 0.000000 -0.957748
vn  0.000000 0.000000 -0.957748
vn  0.000000 0.000000 -0.957748
vn  0.000000 0.000000 -0.957748
vn  0.000000 0.000000 -0.957748
vn  0.957514 0.000000 0.000000
vn  0.957514 0.000000 0.000000
vn  -0.183085 -0.183085 -0.922206
vn  0.000000 0.000000 -0.957748
vn  -0.183085 -0.183085 -0.922206
vn  0.000000 0.000000 -0.957748
vn  -0.183085 0.182851 -0.922206
vn  -0.578016 -0.578016 -0.498983
vn  -0.183085 -0.183085 -0.922206
vn  -0.183085 0.182851 -0.922206
vn  -0.578016 -0.578016 -0.498983
vn  -0.183085 0.182851 -0.922206
vn  -0.578016 0.577782 -0.498983
vn  -0.957748 0.000000 0.000000
vn  -0.578016 -0.578016 -0.498983
vn  -0.578016 0.577782 -0.498983
vn  -0.957748 0.000000 0.000000
vn  -0.578016 0.577782 -0.498983
vn  0.000000 0.000000 -0.957748
vn  0.000000 0.000000 -0.957748
vn  -0.957748 0.000000 0.000000
vn  -0.957748 0.000000 0.000000
vn  -0.957748 0.000000 0.000000
vn  -0.957748 0.000000 0.000000
vn  0.000000 0.000000 -0.957748
vn  0.000000 0.000000 -0.957748
vn  -0.947460 0.000000 -0.140529
vn  -0.957748 0.000000 0.000000
vn  -0.957748 0.000000 0.000000
vn  0.000000 0.000000 -0.957748
vn  0.000000 0.000000 -0.957748
vn  0.000000 0.000000 -0.957748
vn  0.000000 0.000000 -0.957748
vn  0.000000 0.000000 -0.957748
vn  0.000000 0.000000 -0.957748
vn  0.000000 0.000000 -0.957748
vn  0.000000 0.000000 -0.957748
vn  0.000000 0.957514 0.000000
vn  0.000000 0.957514 0.000000
vn  0.957514 0.000000 0.000000
vn  0.957514 0.000000 0.000000
vn  0.947226 0.000000 -0.140529
vn  0.000000 -0.957748 0.000000
vn  0.000000 -0.957748 0.000000
vn  -0.957748 0.000000 0.000000
vn  -0.957748 0.000000 0.000000
vn  -0.947460 0.000000 -0.140529
vn  0.000000 -0.957748 0.000000
vn  0.000000 -0.957748 0.000000
vn  -0.947460 0.000000 -0.140529
vn  -0.864452 0.000000 -0.412468
vn  -0.947460 0.000000 -0.140529
vn  -0.864452 0.000000 -0.412468
vn  0.000000 0.957514 0.000000
vn  0.000000 0.957514 0.000000
vn  0.947226 0.000000 -0.140529
vn  0.864218 0.000000 -0.412468
vn  0.947226 0.000000 -0.140529
vn  0.864218 0.000000 -0.412468
vn  0.000000 0.000000 -0.957748
vn  0.000000 0.000000 -0.957748
vn  0.000000 0.000000 -0.957748
vn  0.000000 0.000000 -0.957748
vn  0.947226 0.000000 -0.140529
vn  0.957514 0.000000 0.000000
vn  0.957514 0.000000 0.000000
vn  0.000000 0.000000 -0.957748
vn  0.000000 0.000000 -0.957748
vn  0.000000 0.000000 -0.957748
vn  0.957514 0.000000 0.000000
vn  0.957514 0.000000 0.000000
vn  0.947226 0.000000 -0.140529
vn  0.957514 0.000000 0.000000
vn  0.947226 0.000000 -0.140529
vn  -0.947460 0.000000 -0.140529
vn  -0.957748 0.000000 0.000000
vn  -0.947460 0.000000 -0.140529
vn  -0.957748 0.000000 0.000000
vn  -0.957748 0.000000 0.000000
# 179 vertex normals

g Object_0
s 1
f 44/1/1 54/2/1 51/3/1
f 54/4/2 59/5/2 51/6/2
f 52/7/3 60/8/3 43/9/3
f 60/10/4 53/11/4 43/12/4
f 1/13/5 7/14/5 2/15/5
f 7/16/6 8/17/6 2/18/6
f 2/19/8 8/20/8 3/21/7
f 8/22/10 9/23/11 3/24/9
f 3/25/13 9/26/14 4/27/12
f 9/28/16 10/29/17 4/30/15
f 4/31/19 10/32/20 5/33/18
f 10/34/22 11/35/21 5/36/21
f 5/37/23 11/38/23 6/39/23
f 11/40/24 12/41/24 6/42/24
f 6/43/25 12/44/25 28/45/25
f 27/46/26 32/47/26 12/48/26
f 32/49/27 30/50/27 12/51/27
f 30/52/28 28/53/28 12/54/28
f 47/55/30 55/56/30 49/57/29
f 55/58/32 57/59/31 49/60/31
f 50/61/33 58/62/33 48/63/33
f 58/64/34 56/65/34 48/66/34
f 49/67/36 57/68/36 50/69/35
f 57/70/38 58/71/37 50/72/37
f 51/73/39 59/74/39 52/75/39
f 59/76/40 60/77/40 52/78/40
f 7/79/41 13/80/41 8/81/41
f 13/82/42 14/83/42 8/84/42
f 8/85/44 14/86/44 9/87/43
f 14/88/46 15/89/47 9/90/45
f 9/91/49 15/92/50 10/93/48
f 15/94/52 16/95/53 10/96/51
f 10/97/55 16/98/56 11/99/54
f 16/100/58 17/101/57 11/102/57
f 11/103/59 17/104/59 12/105/59
f 17/106/60 18/107/60 12/108/60
f 12/109/61 18/110/61 27/111/61
f 18/112/62 26/113/62 27/114/62
f 43/115/63 44/116/63 26/117/63
f 44/118/64 27/119/64 26/120/64
f 48/121/65 56/122/65 47/123/65
f 56/124/66 55/125/66 47/126/66
f 43/127/67 53/128/67 44/129/67
f 53/130/68 54/131/68 44/132/68
f 44/133/69 51/134/69 27/135/69
f 59/136/70 54/137/70 60/138/70
f 54/139/71 53/140/71 60/141/71
f 13/142/72 19/143/72 14/144/72
f 19/145/73 20/146/73 14/147/73
f 14/148/75 20/149/75 15/150/74
f 20/151/77 21/152/78 15/153/76
f 15/154/80 21/155/81 16/156/79
f 21/157/83 22/158/84 16/159/82
f 16/160/86 22/161/87 17/162/85
f 22/163/89 23/164/88 17/165/88
f 17/166/90 23/167/90 18/168/90
f 23/169/91 24/170/91 18/171/91
f 18/172/92 24/173/92 26/174/92
f 25/175/93 29/176/93 24/177/93
f 29/178/94 31/179/94 24/180/94
f 31/181/95 26/182/95 24/183/95
f 52/184/96 43/185/96 26/186/96
f 47/187/97 49/188/97 25/189/97
f 58/190/98 57/191/98 56/192/98
f 57/193/99 55/194/99 56/195/99
f 28/196/100 50/197/100 48/198/100
f 19/199/101 1/200/101 20/201/101
f 1/202/102 2/203/102 20/204/102
f 20/205/104 2/206/104 21/207/103
f 2/208/106 3/209/107 21/210/105
f 21/211/109 3/212/110 22/213/108
f 3/214/112 4/215/113 22/216/111
f 22/217/115 4/218/116 23/219/114
f 4/220/118 5/221/117 23/222/117
f 23/223/119 5/224/119 24/225/119
f 5/226/120 6/227/120 24/228/120
f 24/229/121 6/230/121 25/231/121
f 6/232/122 28/233/122 25/234/122
f 28/235/123 48/236/123 25/237/123
f 48/238/124 47/239/124 25/240/124
f 45/241/125 32/242/125 51/243/125
f 32/244/126 27/245/126 51/246/126
f 32/247/128 45/248/129 36/249/127
f 31/250/130 42/251/132 26/252/130
f 42/253/133 52/254/132 26/255/132
f 30/256/134 46/257/134 28/258/134
f 46/259/135 50/260/135 28/261/135
f 37/262/136 38/263/136 39/264/136
f 38/265/137 40/266/137 39/267/137
f 29/268/138 33/269/138 31/270/138
f 33/271/139 35/272/139 31/273/139
f 30/274/141 34/275/142 46/276/140
f 32/277/143 36/278/143 30/279/143
f 36/280/144 34/281/144 30/282/144
f 31/283/146 35/284/147 42/285/145
f 36/286/148 40/287/148 34/288/148
f 40/289/149 38/290/149 34/291/149
f 35/292/150 39/293/152 36/294/150
f 39/295/153 40/296/153 36/297/152
f 33/298/154 37/299/154 35/300/154
f 37/301/155 39/302/155 35/303/155
f 34/304/156 38/305/158 33/306/156
f 38/307/159 37/308/159 33/309/158
f 41/310/160 29/311/160 49/312/160
f 29/313/161 25/314/161 49/315/161
f 46/316/162 41/317/162 50/318/162
f 41/319/163 49/320/163 50/321/163
f 29/322/165 41/323/166 33/324/164
f 42/325/168 45/326/167 52/327/167
f 45/328/169 51/329/169 52/330/169
f 46/331/171 34/332/172 41/333/170
f 34/334/174 33/335/174 41/336/173
f 36/337/175 45/338/177 35/339/175
f 45/340/178 42/341/179 35/342/177
# 114 faces

g
v  -12.900000 0.220000 -3.440000
v  -12.900000 0.220000 -0.040000
v  -12.900000 22.780001 -3.440000
v  -12.900000 22.780001 -0.040000
v  -0.060000 0.220000 -3.440000
v  -0.060000 0.220000 -0.040000
v  -0.060000 22.780001 -3.440000
v  -0.060000 22.780001 -0.040000
# 8 vertices

vt  0.312500 0.098039
vt  0.007813 0.098039
vt  0.312500 0.098039
vt  0.007813 0.098039
vt  0.007813 0.098039
vt  0.312500 0.098039
vt  0.312500 0.000000
vt  0.007813 0.000000
vt  0.312500 0.098039
vt  0.007813 0.000000
vt  0.007813 0.098039
vt  0.312500 0.098039
vt  0.312500 0.000000
vt  0.007813 0.000000
vt  0.312500 0.000000
vt  0.007813 0.000000
vt  0.007813 0.000000
vt  0.312500 0.000000
vt  0.312500 0.098039
vt  0.007813 0.098039
vt  0.312500 0.000000
vt  0.007813 0.098039
vt  0.007813 0.000000
vt  0.312500 0.000000
vt  0.312500 0.000000
vt  0.312500 0.098039
vt  0.312500 0.000000
vt  0.312500 0.098039
vt  0.312500 0.098039
vt  0.312500 0.000000
vt  0.007813 0.098039
vt  0.007813 0.000000
vt  0.007813 0.098039
vt  0.007813 0.000000
vt  0.007813 0.000000
vt  0.007813 0.098039
# 36 texture coordinates

vn  -0.957748 0.000000 0.000000
vn  -0.957748 0.000000 0.000000
vn  0.000000 0.000000 0.957514
vn  0.000000 0.000000 0.957514
vn  0.957514 0.000000 0.000000
vn  0.957514 0.000000 0.000000
vn  0.000000 0.000000 -0.957748
vn  0.000000 0.000000 -0.957748
vn  0.000000 -0.957748 0.000000
vn  0.000000 -0.957748 0.000000
vn  0.000000 0.957514 0.000000
vn  0.000000 0.957514 0.000000
# 12 vertex normals

g Object_1
s 1
f 62/343/180 64/344/180 61/345/180
f 64/346/181 63/347/181 61/348/181
f 66/349/182 68/350/182 62/351/182
f 68/352/183 64/353/183 62/354/183
f 65/355/184 67/356/184 66/357/184
f 67/358/185 68/359/185 66/360/185
f 61/361/186 63/362/186 65/363/186
f 63/364/187 67/365/187 65/366/187
f 66/367/188 62/368/188 65/369/188
f 62/370/189 61/371/189 65/372/189
f 64/373/190 68/374/190 63/375/190
f 68/376/191 67/377/191 63/378/191
# 12 faces

g
