# Wavefront OBJ exported by RE2MV
#
# object Object_0 to come ...
#
v  0.000000 -0.040000 2.880000
v  71.959999 -0.040000 2.880000
v  0.000000 131.979996 2.880000
v  71.959999 131.979996 2.880000
v  0.000000 -0.040000 -2.860000
v  71.959999 -0.040000 -2.860000
v  0.000000 131.979996 -2.860000
v  71.959999 131.979996 -2.860000
# 8 vertices

vt  0.000000 0.149020
vt  0.000000 1.000000
vt  0.984375 0.149020
vt  0.000000 1.000000
vt  0.984375 1.000000
vt  0.984375 0.149020
vt  0.992188 0.149020
vt  0.992188 1.000000
vt  0.968750 0.149020
vt  0.992188 1.000000
vt  0.968750 1.000000
vt  0.968750 0.149020
vt  0.984375 0.149020
vt  0.984375 1.000000
vt  0.000000 0.149020
vt  0.984375 1.000000
vt  0.000000 1.000000
vt  0.000000 0.149020
vt  0.960938 1.000000
vt  0.007813 1.000000
vt  0.960938 0.984314
vt  0.007813 1.000000
vt  0.007813 0.984314
vt  0.960938 0.984314
vt  0.992188 0.149020
vt  0.968750 0.149020
vt  0.992188 1.000000
vt  0.968750 0.149020
vt  0.968750 1.000000
vt  0.992188 1.000000
vt  0.960938 0.984314
vt  0.007813 0.984314
vt  0.960938 1.000000
vt  0.007813 0.984314
vt  0.007813 1.000000
vt  0.960938 1.000000
# 36 texture coordinates

vn  0.000000 0.000000 0.957514
vn  0.000000 0.000000 0.957514
vn  0.856502 -0.428368 0.000000
vn  0.428134 -0.856735 0.000000
vn  0.856502 0.428134 0.000000
vn  0.856502 -0.428368 0.000000
vn  0.856502 0.428134 0.000000
vn  0.428134 0.856502 0.000000
vn  0.000000 0.000000 -0.957748
vn  0.000000 0.000000 -0.957748
vn  0.428134 0.856502 0.000000
vn  0.856502 0.428134 0.000000
vn  -0.677158 0.676924 0.000000
vn  0.428134 0.856502 0.000000
vn  -0.677158 0.676924 0.000000
vn  -0.677158 0.676924 0.000000
vn  -0.677158 -0.677158 0.000000
vn  -0.677158 0.676924 0.000000
vn  -0.677158 -0.677158 0.000000
vn  0.428134 -0.856735 0.000000
vn  0.856502 -0.428368 0.000000
vn  -0.677158 -0.677158 0.000000
vn  0.428134 -0.856735 0.000000
vn  -0.677158 -0.677158 0.000000
# 24 vertex normals

g Object_0
s 1
f 2/1/1 4/2/1 1/3/1
f 4/4/2 3/5/2 1/6/2
f 6/7/4 8/8/5 2/9/3
f 8/10/7 4/11/8 2/12/6
f 5/13/9 7/14/9 6/15/9
f 7/16/10 8/17/10 6/18/10
f 8/19/12 7/20/13 4/21/11
f 7/22/15 3/23/15 4/24/14
f 5/25/17 1/26/17 7/27/16
f 1/28/19 3/29/18 7/30/18
f 2/31/21 1/32/22 6/33/20
f 1/34/24 5/35/24 6/36/23
# 12 faces

g
v  0.000000 -13.620000 -4.200000
v  0.000000 13.740000 -4.200000
v  0.000000 -12.380000 -5.960000
v  0.000000 12.480000 -5.960000
v  -1.680000 -12.380000 -4.740000
v  -1.680000 12.480000 -4.740000
v  -1.040000 -12.380000 -2.780000
v  -1.040000 12.480000 -2.780000
v  1.020000 -12.380000 -2.780000
v  1.020000 12.480000 -2.780000
v  1.660000 -12.380000 -4.740000
v  1.660000 12.480000 -4.740000
v  0.000000 -11.400000 -2.720000
v  0.000000 -11.400000 0.300000
v  -0.420000 -11.840000 -2.720000
v  -0.420000 -11.840000 0.300000
v  0.000000 -12.260000 -2.720000
v  0.000000 -12.260000 0.300000
v  0.400000 -11.840000 -2.720000
v  0.400000 -11.840000 0.300000
v  0.000000 12.380000 -2.720000
v  0.000000 12.380000 0.300000
v  -0.420000 11.940000 -2.720000
v  -0.420000 11.940000 0.300000
v  0.000000 11.520000 -2.720000
v  0.000000 11.520000 0.300000
v  0.400000 11.940000 -2.720000
v  0.400000 11.940000 0.300000
# 28 vertices

vt  0.445313 0.054902
vt  0.445313 0.078431
vt  0.406250 0.054902
vt  0.476563 0.066667
vt  0.007813 0.066667
vt  0.484375 0.039216
vt  0.007813 0.066667
vt  0.007813 0.039216
vt  0.484375 0.039216
vt  0.468750 0.050980
vt  0.429688 0.078431
vt  0.429688 0.050980
vt  0.453125 0.054902
vt  0.421875 0.078431
vt  0.421875 0.054902
vt  0.484375 0.019608
vt  0.000000 0.019608
vt  0.476563 0.007843
vt  0.000000 0.019608
vt  0.007813 0.007843
vt  0.476563 0.007843
vt  0.468750 0.050980
vt  0.453125 0.078431
vt  0.429688 0.050980
vt  0.421875 0.054902
vt  0.421875 0.078431
vt  0.382813 0.054902
vt  0.484375 0.054902
vt  0.000000 0.054902
vt  0.484375 0.019608
vt  0.000000 0.054902
vt  0.000000 0.019608
vt  0.484375 0.019608
vt  0.445313 0.050980
vt  0.445313 0.078431
vt  0.406250 0.050980
vt  0.445313 0.054902
vt  0.429688 0.078431
vt  0.398438 0.054902
vt  0.476563 0.066667
vt  0.007813 0.066667
vt  0.484375 0.054902
vt  0.007813 0.066667
vt  0.000000 0.054902
vt  0.484375 0.054902
vt  0.476563 0.050980
vt  0.445313 0.078431
vt  0.445313 0.050980
vt  0.484375 0.054902
vt  0.445313 0.078431
vt  0.445313 0.054902
vt  0.484375 0.039216
vt  0.007813 0.039216
vt  0.476563 0.003922
vt  0.007813 0.039216
vt  0.007813 0.003922
vt  0.476563 0.003922
vt  0.429688 0.050980
vt  0.429688 0.078431
vt  0.390625 0.050980
vt  0.007813 0.043137
vt  0.093750 0.043137
vt  0.007813 0.019608
vt  0.093750 0.043137
vt  0.093750 0.019608
vt  0.007813 0.019608
vt  0.000000 0.039216
vt  0.093750 0.039216
vt  0.007813 0.062745
vt  0.093750 0.039216
vt  0.093750 0.062745
vt  0.007813 0.062745
vt  0.007813 0.062745
vt  0.093750 0.062745
vt  0.007813 0.043137
vt  0.093750 0.062745
vt  0.093750 0.043137
vt  0.007813 0.043137
vt  0.007813 0.019608
vt  0.093750 0.019608
vt  0.000000 0.039216
vt  0.093750 0.019608
vt  0.093750 0.039216
vt  0.000000 0.039216
vt  0.492188 0.039216
vt  0.398438 0.039216
vt  0.484375 0.011765
vt  0.398438 0.039216
vt  0.398438 0.011765
vt  0.484375 0.011765
vt  0.484375 0.039216
vt  0.398438 0.039216
vt  0.484375 0.058824
vt  0.398438 0.039216
vt  0.398438 0.058824
vt  0.484375 0.058824
vt  0.484375 0.058824
vt  0.398438 0.058824
vt  0.492188 0.039216
vt  0.398438 0.058824
vt  0.398438 0.039216
vt  0.492188 0.039216
vt  0.484375 0.011765
vt  0.398438 0.011765
vt  0.484375 0.039216
vt  0.398438 0.011765
vt  0.398438 0.039216
vt  0.484375 0.039216
# 108 texture coordinates

vn  -0.871466 -0.375523 -0.129305
vn  -0.146375 -0.375523 -0.868894
vn  0.000000 -0.957748 0.000000
vn  -0.146375 -0.375523 -0.868894
vn  -0.871466 -0.375523 -0.129305
vn  -0.781210 0.375289 -0.407557
vn  -0.146375 -0.375523 -0.868894
vn  -0.781210 0.375289 -0.407557
vn  0.146141 0.375289 -0.868894
vn  0.146141 0.375289 -0.868894
vn  -0.781210 0.375289 -0.407557
vn  0.000000 0.957514 0.000000
vn  -0.392359 -0.375523 0.788692
vn  -0.871466 -0.375523 -0.129305
vn  0.000000 -0.957748 0.000000
vn  -0.871466 -0.375523 -0.129305
vn  -0.392359 -0.375523 0.788692
vn  -0.628990 0.375289 0.616597
vn  -0.871466 -0.375523 -0.129305
vn  -0.628990 0.375289 0.616597
vn  -0.781210 0.375289 -0.407557
vn  -0.781210 0.375289 -0.407557
vn  -0.628990 0.375289 0.616597
vn  0.000000 0.957514 0.000000
vn  0.628756 -0.375523 0.616597
vn  -0.392359 -0.375523 0.788692
vn  0.000000 -0.957748 0.000000
vn  -0.392359 -0.375523 0.788692
vn  0.628756 -0.375523 0.616597
vn  0.392125 0.375289 0.788692
vn  -0.392359 -0.375523 0.788692
vn  0.392125 0.375289 0.788692
vn  -0.628990 0.375289 0.616597
vn  -0.628990 0.375289 0.616597
vn  0.392125 0.375289 0.788692
vn  0.000000 0.957514 0.000000
vn  0.780976 -0.375523 -0.407557
vn  0.628756 -0.375523 0.616597
vn  0.000000 -0.957748 0.000000
vn  0.628756 -0.375523 0.616597
vn  0.780976 -0.375523 -0.407557
vn  0.871232 0.375289 -0.129305
vn  0.628756 -0.375523 0.616597
vn  0.871232 0.375289 -0.129305
vn  0.392125 0.375289 0.788692
vn  0.392125 0.375289 0.788692
vn  0.871232 0.375289 -0.129305
vn  0.000000 0.957514 0.000000
vn  -0.146375 -0.375523 -0.868894
vn  0.780976 -0.375523 -0.407557
vn  0.000000 -0.957748 0.000000
vn  0.780976 -0.375523 -0.407557
vn  -0.146375 -0.375523 -0.868894
vn  0.146141 0.375289 -0.868894
vn  0.780976 -0.375523 -0.407557
vn  0.146141 0.375289 -0.868894
vn  0.871232 0.375289 -0.129305
vn  0.871232 0.375289 -0.129305
vn  0.146141 0.375289 -0.868894
vn  0.000000 0.957514 0.000000
vn  0.302570 -0.908645 0.000000
vn  0.908411 0.302570 0.000000
vn  0.908411 -0.302804 0.000000
vn  0.302570 -0.908645 0.000000
vn  0.908411 -0.302804 0.000000
vn  -0.302804 -0.908645 0.000000
vn  -0.302804 0.908411 0.000000
vn  -0.908645 -0.302804 0.000000
vn  -0.908645 0.302570 0.000000
vn  -0.302804 0.908411 0.000000
vn  -0.908645 0.302570 0.000000
vn  0.302570 0.908411 0.000000
vn  0.908411 0.302570 0.000000
vn  -0.302804 0.908411 0.000000
vn  0.302570 0.908411 0.000000
vn  0.908411 0.302570 0.000000
vn  0.302570 0.908411 0.000000
vn  0.908411 -0.302804 0.000000
vn  -0.908645 -0.302804 0.000000
vn  0.302570 -0.908645 0.000000
vn  -0.302804 -0.908645 0.000000
vn  -0.908645 -0.302804 0.000000
vn  -0.302804 -0.908645 0.000000
vn  -0.908645 0.302570 0.000000
vn  0.302570 -0.908645 0.000000
vn  0.908411 0.302570 0.000000
vn  0.908411 -0.302804 0.000000
vn  0.302570 -0.908645 0.000000
vn  0.908411 -0.302804 0.000000
vn  -0.302804 -0.908645 0.000000
vn  -0.302804 0.908411 0.000000
vn  -0.908645 -0.302804 0.000000
vn  -0.908645 0.302570 0.000000
vn  -0.302804 0.908411 0.000000
vn  -0.908645 0.302570 0.000000
vn  0.302570 0.908411 0.000000
vn  0.908411 0.302570 0.000000
vn  -0.302804 0.908411 0.000000
vn  0.302570 0.908411 0.000000
vn  0.908411 0.302570 0.000000
vn  0.302570 0.908411 0.000000
vn  0.908411 -0.302804 0.000000
vn  -0.908645 -0.302804 0.000000
vn  0.302570 -0.908645 0.000000
vn  -0.302804 -0.908645 0.000000
vn  -0.908645 -0.302804 0.000000
vn  -0.302804 -0.908645 0.000000
vn  -0.908645 0.302570 0.000000
# 108 vertex normals

g Object_1
s 1
f 11/37/26 9/38/27 13/39/25
f 13/40/29 14/41/30 11/42/28
f 14/43/32 12/44/33 11/45/31
f 14/46/35 10/47/36 12/48/34
f 13/49/38 9/50/39 15/51/37
f 15/52/41 16/53/42 13/54/40
f 16/55/44 14/56/45 13/57/43
f 16/58/47 10/59/48 14/60/46
f 15/61/50 9/62/51 17/63/49
f 17/64/53 18/65/54 15/66/52
f 18/67/56 16/68/57 15/69/55
f 18/70/59 10/71/60 16/72/58
f 17/73/62 9/74/63 19/75/61
f 19/76/65 20/77/66 17/78/64
f 20/79/68 18/80/69 17/81/67
f 20/82/71 10/83/72 18/84/70
f 19/85/74 9/86/75 11/87/73
f 11/88/77 12/89/78 19/90/76
f 12/91/80 20/92/81 19/93/79
f 12/94/83 10/95/84 20/96/82
f 27/97/86 28/98/87 25/99/85
f 28/100/89 26/101/90 25/102/88
f 23/103/92 24/104/93 21/105/91
f 24/106/95 22/107/96 21/108/94
f 21/109/98 22/110/99 27/111/97
f 22/112/101 28/113/102 27/114/100
f 25/115/104 26/116/105 23/117/103
f 26/118/107 24/119/108 23/120/106
f 35/121/110 36/122/111 33/123/109
f 36/124/113 34/125/114 33/126/112
f 31/127/116 32/128/117 29/129/115
f 32/130/119 30/131/120 29/132/118
f 29/133/122 30/134/123 35/135/121
f 30/136/125 36/137/126 35/138/124
f 33/139/128 34/140/129 31/141/127
f 34/142/131 32/143/132 31/144/130
# 36 faces

g
