# Wavefront OBJ exported by RE2MV
#
# object Object_0 to come ...
#
v  -136.199997 0.000000 0.000000
v  -136.199997 21.580000 0.000000
v  -136.199997 21.580000 32.380001
v  -136.199997 43.180000 32.380001
v  -136.199997 43.180000 64.779999
v  -136.199997 64.779999 64.779999
v  -136.199997 64.779999 97.180000
v  -136.199997 86.379997 97.180000
v  -136.199997 86.379997 129.580002
v  -136.199997 107.980003 129.580002
v  -136.199997 107.980003 161.979996
v  -136.199997 129.580002 161.979996
v  -136.199997 129.580002 194.380005
v  -136.199997 151.179993 194.380005
v  -136.199997 151.179993 226.779999
v  -136.199997 172.779999 226.779999
v  -136.199997 172.779999 259.179993
v  -136.199997 194.380005 259.179993
v  -136.199997 194.380005 291.579987
v  -136.199997 215.979996 291.579987
v  -136.199997 215.979996 323.980011
v  -136.199997 237.580002 323.980011
v  -136.199997 237.580002 356.380005
v  -136.199997 259.179993 356.380005
v  -136.199997 259.179993 388.779999
v  133.779999 237.580002 323.980011
v  133.779999 215.979996 323.980011
v  133.779999 151.179993 194.380005
v  133.779999 129.580002 194.380005
v  133.779999 64.779999 64.779999
v  133.779999 43.180000 64.779999
v  133.779999 194.380005 291.579987
v  133.779999 172.779999 259.179993
v  133.779999 86.379997 129.580002
v  133.779999 107.980003 129.580002
v  133.779999 0.000000 0.000000
v  133.779999 21.580000 0.000000
v  133.779999 237.580002 356.380005
v  133.779999 129.580002 161.979996
v  133.779999 259.179993 388.779999
v  133.779999 215.979996 291.579987
v  133.779999 86.379997 97.180000
v  133.779999 172.779999 226.779999
v  133.779999 107.980003 161.979996
v  133.779999 151.179993 226.779999
v  133.779999 64.779999 97.180000
v  133.779999 21.580000 32.380001
v  133.779999 194.380005 259.179993
v  133.779999 259.179993 356.380005
v  133.779999 43.180000 32.380001
# 50 vertices

vt  0.992188 0.992157
vt  0.796875 0.992157
vt  0.992188 0.458824
vt  0.992188 0.458824
vt  0.796875 0.992157
vt  0.796875 0.458824
vt  0.742188 0.996078
vt  0.507813 0.996078
vt  0.742188 0.011765
vt  0.742188 0.011765
vt  0.507813 0.996078
vt  0.507813 0.011765
vt  0.992188 0.831373
vt  0.804688 0.831373
vt  0.992188 0.298039
vt  0.992188 0.298039
vt  0.804688 0.831373
vt  0.804688 0.298039
vt  0.460938 0.996078
vt  0.234375 0.996078
vt  0.460938 0.011765
vt  0.460938 0.011765
vt  0.234375 0.996078
vt  0.234375 0.011765
vt  0.976563 0.992157
vt  0.812500 0.992157
vt  0.976563 0.011765
vt  0.976563 0.011765
vt  0.812500 0.992157
vt  0.812500 0.011765
vt  0.187500 0.992157
vt  0.000000 0.992157
vt  0.187500 0.011765
vt  0.187500 0.011765
vt  0.000000 0.992157
vt  0.000000 0.011765
vt  0.992188 0.698039
vt  0.804688 0.698039
vt  0.992188 0.164706
vt  0.992188 0.164706
vt  0.804688 0.698039
vt  0.804688 0.164706
vt  0.476563 0.996078
vt  0.242188 0.996078
vt  0.476563 0.011765
vt  0.476563 0.011765
vt  0.242188 0.996078
vt  0.242188 0.011765
vt  0.992188 0.670588
vt  0.804688 0.670588
vt  0.992188 0.003922
vt  0.992188 0.003922
vt  0.804688 0.670588
vt  0.804688 0.003922
vt  0.726563 0.996078
vt  0.500000 0.996078
vt  0.726563 0.011765
vt  0.726563 0.011765
vt  0.500000 0.996078
vt  0.500000 0.011765
vt  0.992188 0.988235
vt  0.796875 0.988235
vt  0.992188 0.321569
vt  0.992188 0.321569
vt  0.796875 0.988235
vt  0.796875 0.321569
vt  0.187500 0.992157
vt  0.000000 0.992157
vt  0.187500 0.011765
vt  0.187500 0.011765
vt  0.000000 0.992157
vt  0.000000 0.011765
vt  0.976563 0.992157
vt  0.820313 0.992157
vt  0.976563 0.011765
vt  0.976563 0.011765
vt  0.820313 0.992157
vt  0.820313 0.011765
vt  0.726563 0.996078
vt  0.500000 0.996078
vt  0.726563 0.011765
vt  0.726563 0.011765
vt  0.500000 0.996078
vt  0.500000 0.011765
vt  0.992188 0.788235
vt  0.796875 0.788235
vt  0.992188 0.121569
vt  0.992188 0.121569
vt  0.796875 0.788235
vt  0.796875 0.121569
vt  0.468750 0.996078
vt  0.242188 0.996078
vt  0.468750 0.011765
vt  0.468750 0.011765
vt  0.242188 0.996078
vt  0.242188 0.011765
vt  0.187500 0.992157
vt  0.000000 0.992157
vt  0.187500 0.011765
vt  0.187500 0.011765
vt  0.000000 0.992157
vt  0.000000 0.011765
vt  0.726563 0.996078
vt  0.500000 0.996078
vt  0.726563 0.011765
vt  0.726563 0.011765
vt  0.500000 0.996078
vt  0.500000 0.011765
vt  0.468750 0.996078
vt  0.242188 0.996078
vt  0.468750 0.011765
vt  0.468750 0.011765
vt  0.242188 0.996078
vt  0.242188 0.011765
vt  0.976563 0.992157
vt  0.820313 0.992157
vt  0.976563 0.011765
vt  0.976563 0.011765
vt  0.820313 0.992157
vt  0.820313 0.011765
vt  0.179688 0.992157
vt  0.000000 0.992157
vt  0.179688 0.011765
vt  0.179688 0.011765
vt  0.000000 0.992157
vt  0.000000 0.011765
vt  0.992188 1.000000
vt  0.796875 1.000000
vt  0.992188 0.364706
vt  0.992188 0.364706
vt  0.796875 1.000000
vt  0.796875 0.364706
vt  0.992188 0.956863
vt  0.804688 0.956863
vt  0.992188 0.286275
vt  0.992188 0.286275
vt  0.804688 0.956863
vt  0.804688 0.286275
vt  0.992188 0.639216
vt  0.804688 0.639216
vt  0.992188 0.000000
vt  0.992188 0.000000
vt  0.804688 0.639216
vt  0.804688 0.000000
# 144 texture coordinates

vn  0.000000 0.000000 -0.957748
vn  0.000000 0.000000 -0.957748
vn  0.000000 0.957514 0.000000
vn  0.000000 0.957514 0.000000
vn  0.000000 0.000000 -0.957748
vn  0.000000 0.000000 -0.957748
vn  0.000000 0.957514 0.000000
vn  0.000000 0.957514 0.000000
vn  0.000000 0.000000 -0.957748
vn  0.000000 0.000000 -0.957748
vn  0.000000 0.957514 0.000000
vn  0.000000 0.957514 0.000000
vn  0.000000 0.000000 -0.957748
vn  0.000000 0.000000 -0.957748
vn  0.000000 0.957514 0.000000
vn  0.000000 0.957514 0.000000
vn  0.000000 0.000000 -0.957748
vn  0.000000 0.000000 -0.957748
vn  0.000000 0.957514 0.000000
vn  0.000000 0.957514 0.000000
vn  0.000000 0.000000 -0.957748
vn  0.000000 0.000000 -0.957748
vn  0.000000 0.957514 0.000000
vn  0.000000 0.957514 0.000000
vn  0.000000 0.000000 -0.957748
vn  0.000000 0.000000 -0.957748
vn  0.000000 0.957514 0.000000
vn  0.000000 0.957514 0.000000
vn  0.000000 0.000000 -0.957748
vn  0.000000 0.000000 -0.957748
vn  0.000000 0.957514 0.000000
vn  0.000000 0.957514 0.000000
vn  0.000000 0.957514 0.000000
vn  0.000000 0.957514 0.000000
vn  0.000000 0.957514 0.000000
vn  0.000000 0.957514 0.000000
vn  0.000000 0.957514 0.000000
vn  0.000000 0.957514 0.000000
vn  0.000000 0.000000 -0.957748
vn  0.000000 0.000000 -0.957748
vn  0.000000 0.957514 0.000000
vn  0.000000 0.957514 0.000000
vn  0.000000 0.000000 -0.957748
vn  0.000000 0.000000 -0.957748
vn  0.000000 0.000000 -0.957748
vn  0.000000 0.000000 -0.957748
vn  0.000000 0.000000 -0.957748
vn  0.000000 0.000000 -0.957748
# 48 vertex normals

g Object_0
s 1
f 1/1/1 2/2/1 36/3/1
f 36/4/2 2/5/2 37/6/2
f 2/7/3 3/8/3 37/9/3
f 37/10/4 3/11/4 47/12/4
f 3/13/5 4/14/5 47/15/5
f 47/16/6 4/17/6 50/18/6
f 4/19/7 5/20/7 50/21/7
f 50/22/8 5/23/8 31/24/8
f 5/25/9 6/26/9 31/27/9
f 31/28/10 6/29/10 30/30/10
f 6/31/11 7/32/11 30/33/11
f 30/34/12 7/35/12 46/36/12
f 7/37/13 8/38/13 46/39/13
f 46/40/14 8/41/14 42/42/14
f 8/43/15 9/44/15 42/45/15
f 42/46/16 9/47/16 34/48/16
f 9/49/17 10/50/17 34/51/17
f 34/52/18 10/53/18 35/54/18
f 10/55/19 11/56/19 35/57/19
f 35/58/20 11/59/20 44/60/20
f 11/61/21 12/62/21 44/63/21
f 44/64/22 12/65/22 39/66/22
f 12/67/23 13/68/23 39/69/23
f 39/70/24 13/71/24 29/72/24
f 13/73/25 14/74/25 29/75/25
f 29/76/26 14/77/26 28/78/26
f 14/79/27 15/80/27 28/81/27
f 28/82/28 15/83/28 45/84/28
f 15/85/29 16/86/29 45/87/29
f 45/88/30 16/89/30 43/90/30
f 16/91/31 17/92/31 43/93/31
f 43/94/32 17/95/32 33/96/32
f 18/97/33 19/98/33 48/99/33
f 48/100/34 19/101/34 32/102/34
f 20/103/35 21/104/35 41/105/35
f 41/106/36 21/107/36 27/108/36
f 22/109/37 23/110/37 26/111/37
f 26/112/38 23/113/38 38/114/38
f 23/115/39 24/116/39 38/117/39
f 38/118/40 24/119/40 49/120/40
f 24/121/41 25/122/41 49/123/41
f 49/124/42 25/125/42 40/126/42
f 21/127/43 22/128/43 27/129/43
f 27/130/44 22/131/44 26/132/44
f 17/133/45 18/134/45 33/135/45
f 33/136/46 18/137/46 48/138/46
f 19/139/47 20/140/47 32/141/47
f 32/142/48 20/143/48 41/144/48
# 48 faces

g
