# RE2-Lageplan-Weltmodell karte00 md5=735097e1dbaf8d117f602ef5d26df670 (police B1 map, police station map)
v -56 -48 269
v 28 -96 269
v -28 -96 269
f 1 2 3
v -56 -48 269
v 56 -48 269
v 28 -96 269
f 4 5 6
v 26 -88 0
v 56 -48 -269
v 28 -96 -269
f 7 8 9
v 26 -88 0
v 51 -44 0
v 56 -48 -269
f 10 11 12
v -28 -96 -269
v 56 -48 -269
v -56 -48 -269
f 13 14 15
v -28 -96 -269
v 28 -96 -269
v 56 -48 -269
f 16 17 18
v -26 -88 0
v 28 -96 -269
v -28 -96 -269
f 19 20 21
v -26 -88 0
v 26 -88 0
v 28 -96 -269
f 22 23 24
v -51 -44 0
v -28 -96 -269
v -56 -48 -269
f 25 26 27
v -51 -44 0
v -26 -88 0
v -28 -96 -269
f 28 29 30
v 56 -48 269
v -28 1 269
v 28 1 269
f 31 32 33
v 56 -48 269
v -56 -48 269
v -28 1 269
f 34 35 36
v -51 -44 0
v -28 1 269
v -56 -48 269
f 37 38 39
v -51 -44 0
v -26 0 0
v -28 1 269
f 40 41 42
v 28 1 -269
v -56 -48 -269
v 56 -48 -269
f 43 44 45
v 28 1 -269
v -28 1 -269
v -56 -48 -269
f 46 47 48
v 51 -44 0
v 28 1 -269
v 56 -48 -269
f 49 50 51
v 51 -44 0
v 26 0 0
v 28 1 -269
f 52 53 54
v -26 0 0
v -56 -48 -269
v -28 1 -269
f 55 56 57
v -26 0 0
v -51 -44 0
v -56 -48 -269
f 58 59 60
v -26 -88 0
v -56 -48 269
v -28 -96 269
f 61 62 63
v -26 -88 0
v -51 -44 0
v -56 -48 269
f 64 65 66
v 26 -88 0
v -28 -96 269
v 28 -96 269
f 67 68 69
v 26 -88 0
v -26 -88 0
v -28 -96 269
f 70 71 72
v 51 -44 0
v 28 -96 269
v 56 -48 269
f 73 74 75
v 51 -44 0
v 26 -88 0
v 28 -96 269
f 76 77 78
v 26 0 0
v 56 -48 269
v 28 1 269
f 79 80 81
v 26 0 0
v 51 -44 0
v 56 -48 269
f 82 83 84
