# RE2-Welt-Item-Modell mesh020 md5=28e852d2089057a069c37417b16ad066 (M. Bullets)
v -164 0 54
v 164 -36 54
v -164 -36 54
f 1 2 3
v 164 -36 -54
v -164 0 -54
v -164 -36 -54
f 4 5 6
v -167 -36 54
v -167 -36 -59
v -167 0 54
v -167 0 -59
f 7 8 10 9
v 181 -18 54
v 164 0 54
v 181 -18 -54
v 164 0 -54
f 11 12 14 13
v 164 -36 -54
v 181 -18 -54
v -164 0 -54
v 164 0 -54
f 15 16 18 17
v 181 -18 -54
v 164 -36 -54
v 181 -18 54
v 164 -36 54
f 19 20 22 21
v 164 -36 54
v 164 -36 -54
v -164 -36 54
v -164 -36 -54
f 23 24 26 25
v -164 0 54
v 164 0 54
v 164 -36 54
v 181 -18 54
f 27 28 30 29
