# RE2-Welt-Item-Modell mesh047 md5=2e686bfb209a97b23f16372eb13dd5de (Eagle Stone, King Plug, Rook Plug)
v 12 -2 0
v -6 -2 10
v -6 -2 -10
f 1 2 3
v 0 -229 21
v 0 -270 21
v 0 -229 -21
v 0 -270 -21
f 4 5 7 6
v -17 -137 -12
v 6 -137 -20
v -17 -64 -12
v 6 -64 -20
f 8 9 11 10
v 21 -137 0
v 6 -137 20
v 21 -64 0
v 6 -64 20
f 12 13 15 14
v 6 -137 -20
v 21 -137 0
v 6 -64 -20
v 21 -64 0
f 16 17 19 18
v -17 -137 12
v -17 -137 -12
v -17 -64 12
v -17 -64 -12
f 20 21 23 22
v 6 -137 20
v -17 -137 12
v 6 -64 20
v -17 -64 12
f 24 25 27 26
v -6 -65 10
v -6 -65 -10
v -6 -2 10
v -6 -2 -10
f 28 29 31 30
v 12 -65 0
v -6 -65 10
v 12 -2 0
v -6 -2 10
f 32 33 35 34
v -6 -65 -10
v 12 -65 0
v -6 -2 -10
v 12 -2 0
f 36 37 39 38
v 29 -230 0
v 14 -230 25
v 18 -197 0
v 9 -197 16
f 40 41 43 42
v -29 -230 0
v -14 -230 -25
v -18 -197 0
v -9 -197 -16
f 44 45 47 46
v 29 -230 0
v 18 -197 0
v 14 -230 -25
v 9 -197 -16
f 48 49 51 50
v 14 -230 25
v -14 -230 25
v 9 -197 16
v -9 -197 16
f 52 53 55 54
v -29 -230 0
v -18 -197 0
v -14 -230 25
v -9 -197 16
f 56 57 59 58
v -14 -230 -25
v 14 -230 -25
v -9 -197 -16
v 9 -197 -16
f 60 61 63 62
v 14 -230 -25
v -14 -230 25
v 29 -230 0
v 14 -230 25
f 64 65 67 66
v -14 -230 25
v 14 -230 -25
v -29 -230 0
v -14 -230 -25
f 68 69 71 70
v 14 -137 -25
v -14 -137 -25
v 9 -197 -16
v -9 -197 -16
f 72 73 75 74
v 29 -137 0
v 14 -137 -25
v 18 -197 0
v 9 -197 -16
f 76 77 79 78
v 29 -137 0
v 18 -197 0
v 14 -137 25
v 9 -197 16
f 80 81 83 82
v -14 -137 25
v 14 -137 25
v -9 -197 16
v 9 -197 16
f 84 85 87 86
v -29 -137 0
v -14 -137 25
v -18 -197 0
v -9 -197 16
f 88 89 91 90
v -29 -137 0
v -18 -197 0
v -14 -137 -25
v -9 -197 -16
f 92 93 95 94
v 0 -270 -21
v 0 -270 21
v 0 -229 -21
v 0 -229 21
f 96 97 99 98
