# RE2-Welt-Item-Modell mesh034 md5=a67a08389d6b6d861af2eeed9c03ce0a (Antivirus bomb)
v -90 -144 188
v -180 -72 225
v -90 -144 225
f 1 2 3
v 90 -144 -192
v 180 -72 -225
v 90 -144 -225
f 4 5 6
v 180 -72 225
v 90 -144 188
v 90 -144 225
f 7 8 9
v -180 -72 -225
v -90 -144 -192
v -90 -144 -225
f 10 11 12
v 180 0 225
v -180 0 225
v 180 0 -225
v -180 0 -225
f 13 14 16 15
v -180 0 225
v -180 -72 225
v -180 0 -225
v -180 -72 -225
f 17 18 20 19
v -90 -198 188
v -90 -198 225
v 90 -198 188
v 90 -198 225
f 21 22 24 23
v 180 -72 225
v 180 0 225
v 180 -72 -225
v 180 0 -225
f 25 26 28 27
v 180 -72 225
v 90 -144 225
v -180 -72 225
v -90 -144 225
f 29 30 32 31
v -180 -72 -225
v -90 -144 -225
v 180 -72 -225
v 90 -144 -225
f 33 34 36 35
v 90 -198 -192
v 90 -198 -225
v -90 -198 -192
v -90 -198 -225
f 37 38 40 39
v 90 -144 188
v 90 -144 -192
v -90 -144 188
v -90 -144 -192
f 41 42 44 43
v 90 -198 225
v -90 -198 225
v 90 -144 225
v -90 -144 225
f 45 46 48 47
v -90 -198 225
v -90 -198 188
v -90 -144 225
v -90 -144 188
f 49 50 52 51
v 90 -198 188
v 90 -198 225
v 90 -144 188
v 90 -144 225
f 53 54 56 55
v -90 -198 188
v 90 -198 188
v -90 -144 188
v 90 -144 188
f 57 58 60 59
v -90 -198 -192
v -90 -198 -225
v -90 -144 -192
v -90 -144 -225
f 61 62 64 63
v -90 -198 -225
v 90 -198 -225
v -90 -144 -225
v 90 -144 -225
f 65 66 68 67
v 90 -198 -225
v 90 -198 -192
v 90 -144 -225
v 90 -144 -192
f 69 70 72 71
v 90 -198 -192
v -90 -198 -192
v 90 -144 -192
v -90 -144 -192
f 73 74 76 75
v 180 -72 225
v 180 -72 -225
v 90 -144 188
v 90 -144 -192
f 77 78 80 79
v -180 -72 225
v -180 0 225
v 180 -72 225
v 180 0 225
f 81 82 84 83
v -180 -72 -225
v -180 -72 225
v -90 -144 -192
v -90 -144 188
f 85 86 88 87
v 180 -72 -225
v 180 0 -225
v -180 -72 -225
v -180 0 -225
f 89 90 92 91
