# RE2-Welt-Item-Modell mesh047 md5=7b0fac245ae3d1ccf598deeefd384954 (Crank)
v 27 2 -312
v 177 2 -312
v 177 -148 -303
f 1 2 3
v 27 2 -312
v 177 -148 -303
v 27 -148 -303
f 4 5 6
v 79 -85 43
v 133 -113 -439
v 79 -113 -439
f 7 8 9
v 79 -57 -442
v 133 -113 -439
v 133 -57 -442
f 10 11 12
v 79 -57 -442
v 79 -113 -439
v 133 -113 -439
f 13 14 15
v -78 -82 96
v -78 -85 43
v -134 -82 96
f 16 17 18
v -141 -67 471
v -70 4 467
v -70 -67 471
f 19 20 21
v -141 -67 471
v -141 4 467
v -70 4 467
f 22 23 24
v -78 -85 43
v -134 -26 93
v -134 -82 96
f 25 26 27
v -78 -85 43
v -78 -29 39
v -134 -26 93
f 28 29 30
v 133 -29 40
v 133 -113 -439
v 133 -85 43
f 31 32 33
v 133 -29 40
v 133 -57 -442
v 133 -113 -439
f 34 35 36
v -78 -71 283
v -141 -67 471
v -70 -67 471
f 37 38 39
v -78 -71 283
v -133 -71 283
v -141 -67 471
f 40 41 42
v -78 -85 43
v -78 -82 96
v 79 -85 43
f 43 44 45
v 79 -57 -442
v 79 -85 43
v 79 -113 -439
f 46 47 48
v 79 -57 -442
v 79 -29 39
v 79 -85 43
f 49 50 51
v 79 -29 39
v -78 -85 43
v 79 -85 43
f 52 53 54
v 79 -29 39
v -78 -29 39
v -78 -85 43
f 55 56 57
v -133 -71 283
v -141 4 467
v -141 -67 471
f 58 59 60
v -133 -71 283
v -133 -15 280
v -141 4 467
f 61 62 63
v 79 -85 43
v 133 -85 43
v 133 -113 -439
f 64 65 66
v -78 -15 280
v -70 -67 471
v -70 4 467
f 67 68 69
v -78 -15 280
v -78 -71 283
v -70 -67 471
f 70 71 72
v 79 -85 43
v 78 -82 96
v 133 -85 43
f 73 74 75
v 78 -26 93
v -78 -82 96
v -78 -26 93
f 76 77 78
v 78 -26 93
v 78 -82 96
v -78 -82 96
f 79 80 81
v 78 -82 96
v 79 -85 43
v -78 -82 96
f 82 83 84
v -133 -71 283
v -78 -82 96
v -134 -82 96
f 85 86 87
v -133 -71 283
v -78 -71 283
v -78 -82 96
f 88 89 90
v -78 -71 283
v -78 -26 93
v -78 -82 96
f 91 92 93
v -78 -71 283
v -78 -15 280
v -78 -26 93
f 94 95 96
v -133 -15 280
v -134 -82 96
v -134 -26 93
f 97 98 99
v -133 -15 280
v -133 -71 283
v -134 -82 96
f 100 101 102
v 78 -82 96
v 133 -29 40
v 133 -85 43
f 103 104 105
v 78 -82 96
v 78 -26 93
v 133 -29 40
f 106 107 108
v 27 2 -312
v 177 -148 -303
v 177 2 -312
f 109 110 111
v 27 2 -312
v 27 -148 -303
v 177 -148 -303
f 112 113 114
