# RE2-Welt-Item-Modell mesh012 md5=11f139fa0703e53022cd87ded1b50b1f (Acid Rounds, Bow Gun Bolts, Flame Rounds, Shotgun Shells)
v -270 -342 103
v -270 -342 -103
v -250 0 103
v -250 0 -103
f 1 2 4 3
v -9 -342 -103
v 270 -342 -103
v -10 0 -103
v 250 0 -103
f 5 6 8 7
v 270 -342 -103
v 270 -342 103
v 250 0 -103
v 250 0 103
f 9 10 12 11
v -3 -342 103
v -270 -342 103
v -10 0 103
v -250 0 103
f 13 14 16 15
v -3 -342 103
v 270 -342 103
v -9 -342 -103
v 270 -342 -103
f 17 18 20 19
v -9 -342 -103
v -270 -342 -103
v -3 -342 103
v -270 -342 103
f 21 22 24 23
v -10 0 103
v 250 0 103
v -3 -342 103
v 270 -342 103
f 25 26 28 27
v -10 0 -103
v -250 0 -103
v -9 -342 -103
v -270 -342 -103
f 29 30 32 31
