# RE2-Welt-Item-Modell mesh022 md5=15f1e94f99fe632786c1bfd4de60c884 (G. Rounds)
v -17 -239 69
v -17 -322 -151
v -17 -239 -151
f 1 2 3
v -17 -239 69
v -17 -322 69
v -17 -322 -151
f 4 5 6
v -17 -239 -151
v 17 -322 -151
v 17 -239 -151
f 7 8 9
v -17 -239 -151
v -17 -322 -151
v 17 -322 -151
f 10 11 12
v 17 -239 -151
v 17 -322 69
v 17 -239 69
f 13 14 15
v 17 -239 -151
v 17 -322 -151
v 17 -322 69
f 16 17 18
v 17 -239 69
v -17 -322 69
v -17 -239 69
f 19 20 21
v 17 -239 69
v 17 -322 69
v -17 -322 69
f 22 23 24
v -17 -322 69
v 17 -322 -151
v -17 -322 -151
f 25 26 27
v -17 -322 69
v 17 -322 69
v 17 -322 -151
f 28 29 30
v -141 -55 93
v -38 -238 -173
v -141 -55 -173
f 31 32 33
v -141 -55 93
v -38 -238 93
v -38 -238 -173
f 34 35 36
v -38 -238 -173
v -109 0 -173
v -141 -55 -173
f 37 38 39
v 38 -238 93
v 141 -55 -173
v 38 -238 -173
f 40 41 42
v 38 -238 93
v 141 -55 93
v 141 -55 -173
f 43 44 45
v 38 -238 173
v 109 0 173
v 141 -55 173
f 46 47 48
v -109 0 93
v -141 -55 -173
v -109 0 -173
f 49 50 51
v -109 0 93
v -141 -55 93
v -141 -55 -173
f 52 53 54
v -38 -238 93
v 38 -238 -173
v -38 -238 -173
f 55 56 57
v -38 -238 93
v 38 -238 93
v 38 -238 -173
f 58 59 60
v 141 -55 93
v 109 0 -173
v 141 -55 -173
f 61 62 63
v 141 -55 93
v 109 0 93
v 109 0 -173
f 64 65 66
v 109 0 -173
v 38 -238 -173
v 141 -55 -173
f 67 68 69
v -109 0 -173
v 38 -238 -173
v 109 0 -173
f 70 71 72
v -109 0 -173
v -38 -238 -173
v 38 -238 -173
f 73 74 75
v -109 0 173
v -38 -238 173
v -141 -55 173
f 76 77 78
v 109 0 173
v -38 -238 173
v -109 0 173
f 79 80 81
v 109 0 173
v 38 -238 173
v -38 -238 173
f 82 83 84
v 38 -238 93
v -38 -238 173
v 38 -238 173
f 85 86 87
v 38 -238 93
v -38 -238 93
v -38 -238 173
f 88 89 90
v 141 -55 93
v 38 -238 173
v 141 -55 173
f 91 92 93
v 141 -55 93
v 38 -238 93
v 38 -238 173
f 94 95 96
v 109 0 93
v 141 -55 173
v 109 0 173
f 97 98 99
v 109 0 93
v 141 -55 93
v 141 -55 173
f 100 101 102
v -141 -55 93
v -109 0 173
v -141 -55 173
f 103 104 105
v -141 -55 93
v -109 0 93
v -109 0 173
f 106 107 108
v -38 -238 93
v -141 -55 173
v -38 -238 173
f 109 110 111
v -38 -238 93
v -141 -55 93
v -141 -55 173
f 112 113 114
