# RE2-Welt-Item-Modell mesh050 md5=94f2465ed7b2473eb97b4cc03f9115b1 (Unicorn Medal)
v -42 -27 -128
v 109 -27 -79
v 42 -27 -128
f 1 2 3
v -42 -27 -128
v -109 -27 -79
v 109 -27 -79
f 4 5 6
v -109 -27 -79
v 135 -27 0
v 109 -27 -79
f 7 8 9
v -109 -27 -79
v 109 -27 79
v 135 -27 0
f 10 11 12
v -109 -27 -79
v -135 -27 0
v 109 -27 79
f 13 14 15
v -135 -27 0
v 42 -27 128
v 109 -27 79
f 16 17 18
v -135 -27 0
v -109 -27 79
v 42 -27 128
f 19 20 21
v -109 -27 79
v -42 -27 128
v 42 -27 128
f 22 23 24
v -109 -27 -79
v -42 -27 -128
v -109 27 -79
v -42 27 -128
f 25 26 28 27
v 135 -27 0
v 109 -27 79
v 135 27 0
v 109 27 79
f 29 30 32 31
v -135 -27 0
v -109 -27 -79
v -135 27 0
v -109 27 -79
f 33 34 36 35
v 109 -27 -79
v 135 -27 0
v 109 27 -79
v 135 27 0
f 37 38 40 39
v 109 -27 79
v 42 -27 128
v 109 27 79
v 42 27 128
f 41 42 44 43
v -42 -27 -128
v 42 -27 -128
v -42 27 -128
v 42 27 -128
f 45 46 48 47
v -109 -27 79
v -135 -27 0
v -109 27 79
v -135 27 0
f 49 50 52 51
v 42 -27 128
v -42 -27 128
v 42 27 128
v -42 27 128
f 53 54 56 55
v -42 -27 128
v -109 -27 79
v -42 27 128
v -109 27 79
f 57 58 60 59
v 42 -27 -128
v 109 -27 -79
v 42 27 -128
v 109 27 -79
f 61 62 64 63
