# RE2-Welt-Item-Modell mesh017 md5=907ac125995e0ee9cb790b63d5b658e1 (Shotgun Shells)
v -270 -342 103
v -270 -342 -103
v -250 0 103
v -250 0 -103
f 1 2 4 3
v -9 -342 -103
v 270 -342 -103
v -10 0 -103
v 250 0 -103
f 5 6 8 7
v 270 -342 -103
v 270 -342 103
v 250 0 -103
v 250 0 103
f 9 10 12 11
v -3 -342 103
v -270 -342 103
v -10 0 103
v -250 0 103
f 13 14 16 15
v -3 -342 103
v 270 -342 103
v -9 -342 -103
v 270 -342 -103
f 17 18 20 19
v -9 -342 -103
v -270 -342 -103
v -3 -342 103
v -270 -342 103
f 21 22 24 23
v -10 0 103
v 250 0 103
v -3 -342 103
v 270 -342 103
f 25 26 28 27
v -10 0 -103
v -250 0 -103
v -9 -342 -103
v -270 -342 -103
f 29 30 32 31
