# RE2-Welt-Item-Modell mesh026 md5=46639887fa41ff675545fe9e27699a91 (Ink Ribbon)
v 35 -18 -35
v 0 -18 0
v 50 -18 0
f 1 2 3
v 50 0 0
v 35 -18 35
v 35 0 35
f 4 5 6
v 50 0 0
v 50 -18 0
v 35 -18 35
f 7 8 9
v 50 -18 0
v 0 -18 0
v 35 -18 35
f 10 11 12
v 35 0 -35
v 50 -18 0
v 50 0 0
f 13 14 15
v 35 0 -35
v 35 -18 -35
v 50 -18 0
f 16 17 18
v 35 0 35
v 0 -18 50
v 0 0 50
f 19 20 21
v 35 0 35
v 35 -18 35
v 0 -18 50
f 22 23 24
v 35 -18 35
v 0 -18 0
v 0 -18 50
f 25 26 27
v 0 -18 -50
v 0 -18 0
v 35 -18 -35
f 28 29 30
v 0 0 50
v -35 -18 35
v -35 0 35
f 31 32 33
v 0 0 50
v 0 -18 50
v -35 -18 35
f 34 35 36
v 0 -18 50
v 0 -18 0
v -35 -18 35
f 37 38 39
v 0 0 -50
v 35 -18 -35
v 35 0 -35
f 40 41 42
v 0 0 -50
v 0 -18 -50
v 35 -18 -35
f 43 44 45
v -35 0 35
v -50 -18 0
v -50 0 0
f 46 47 48
v -35 0 35
v -35 -18 35
v -50 -18 0
f 49 50 51
v -35 -18 35
v 0 -18 0
v -50 -18 0
f 52 53 54
v -35 -18 -35
v 0 -18 0
v 0 -18 -50
f 55 56 57
v -50 0 0
v -35 -18 -35
v -35 0 -35
f 58 59 60
v -50 0 0
v -50 -18 0
v -35 -18 -35
f 61 62 63
v -50 -18 0
v 0 -18 0
v -35 -18 -35
f 64 65 66
v -35 0 -35
v 0 -18 -50
v 0 0 -50
f 67 68 69
v -35 0 -35
v -35 -18 -35
v 0 -18 -50
f 70 71 72
