# RE2-Welt-Item-Modell mesh042 md5=d098068f8fb2a1e6e513e4b5507cc6a2 (Red Jewel)
v -47 -14 41
v -47 -14 -41
v -47 14 41
v -47 14 -41
f 1 2 4 3
v 47 -14 -41
v 47 14 -41
v 0 -14 -68
v 0 14 -68
f 5 6 8 7
v -47 14 -41
v -47 -14 -41
v 0 14 -68
v 0 -14 -68
f 9 10 12 11
v 47 -14 -41
v 47 -14 41
v 47 14 -41
v 47 14 41
f 13 14 16 15
v 47 14 41
v 47 -14 41
v 0 14 68
v 0 -14 68
f 17 18 20 19
v -47 -14 41
v -47 14 41
v 0 -14 68
v 0 14 68
f 21 22 24 23
v -27 34 -27
v 0 34 -41
v 27 34 27
v 27 34 -27
f 25 26 28 27
v -27 -34 -27
v -27 -34 27
v 27 -34 27
v 0 -34 41
f 29 30 32 31
v 0 14 68
v -47 14 41
v 0 34 41
v -27 34 27
f 33 34 36 35
v 47 14 41
v 0 14 68
v 27 34 27
v 0 34 41
f 37 38 40 39
v 47 14 -41
v 47 14 41
v 27 34 -27
v 27 34 27
f 41 42 44 43
v -47 14 -41
v 0 14 -68
v -27 34 -27
v 0 34 -41
f 45 46 48 47
v 0 14 -68
v 47 14 -41
v 0 34 -41
v 27 34 -27
f 49 50 52 51
v -47 14 41
v -47 14 -41
v -27 34 27
v -27 34 -27
f 53 54 56 55
v -47 -14 41
v 0 -14 68
v -27 -34 27
v 0 -34 41
f 57 58 60 59
v 0 -14 68
v 47 -14 41
v 0 -34 41
v 27 -34 27
f 61 62 64 63
v 47 -14 41
v 47 -14 -41
v 27 -34 27
v 27 -34 -27
f 65 66 68 67
v 0 -14 -68
v -47 -14 -41
v 0 -34 -41
v -27 -34 -27
f 69 70 72 71
v 47 -14 -41
v 0 -14 -68
v 27 -34 -27
v 0 -34 -41
f 73 74 76 75
v -47 -14 -41
v -47 -14 41
v -27 -34 -27
v -27 -34 27
f 77 78 80 79
v 27 -34 27
v 27 -34 -27
v -27 -34 -27
v 0 -34 -41
f 81 82 84 83
v 27 34 27
v 0 34 41
v -27 34 -27
v -27 34 27
f 85 86 88 87
v -33 -41 -33
v 0 -41 -49
v 33 -41 33
v 33 -41 -33
f 89 90 92 91
v -57 -16 49
v -57 -16 -49
v -33 -41 33
v -33 -41 -33
f 93 94 96 95
v 0 -16 -82
v 57 -16 -49
v 0 -41 -49
v 33 -41 -33
f 97 98 100 99
v 0 -16 -82
v 0 -41 -49
v -57 -16 -49
v -33 -41 -33
f 101 102 104 103
v 57 -16 -49
v 57 -16 49
v 33 -41 -33
v 33 -41 33
f 105 106 108 107
v 0 -16 82
v 0 -41 49
v 57 -16 49
v 33 -41 33
f 109 110 112 111
v 0 -16 82
v -57 -16 49
v 0 -41 49
v -33 -41 33
f 113 114 116 115
v 33 -41 33
v 0 -41 49
v -33 -41 -33
v -33 -41 33
f 117 118 120 119
v -63 -18 54
v -63 -18 -54
v -63 18 54
v -63 18 -54
f 121 122 124 123
v 63 -18 -54
v 63 18 -54
v 0 -18 -90
v 0 18 -90
f 125 126 128 127
v -63 18 -54
v -63 -18 -54
v 0 18 -90
v 0 -18 -90
f 129 130 132 131
v 63 -18 -54
v 63 -18 54
v 63 18 -54
v 63 18 54
f 133 134 136 135
v 63 18 54
v 63 -18 54
v 0 18 90
v 0 -18 90
f 137 138 140 139
v -63 -18 54
v -63 18 54
v 0 -18 90
v 0 18 90
f 141 142 144 143
v -36 45 -36
v 0 45 -54
v 36 45 36
v 36 45 -36
f 145 146 148 147
v -36 -45 -36
v -36 -45 36
v 36 -45 36
v 0 -45 54
f 149 150 152 151
v 0 18 90
v -63 18 54
v 0 45 54
v -36 45 36
f 153 154 156 155
v 63 18 54
v 0 18 90
v 36 45 36
v 0 45 54
f 157 158 160 159
v 63 18 -54
v 63 18 54
v 36 45 -36
v 36 45 36
f 161 162 164 163
v -63 18 -54
v 0 18 -90
v -36 45 -36
v 0 45 -54
f 165 166 168 167
v 0 18 -90
v 63 18 -54
v 0 45 -54
v 36 45 -36
f 169 170 172 171
v -63 18 54
v -63 18 -54
v -36 45 36
v -36 45 -36
f 173 174 176 175
v -63 -18 54
v 0 -18 90
v -36 -45 36
v 0 -45 54
f 177 178 180 179
v 0 -18 90
v 63 -18 54
v 0 -45 54
v 36 -45 36
f 181 182 184 183
v 63 -18 54
v 63 -18 -54
v 36 -45 36
v 36 -45 -36
f 185 186 188 187
v 0 -18 -90
v -63 -18 -54
v 0 -45 -54
v -36 -45 -36
f 189 190 192 191
v 63 -18 -54
v 0 -18 -90
v 36 -45 -36
v 0 -45 -54
f 193 194 196 195
v -63 -18 -54
v -63 -18 54
v -36 -45 -36
v -36 -45 36
f 197 198 200 199
v 36 -45 36
v 36 -45 -36
v -36 -45 -36
v 0 -45 -54
f 201 202 204 203
v 36 45 36
v 0 45 54
v -36 45 -36
v -36 45 36
f 205 206 208 207
v -52 -15 44
v -52 -15 -44
v -52 15 44
v -52 15 -44
f 209 210 212 211
v 52 -15 -44
v 52 15 -44
v 0 -15 -74
v 0 15 -74
f 213 214 216 215
v -52 15 -44
v -52 -15 -44
v 0 15 -74
v 0 -15 -74
f 217 218 220 219
v 52 -15 -44
v 52 -15 44
v 52 15 -44
v 52 15 44
f 221 222 224 223
v 52 15 44
v 52 -15 44
v 0 15 74
v 0 -15 74
f 225 226 228 227
v -52 -15 44
v -52 15 44
v 0 -15 74
v 0 15 74
f 229 230 232 231
v -30 37 -30
v 0 37 -44
v 30 37 30
v 30 37 -30
f 233 234 236 235
v -30 -37 -30
v -30 -37 30
v 30 -37 30
v 0 -37 44
f 237 238 240 239
v 0 15 74
v -52 15 44
v 0 37 44
v -30 37 30
f 241 242 244 243
v 52 15 44
v 0 15 74
v 30 37 30
v 0 37 44
f 245 246 248 247
v 52 15 -44
v 52 15 44
v 30 37 -30
v 30 37 30
f 249 250 252 251
v -52 15 -44
v 0 15 -74
v -30 37 -30
v 0 37 -44
f 253 254 256 255
v 0 15 -74
v 52 15 -44
v 0 37 -44
v 30 37 -30
f 257 258 260 259
v -52 15 44
v -52 15 -44
v -30 37 30
v -30 37 -30
f 261 262 264 263
v -52 -15 44
v 0 -15 74
v -30 -37 30
v 0 -37 44
f 265 266 268 267
v 0 -15 74
v 52 -15 44
v 0 -37 44
v 30 -37 30
f 269 270 272 271
v 52 -15 44
v 52 -15 -44
v 30 -37 30
v 30 -37 -30
f 273 274 276 275
v 0 -15 -74
v -52 -15 -44
v 0 -37 -44
v -30 -37 -30
f 277 278 280 279
v 52 -15 -44
v 0 -15 -74
v 30 -37 -30
v 0 -37 -44
f 281 282 284 283
v -52 -15 -44
v -52 -15 44
v -30 -37 -30
v -30 -37 30
f 285 286 288 287
v 30 -37 30
v 30 -37 -30
v -30 -37 -30
v 0 -37 -44
f 289 290 292 291
v 30 37 30
v 0 37 44
v -30 37 -30
v -30 37 30
f 293 294 296 295
v -33 41 -33
v -33 41 33
v 33 41 33
v 0 41 49
f 297 298 300 299
v -57 16 -49
v -57 16 49
v -33 41 -33
v -33 41 33
f 301 302 304 303
v 0 16 -82
v 0 41 -49
v 57 16 -49
v 33 41 -33
f 305 306 308 307
v 0 16 -82
v -57 16 -49
v 0 41 -49
v -33 41 -33
f 309 310 312 311
v 57 16 49
v 57 16 -49
v 33 41 33
v 33 41 -33
f 313 314 316 315
v 0 16 82
v 57 16 49
v 0 41 49
v 33 41 33
f 317 318 320 319
v 33 41 33
v 33 41 -33
v -33 41 -33
v 0 41 -49
f 321 322 324 323
v 0 16 82
v 0 41 49
v -57 16 49
v -33 41 33
f 325 326 328 327
