# RE2-Welt-Item-Modell mesh061 md5=b235823481d0714baf8fb97fea417de1 (G-virus)
v 42 -119 0
v 0 -119 42
v 30 -119 30
f 1 2 3
v 0 -119 -42
v -30 -119 -30
v -42 -119 0
f 4 5 6
v 42 93 0
v 0 93 42
v 30 93 30
f 7 8 9
v 0 93 -42
v -30 93 -30
v -42 93 0
f 10 11 12
v 22 -91 28
v 8 -91 34
v 22 91 28
v 8 91 34
f 13 14 16 15
v 7 -91 -35
v 21 -91 -28
v 7 91 -35
v 21 91 -28
f 17 18 20 19
v -34 -91 8
v -34 -91 -7
v -34 91 8
v -34 91 -7
f 21 22 24 23
v 42 -119 0
v 42 -91 0
v 30 -119 -30
v 30 -91 -30
f 25 26 28 27
v 30 -119 30
v 30 -91 30
v 42 -119 0
v 42 -91 0
f 29 30 32 31
v 0 -119 -42
v 0 -91 -42
v -30 -119 -30
v -30 -91 -30
f 33 34 36 35
v -30 -119 -30
v -30 -91 -30
v -42 -119 0
v -42 -91 0
f 37 38 40 39
v 0 -119 42
v 0 -91 42
v 30 -119 30
v 30 -91 30
f 41 42 44 43
v 30 -119 -30
v 30 -91 -30
v 0 -119 -42
v 0 -91 -42
f 45 46 48 47
v -42 -119 0
v -42 -91 0
v -30 -119 30
v -30 -91 30
f 49 50 52 51
v -30 -119 30
v -30 -91 30
v 0 -119 42
v 0 -91 42
f 53 54 56 55
v 0 -91 -42
v 30 -91 -30
v 30 -91 30
v 42 -91 0
f 57 58 60 59
v 30 -91 30
v 0 -91 42
v 0 -91 -42
v -30 -91 -30
f 61 62 64 63
v 0 -91 42
v -30 -91 30
v -30 -91 -30
v -42 -91 0
f 65 66 68 67
v -30 -119 30
v 0 -119 42
v 30 -119 -30
v 42 -119 0
f 69 70 72 71
v -30 -119 30
v 30 -119 -30
v -42 -119 0
v 0 -119 -42
f 73 74 76 75
v 42 93 0
v 42 121 0
v 30 93 -30
v 30 121 -30
f 77 78 80 79
v 30 93 30
v 30 121 30
v 42 93 0
v 42 121 0
f 81 82 84 83
v 0 93 -42
v 0 121 -42
v -30 93 -30
v -30 121 -30
f 85 86 88 87
v -30 93 -30
v -30 121 -30
v -42 93 0
v -42 121 0
f 89 90 92 91
v 0 93 42
v 0 121 42
v 30 93 30
v 30 121 30
f 93 94 96 95
v 30 93 -30
v 30 121 -30
v 0 93 -42
v 0 121 -42
f 97 98 100 99
v -42 93 0
v -42 121 0
v -30 93 30
v -30 121 30
f 101 102 104 103
v -30 93 30
v -30 121 30
v 0 93 42
v 0 121 42
f 105 106 108 107
v 0 121 -42
v 30 121 -30
v 30 121 30
v 42 121 0
f 109 110 112 111
v 30 121 30
v 0 121 42
v 0 121 -42
v -30 121 -30
f 113 114 116 115
v 0 121 42
v -30 121 30
v -30 121 -30
v -42 121 0
f 117 118 120 119
v -30 93 30
v 0 93 42
v 30 93 -30
v 42 93 0
f 121 122 124 123
v -30 93 30
v 30 93 -30
v -42 93 0
v 0 93 -42
f 125 126 128 127
v 17 -96 0
v 17 96 0
v 12 -96 -12
v 12 96 -12
f 129 130 132 131
v 12 -96 12
v 12 96 12
v 17 -96 0
v 17 96 0
f 133 134 136 135
v 0 -96 -17
v 0 96 -17
v -12 -96 -12
v -12 96 -12
f 137 138 140 139
v -12 -96 -12
v -12 96 -12
v -17 -96 0
v -17 96 0
f 141 142 144 143
v 0 -96 17
v 0 96 17
v 12 -96 12
v 12 96 12
f 145 146 148 147
v 12 -96 -12
v 12 96 -12
v 0 -96 -17
v 0 96 -17
f 149 150 152 151
v -17 -96 0
v -17 96 0
v -12 -96 12
v -12 96 12
f 153 154 156 155
v -12 -96 12
v -12 96 12
v 0 -96 17
v 0 96 17
f 157 158 160 159
v 8 91 34
v 8 -91 34
v 22 91 28
v 22 -91 28
f 161 162 164 163
v 21 91 -28
v 21 -91 -28
v 7 91 -35
v 7 -91 -35
f 165 166 168 167
v -34 91 -7
v -34 -91 -7
v -34 91 8
v -34 -91 8
f 169 170 172 171
