# RE2-Welt-Item-Modell mesh007 md5=931425083846facb5956975cfc240cae (H. Gun Bullets)
v -72 -72 -72
v -72 -72 -135
v -72 0 -72
v -72 0 -135
f 1 2 4 3
v -72 -72 -135
v 72 -72 -135
v -72 0 -135
v 72 0 -135
f 5 6 8 7
v 72 -72 -72
v 72 -72 162
v 72 0 -72
v 72 0 162
f 9 10 12 11
v 72 -72 162
v -72 -72 162
v 72 0 162
v -72 0 162
f 13 14 16 15
v -72 0 -72
v -72 0 -135
v 72 0 -72
v 72 0 -135
f 17 18 20 19
v 72 -72 -72
v 72 -72 -135
v -72 -72 -72
v -72 -72 -135
f 21 22 24 23
v -72 0 -72
v -72 0 162
v -72 -72 -72
v -72 -72 162
f 25 26 28 27
v -72 -72 -72
v -72 -72 162
v 72 -72 -72
v 72 -72 162
f 29 30 32 31
v 72 0 -72
v 72 0 -135
v 72 -72 -72
v 72 -72 -135
f 33 34 36 35
v 72 0 -72
v 72 0 162
v -72 0 -72
v -72 0 162
f 37 38 40 39
