# RE2-Welt-Item-Modell mesh000 md5=790e56fc279873fbe20905692837ce40 (Knife)
v 60 122 51
v 10 138 69
v 4 122 -22
f 1 2 3
v -154 128 243
v -200 125 263
v -150 176 145
f 4 5 6
v -150 -174 145
v -201 -125 263
v -154 -126 244
f 7 8 9
v 114 -35 252
v 72 -116 156
v 88 -54 278
f 10 11 12
v 72 -116 156
v -127 -182 81
v -94 -157 202
f 13 14 15
v 114 34 252
v 72 118 156
v 89 54 132
f 16 17 18
v -375 119 163
v -268 183 102
v -310 119 242
f 19 20 21
v -381 109 14
v -308 -1 -122
v -289 165 -21
f 22 23 24
v -308 -1 -122
v -380 -112 13
v -289 -170 -21
f 25 26 27
v -154 16 299
v -43 0 366
v -154 -16 299
f 28 29 30
v -26 -38 316
v -154 -16 299
v -43 0 366
f 31 32 33
v -154 16 299
v -26 38 316
v -43 0 366
f 34 35 36
v 3 -121 -22
v 60 -120 51
v 164 -139 -31
f 37 38 39
v -154 16 299
v -90 124 276
v -26 38 316
f 40 41 42
v -89 -124 276
v -154 -16 299
v -26 -38 316
f 43 44 45
v -90 124 276
v 88 54 278
v -26 38 316
f 46 47 48
v 88 -54 278
v -89 -124 276
v -26 -38 316
f 49 50 51
v -268 -181 102
v -376 -114 161
v -310 -119 242
f 52 53 54
v 164 144 -30
v 60 122 51
v 4 122 -22
f 55 56 57
v 60 122 51
v 261 84 127
v 89 54 132
f 58 59 60
v 89 -56 132
v 10 -137 69
v 72 -116 156
f 61 62 63
v 60 -120 51
v 262 -76 128
v 164 -139 -31
f 64 65 66
v -43 0 366
v -26 38 316
v -26 -38 316
f 67 68 69
v 72 -116 156
v 114 -35 252
v 89 -56 132
f 70 71 72
v 72 118 156
v 114 34 252
v 88 54 278
f 73 74 75
v -176 0 318
v -154 16 299
v -154 -16 299
f 76 77 78
v 262 -76 128
v 278 2 0
v 164 -139 -31
f 79 80 81
v 186 -1 -127
v 278 2 0
v 164 144 -30
f 82 83 84
v 278 2 0
v 261 84 127
v 164 144 -30
f 85 86 87
v 261 84 127
v 278 2 0
v 262 -76 128
f 88 89 90
v 278 2 0
v 186 -1 -127
v 164 -139 -31
f 91 92 93
v 262 -76 128
v 60 -120 51
v 89 -56 132
f 94 95 96
v 261 84 127
v 60 122 51
v 164 144 -30
f 97 98 99
v 10 -137 69
v 60 -120 51
v 3 -121 -22
f 100 101 102
v -126 184 81
v 72 118 156
v -94 160 202
f 103 104 105
v 89 54 132
v 10 138 69
v 60 122 51
f 106 107 108
v -150 -174 145
v -94 -157 202
v -127 -182 81
f 109 110 111
v -94 160 202
v -150 176 145
v -126 184 81
f 112 113 114
v 10 -137 69
v 89 -56 132
v 60 -120 51
f 115 116 117
v 10 138 69
v 89 54 132
v 72 118 156
f 118 119 120
v -127 -182 81
v -268 -181 102
v -150 -174 145
f 121 122 123
v -268 183 102
v -126 184 81
v -150 176 145
f 124 125 126
v -380 -112 13
v -308 -1 -122
v -411 -1 2
f 127 128 129
v -308 -1 -122
v -381 109 14
v -411 -1 2
f 130 131 132
v -127 -182 81
v 72 -116 156
v 10 -137 69
f 133 134 135
v 72 118 156
v -126 184 81
v 10 138 69
f 136 137 138
v -154 128 243
v -90 124 276
v -154 16 299
f 139 140 141
v -89 -124 276
v -154 -126 244
v -154 -16 299
f 142 143 144
v -151 -169 -40
v 3 -121 -22
v -163 1 -148
v -16 4 -105
f 145 146 148 147
v -163 1 -148
v -150 169 -40
v -308 -1 -122
v -289 165 -21
f 149 150 152 151
v -127 -182 81
v -151 -169 -40
v -268 -181 102
v -289 -170 -21
f 153 154 156 155
v -268 183 102
v -289 165 -21
v -126 184 81
v -150 169 -40
f 157 158 160 159
v -405 1 178
v -310 0 290
v -376 -114 161
v -310 -119 242
f 161 162 164 163
v -268 -181 102
v -310 -119 242
v -150 -174 145
v -201 -125 263
f 165 166 168 167
v 72 -116 156
v -94 -157 202
v 88 -54 278
v -89 -124 276
f 169 170 172 171
v -154 -126 244
v -89 -124 276
v -150 -174 145
v -94 -157 202
f 173 174 176 175
v -154 128 243
v -150 176 145
v -90 124 276
v -94 160 202
f 177 178 180 179
v 88 -54 278
v 88 54 278
v 114 -35 252
v 114 34 252
f 181 182 184 183
v -376 -114 161
v -268 -181 102
v -380 -112 13
v -289 -170 -21
f 185 186 188 187
v -411 -1 2
v -381 109 14
v -405 1 178
v -375 119 163
f 189 190 192 191
v -150 169 -40
v -163 1 -148
v 4 122 -22
v -16 4 -105
f 193 194 196 195
v -405 1 178
v -376 -114 161
v -411 -1 2
v -380 -112 13
f 197 198 200 199
v 89 54 132
v 89 -56 132
v 114 34 252
v 114 -35 252
f 201 202 204 203
v -176 0 318
v -201 -125 263
v -310 0 290
v -310 -119 242
f 205 206 208 207
v -176 0 318
v -310 0 290
v -200 125 263
v -310 119 242
f 209 210 212 211
v 72 118 156
v 88 54 278
v -94 160 202
v -90 124 276
f 213 214 216 215
v -375 119 163
v -381 109 14
v -268 183 102
v -289 165 -21
f 217 218 220 219
v -268 183 102
v -150 176 145
v -310 119 242
v -200 125 263
f 221 222 224 223
v 88 54 278
v 88 -54 278
v -26 38 316
v -26 -38 316
f 225 226 228 227
v -154 128 243
v -154 16 299
v -200 125 263
v -176 0 318
f 229 230 232 231
v 186 -1 -127
v 164 144 -30
v -16 4 -105
v 4 122 -22
f 233 234 236 235
v 186 -1 -127
v -16 4 -105
v 164 -139 -31
v 3 -121 -22
f 237 238 240 239
v 262 -76 128
v 89 -56 132
v 261 84 127
v 89 54 132
f 241 242 244 243
v -150 169 -40
v 4 122 -22
v -126 184 81
v 10 138 69
f 245 246 248 247
v -151 -169 -40
v -127 -182 81
v 3 -121 -22
v 10 -137 69
f 249 250 252 251
v -310 0 290
v -405 1 178
v -310 119 242
v -375 119 163
f 253 254 256 255
v -308 -1 -122
v -289 -170 -21
v -163 1 -148
v -151 -169 -40
f 257 258 260 259
v -201 -125 263
v -176 0 318
v -154 -126 244
v -154 -16 299
f 261 262 264 263
