# RE2-Welt-Item-Modell mesh048 md5=7d2b4019247e9a1580732d08dde4594a (Bishop Plug)
v 12 -250 -21
v 0 -268 0
v 24 -250 0
f 1 2 3
v 24 -250 0
v 0 -268 0
v 12 -250 21
f 4 5 6
v 12 -250 21
v 0 -268 0
v -12 -250 21
f 7 8 9
v -12 -250 -21
v 0 -268 0
v 12 -250 -21
f 10 11 12
v -12 -250 21
v 0 -268 0
v -24 -250 0
f 13 14 15
v -24 -250 0
v 0 -268 0
v -12 -250 -21
f 16 17 18
v 12 -2 0
v -6 -2 10
v -6 -2 -10
f 19 20 21
v 12 -250 21
v 9 -208 15
v 24 -250 0
v 18 -208 0
f 22 23 25 24
v 12 -250 -21
v 24 -250 0
v 9 -208 -15
v 18 -208 0
f 26 27 29 28
v 12 -250 21
v -12 -250 21
v 9 -208 15
v -9 -208 15
f 30 31 33 32
v -12 -250 21
v -24 -250 0
v -9 -208 15
v -18 -208 0
f 34 35 37 36
v -12 -250 -21
v 12 -250 -21
v -9 -208 -15
v 9 -208 -15
f 38 39 41 40
v -12 -250 -21
v -9 -208 -15
v -24 -250 0
v -18 -208 0
f 42 43 45 44
v -17 -137 -12
v 6 -137 -20
v -17 -64 -12
v 6 -64 -20
f 46 47 49 48
v 21 -137 0
v 6 -137 20
v 21 -64 0
v 6 -64 20
f 50 51 53 52
v 6 -137 -20
v 21 -137 0
v 6 -64 -20
v 21 -64 0
f 54 55 57 56
v -17 -137 12
v -17 -137 -12
v -17 -64 12
v -17 -64 -12
f 58 59 61 60
v 6 -137 20
v -17 -137 12
v 6 -64 20
v -17 -64 12
f 62 63 65 64
v -6 -65 10
v -6 -65 -10
v -6 -2 10
v -6 -2 -10
f 66 67 69 68
v 12 -65 0
v -6 -65 10
v 12 -2 0
v -6 -2 10
f 70 71 73 72
v -6 -65 -10
v 12 -65 0
v -6 -2 -10
v 12 -2 0
f 74 75 77 76
v 14 -137 25
v 29 -137 0
v 9 -208 16
v 19 -208 0
f 78 79 81 80
v -14 -137 -25
v -29 -137 0
v -9 -208 -16
v -19 -208 0
f 82 83 85 84
v 29 -137 0
v 14 -137 -25
v 19 -208 0
v 9 -208 -16
f 86 87 89 88
v -14 -137 25
v 14 -137 25
v -9 -208 16
v 9 -208 16
f 90 91 93 92
v -29 -137 0
v -14 -137 25
v -19 -208 0
v -9 -208 16
f 94 95 97 96
v 14 -137 -25
v -14 -137 -25
v 9 -208 -16
v -9 -208 -16
f 98 99 101 100
