# RE2-Welt-Item-Modell mesh030 md5=5dbfd6771e1474d9ad96518d9ec10d65 (F. Aid Spray)
v 78 0 -46
v 79 -386 45
v 79 0 45
f 1 2 3
v 78 0 -46
v 78 -386 -46
v 79 -386 45
f 4 5 6
v 78 -386 -46
v 12 -460 7
v 79 -386 45
f 7 8 9
v 78 -386 -46
v 12 -460 -7
v 12 -460 7
f 10 11 12
v 12 -460 -7
v 12 -489 7
v 12 -460 7
f 13 14 15
v 12 -460 -7
v 12 -489 -7
v 12 -489 7
f 16 17 18
v 79 0 45
v 0 -386 90
v 0 0 90
f 19 20 21
v 79 0 45
v 79 -386 45
v 0 -386 90
f 22 23 24
v 79 -386 45
v 0 -460 13
v 0 -386 90
f 25 26 27
v 79 -386 45
v 12 -460 7
v 0 -460 13
f 28 29 30
v 12 -460 7
v 0 -489 14
v 0 -460 13
f 31 32 33
v 12 -460 7
v 12 -489 7
v 0 -489 14
f 34 35 36
v 0 0 90
v -78 -386 46
v -78 0 46
f 37 38 39
v 0 0 90
v 0 -386 90
v -78 -386 46
f 40 41 42
v 0 -386 90
v -12 -460 7
v -78 -386 46
f 43 44 45
v 0 -386 90
v 0 -460 13
v -12 -460 7
f 46 47 48
v 0 -460 13
v -12 -489 7
v -12 -460 7
f 49 50 51
v 0 -460 13
v 0 -489 14
v -12 -489 7
f 52 53 54
v -78 0 46
v -79 -386 -45
v -79 0 -45
f 55 56 57
v -78 0 46
v -78 -386 46
v -79 -386 -45
f 58 59 60
v -78 -386 46
v -12 -460 -7
v -79 -386 -45
f 61 62 63
v -78 -386 46
v -12 -460 7
v -12 -460 -7
f 64 65 66
v -12 -460 7
v -12 -489 -7
v -12 -460 -7
f 67 68 69
v -12 -460 7
v -12 -489 7
v -12 -489 -7
f 70 71 72
v -79 0 -45
v 0 -386 -90
v 0 0 -90
f 73 74 75
v -79 0 -45
v -79 -386 -45
v 0 -386 -90
f 76 77 78
v -79 -386 -45
v 0 -460 -13
v 0 -386 -90
f 79 80 81
v -79 -386 -45
v -12 -460 -7
v 0 -460 -13
f 82 83 84
v -12 -460 -7
v 0 -489 -14
v 0 -460 -13
f 85 86 87
v -12 -460 -7
v -12 -489 -7
v 0 -489 -14
f 88 89 90
v 0 0 -90
v 78 -386 -46
v 78 0 -46
f 91 92 93
v 0 0 -90
v 0 -386 -90
v 78 -386 -46
f 94 95 96
v 0 -386 -90
v 12 -460 -7
v 78 -386 -46
f 97 98 99
v 0 -386 -90
v 0 -460 -13
v 12 -460 -7
f 100 101 102
v 0 -460 -13
v 12 -489 -7
v 12 -460 -7
f 103 104 105
v 0 -460 -13
v 0 -489 -14
v 12 -489 -7
f 106 107 108
v 0 -489 14
v -12 -489 -7
v -12 -489 7
f 109 110 111
v 0 -489 14
v 0 -489 -14
v -12 -489 -7
f 112 113 114
v 0 -489 -14
v 0 -489 14
v 12 -489 7
f 115 116 117
v 0 -489 -14
v 12 -489 7
v 12 -489 -7
f 118 119 120
