# RE2-Welt-Item-Modell mesh010 md5=649a0c9b6175d4ac2a27762d39d30d0b (Cord, H. Gun Bullets)
v 15 -159 130
v 15 -15 96
v 15 -160 14
v 15 -20 26
f 1 2 4 3
v 15 -15 96
v 15 -159 130
v 0 -15 96
v 0 -159 130
f 5 6 8 7
v 15 -20 26
v 15 120 -12
v 0 -20 26
v 0 120 -12
f 9 10 12 11
v 0 30 -23
v 0 103 -43
v 15 30 -23
v 15 103 -43
f 13 14 16 15
v 0 103 -43
v 0 171 13
v 15 103 -43
v 15 171 13
f 17 18 20 19
v 0 171 13
v 0 149 65
v 15 171 13
v 15 149 65
f 21 22 24 23
v 0 149 65
v 0 135 68
v 15 149 65
v 15 135 68
f 25 26 28 27
v 0 135 68
v 0 120 -12
v 15 135 68
v 15 120 -12
f 29 30 32 31
v 0 -20 26
v 0 -160 14
v 15 -20 26
v 15 -160 14
f 33 34 36 35
v 0 -160 14
v 0 -160 81
v 15 -160 14
v 15 -160 81
f 37 38 40 39
v 0 -160 81
v 0 -278 92
v 15 -160 81
v 15 -278 92
f 41 42 44 43
v 0 -278 92
v 0 -278 140
v 15 -278 92
v 15 -278 140
f 45 46 48 47
v 0 -278 140
v 0 -159 98
v 15 -278 140
v 15 -159 98
f 49 50 52 51
v 0 -159 98
v 0 -159 130
v 15 -159 98
v 15 -159 130
f 53 54 56 55
v 0 -15 96
v 0 129 95
v 15 -15 96
v 15 129 95
f 57 58 60 59
v 0 129 95
v 0 136 80
v 15 129 95
v 15 136 80
f 61 62 64 63
v 0 136 80
v 0 156 79
v 15 136 80
v 15 156 79
f 65 66 68 67
v 0 156 79
v 0 187 3
v 15 156 79
v 15 187 3
f 69 70 72 71
v 0 187 3
v 0 109 -60
v 15 187 3
v 15 109 -60
f 73 74 76 75
v 0 109 -60
v 0 35 -69
v 15 109 -60
v 15 35 -69
f 77 78 80 79
v 15 -160 14
v 15 -160 81
v 15 -159 130
v 15 -159 98
f 81 82 84 83
v 15 -278 140
v 15 -159 98
v 15 -278 92
v 15 -160 81
f 85 86 88 87
v 15 156 79
v 15 187 3
v 15 149 65
v 15 171 13
f 89 90 92 91
v 15 129 95
v 15 120 -12
v 15 -15 96
v 15 -20 26
f 93 94 96 95
v 15 35 -69
v 15 30 -23
v 15 109 -60
v 15 103 -43
f 97 98 100 99
v 15 129 95
v 15 136 80
v 15 120 -12
v 15 135 68
f 101 102 104 103
v 15 187 3
v 15 109 -60
v 15 171 13
v 15 103 -43
f 105 106 108 107
v 15 156 79
v 15 149 65
v 15 136 80
v 15 135 68
f 109 110 112 111
v 0 30 -23
v 15 30 -23
v 0 35 -69
v 15 35 -69
f 113 114 116 115
