# RE2-Welt-Item-Modell mesh006 md5=9c7f444bcc717b141ecb1f3dfa73b74c (R. Launcher)
v 481 -53 53
v 481 0 0
v 481 -75 0
f 1 2 3
v -651 -75 0
v -651 0 0
v -651 -53 53
f 4 5 6
v 481 0 75
v 481 0 0
v 481 -53 53
f 7 8 9
v -651 -53 53
v -651 0 0
v -651 0 75
f 10 11 12
v 481 53 53
v 481 0 0
v 481 0 75
f 13 14 15
v -651 0 75
v -651 0 0
v -651 53 53
f 16 17 18
v 481 75 0
v 481 0 0
v 481 53 53
f 19 20 21
v -651 53 53
v -651 0 0
v -651 75 0
f 22 23 24
v 481 53 -53
v 481 0 0
v 481 75 0
f 25 26 27
v -651 75 0
v -651 0 0
v -651 53 -53
f 28 29 30
v 481 0 -75
v 481 0 0
v 481 53 -53
f 31 32 33
v -651 53 -53
v -651 0 0
v -651 0 -75
f 34 35 36
v 481 -53 -53
v 481 0 0
v 481 0 -75
f 37 38 39
v -651 0 -75
v -651 0 0
v -651 -53 -53
f 40 41 42
v 481 -75 0
v 481 0 0
v 481 -53 -53
f 43 44 45
v -651 -53 -53
v -651 0 0
v -651 -75 0
f 46 47 48
v -422 -57 -223
v -422 1 -68
v -422 -114 -201
v -422 -55 -47
f 49 50 52 51
v -155 -57 -223
v -155 1 -68
v -422 -57 -223
v -422 1 -68
f 53 54 56 55
v -155 -114 -201
v -155 -55 -47
v -155 -57 -223
v -155 1 -68
f 57 58 60 59
v -422 -114 -201
v -422 -55 -47
v -155 -114 -201
v -155 -55 -47
f 61 62 64 63
v -155 -57 -223
v -422 -57 -223
v -155 -114 -201
v -422 -114 -201
f 65 66 68 67
v -56 272 30
v -235 272 30
v -56 272 -30
v -235 272 -30
f 69 70 72 71
v -56 272 30
v -56 68 30
v -235 272 30
v -235 68 30
f 73 74 76 75
v -56 272 -30
v -56 68 -30
v -56 272 30
v -56 68 30
f 77 78 80 79
v -235 272 -30
v -235 68 -30
v -56 272 -30
v -56 68 -30
f 81 82 84 83
v -633 297 58
v -633 43 58
v -633 297 -58
v -633 43 -58
f 85 86 88 87
v -226 297 58
v -226 43 58
v -633 297 58
v -633 43 58
f 89 90 92 91
v -226 297 -58
v -226 43 -58
v -226 297 58
v -226 43 58
f 93 94 96 95
v -633 297 -58
v -633 43 -58
v -226 297 -58
v -226 43 -58
f 97 98 100 99
v -226 297 58
v -633 297 58
v -226 297 -58
v -633 297 -58
f 101 102 104 103
v -651 -75 0
v -651 -53 53
v 481 -75 0
v 481 -53 53
f 105 106 108 107
v -651 -53 53
v -651 0 75
v 481 -53 53
v 481 0 75
f 109 110 112 111
v -651 0 75
v -651 53 53
v 481 0 75
v 481 53 53
f 113 114 116 115
v -651 53 53
v -651 75 0
v 481 53 53
v 481 75 0
f 117 118 120 119
v -651 75 0
v -651 53 -53
v 481 75 0
v 481 53 -53
f 121 122 124 123
v -651 53 -53
v -651 0 -75
v 481 53 -53
v 481 0 -75
f 125 126 128 127
v -651 0 -75
v -651 -53 -53
v 481 0 -75
v 481 -53 -53
f 129 130 132 131
v -651 -53 -53
v -651 -75 0
v 481 -53 -53
v 481 -75 0
f 133 134 136 135
