# RE2-Welt-Item-Modell mesh056 md5=df76d65672a2f2ca654e38ce3385a3ed (Eagle Medal)
v -3 3 -6
v 2 8 -6
v -3 8 -6
f 1 2 3
v -83 8 63
v -70 3 62
v -83 3 63
f 4 5 6
v 2 8 6
v -3 3 6
v -3 8 6
f 7 8 9
v -70 3 56
v -81 11 56
v -81 3 56
f 10 11 12
v -9 11 5
v -24 11 41
v -9 11 15
f 13 14 15
v -24 11 -41
v -9 11 -5
v -9 11 -15
f 16 17 18
v 48 30 -57
v -3 3 0
v 50 27 -5
f 19 20 21
v -5 397 -133
v -14 407 -116
v -4 394 -92
f 22 23 24
v -62 3 62
v -49 8 62
v -49 3 62
f 25 26 27
v -50 11 56
v -62 3 56
v -50 3 56
f 28 29 30
v -24 11 -41
v -50 11 -56
v -107 11 -41
v -81 11 -56
f 31 32 34 33
v -3 3 16
v -20 3 46
v -3 8 16
v -20 8 46
f 35 36 38 37
v -9 11 5
v -9 11 15
v -9 3 5
v -9 3 15
f 39 40 42 41
v -20 3 46
v -49 3 62
v -20 8 46
v -49 8 62
f 43 44 46 45
v 2 -7 -6
v 2 -7 6
v 2 8 -6
v 2 8 6
f 47 48 50 49
v -122 11 -15
v -107 11 -41
v -122 3 -15
v -107 3 -41
f 51 52 54 53
v -83 3 63
v -112 3 46
v -83 8 63
v -112 8 46
f 55 56 58 57
v -112 3 46
v -129 3 17
v -112 8 46
v -129 8 17
f 59 60 62 61
v -3 -7 6
v -3 -7 -6
v -3 3 6
v -3 3 -6
f 63 64 66 65
v -3 -7 -6
v -3 -7 6
v 2 -7 -6
v 2 -7 6
f 67 68 70 69
v -129 3 17
v -129 3 -16
v -129 8 17
v -129 8 -16
f 71 72 74 73
v -107 11 41
v -122 11 15
v -107 3 41
v -122 3 15
f 75 76 78 77
v -129 3 -16
v -112 3 -45
v -129 8 -16
v -112 8 -45
f 79 80 82 81
v -81 11 -56
v -50 11 -56
v -81 3 -56
v -50 3 -56
f 83 84 86 85
v -112 3 -45
v -83 3 -62
v -112 8 -45
v -83 8 -62
f 87 88 90 89
v -50 11 -56
v -24 11 -41
v -50 3 -56
v -24 3 -41
f 91 92 94 93
v -83 3 -62
v -49 3 -63
v -83 8 -62
v -49 8 -63
f 95 96 98 97
v -107 11 -41
v -81 11 -56
v -107 3 -41
v -81 3 -56
f 99 100 102 101
v -49 3 -63
v -20 3 -46
v -49 8 -63
v -20 8 -46
f 103 104 106 105
v -9 11 -15
v -9 11 -5
v -9 3 -15
v -9 3 -5
f 107 108 110 109
v -20 3 -46
v -3 3 -17
v -20 8 -46
v -3 8 -17
f 111 112 114 113
v -3 3 6
v -3 3 -6
v -9 3 5
v -9 3 -5
f 115 116 118 117
v -24 11 -41
v -9 11 -15
v -24 3 -41
v -9 3 -15
f 119 120 122 121
v -3 3 -6
v -3 8 -6
v -3 3 -17
v -3 8 -17
f 123 124 126 125
v -3 3 16
v -3 8 16
v -3 3 6
v -3 8 6
f 127 128 130 129
v -9 11 -5
v -9 11 5
v -9 3 -5
v -9 3 5
f 131 132 134 133
v -9 11 15
v -24 11 41
v -9 3 15
v -24 3 41
f 135 136 138 137
v -122 11 -15
v -122 3 -15
v -122 11 15
v -122 3 15
f 139 140 142 141
v -81 11 56
v -107 11 41
v -81 3 56
v -107 3 41
f 143 144 146 145
v -24 11 41
v -50 11 56
v -24 3 41
v -50 3 56
f 147 148 150 149
v -3 3 16
v -3 3 6
v -9 3 15
v -9 3 5
f 151 152 154 153
v -3 3 -6
v -3 3 -17
v -9 3 -5
v -9 3 -15
f 155 156 158 157
v -83 3 63
v -70 3 62
v -81 3 56
v -70 3 56
f 159 160 162 161
v -24 3 41
v -50 3 56
v -20 3 46
v -49 3 62
f 163 164 166 165
v -20 3 46
v -3 3 16
v -24 3 41
v -9 3 15
f 167 168 170 169
v 2 -7 -6
v 2 8 -6
v -3 -7 -6
v -3 3 -6
f 171 172 174 173
v 2 8 6
v 2 -7 6
v -3 3 6
v -3 -7 6
f 175 176 178 177
v -83 3 63
v -81 3 56
v -112 3 46
v -107 3 41
f 179 180 182 181
v -3 3 -17
v -20 3 -46
v -9 3 -15
v -24 3 -41
f 183 184 186 185
v -20 3 -46
v -49 3 -63
v -24 3 -41
v -50 3 -56
f 187 188 190 189
v -49 3 -63
v -83 3 -62
v -50 3 -56
v -81 3 -56
f 191 192 194 193
v -83 3 -62
v -112 3 -45
v -81 3 -56
v -107 3 -41
f 195 196 198 197
v -112 3 -45
v -129 3 -16
v -107 3 -41
v -122 3 -15
f 199 200 202 201
v -129 3 -16
v -129 3 17
v -122 3 -15
v -122 3 15
f 203 204 206 205
v -129 3 17
v -112 3 46
v -122 3 15
v -107 3 41
f 207 208 210 209
v -77 11 -42
v -77 11 41
v -72 5 -35
v -72 5 35
f 211 212 214 213
v -54 11 -42
v -77 11 -42
v -59 5 -35
v -72 5 -35
f 215 216 218 217
v -54 11 41
v -54 11 -42
v -59 5 35
v -59 5 -35
f 219 220 222 221
v -77 11 41
v -54 11 41
v -72 5 35
v -59 5 35
f 223 224 226 225
v -59 5 35
v -59 5 -35
v -72 5 35
v -72 5 -35
f 227 228 230 229
v 27 213 -102
v 30 209 -36
v 49 108 -79
v 51 104 -13
f 231 232 234 233
v 49 108 -79
v 51 104 -13
v 48 30 -57
v 50 27 -5
f 235 236 238 237
v 30 209 -36
v 27 213 -102
v 9 301 -60
v 7 304 -121
f 239 240 242 241
v 7 304 -121
v -5 397 -133
v 9 301 -60
v -4 394 -92
f 243 244 246 245
v -62 3 62
v -49 3 62
v -62 3 56
v -50 3 56
f 247 248 250 249
v -50 11 56
v -81 11 56
v -62 3 56
v -70 3 56
f 251 252 254 253
v -62 -3 56
v -70 -3 56
v -62 -3 62
v -70 -3 62
f 255 256 258 257
v -83 8 63
v -49 8 62
v -70 3 62
v -62 3 62
f 259 260 262 261
v -70 -3 62
v -70 -3 56
v -70 3 62
v -70 3 56
f 263 264 266 265
v -62 -3 56
v -62 -3 62
v -62 3 56
v -62 3 62
f 267 268 270 269
v -70 -3 56
v -62 -3 56
v -70 3 56
v -62 3 56
f 271 272 274 273
v -62 -3 62
v -70 -3 62
v -62 3 62
v -70 3 62
f 275 276 278 277
v -107 11 41
v -81 11 56
v -24 11 41
v -50 11 56
f 279 280 282 281
v -9 11 -5
v -24 11 -41
v -122 11 -15
v -107 11 -41
f 283 284 286 285
v -122 11 -15
v -122 11 15
v -9 11 -5
v -9 11 5
f 287 288 290 289
v -9 11 5
v -122 11 15
v -24 11 41
v -107 11 41
f 291 292 294 293
