# RE2-Welt-Item-Modell mesh001 md5=36f33a098b84c51ce949859184affe61 (Magnum)
v 276 -78 170
v 265 -78 315
v 365 -78 189
f 1 2 3
v 1 -78 183
v 129 -78 108
v 0 -78 108
f 4 5 6
v -315 -78 315
v -315 -78 183
v -315 0 315
v -315 0 183
f 7 8 10 9
v 158 -78 -81
v 337 -78 -81
v 158 0 -81
v 337 0 -81
f 11 12 14 13
v 365 -78 189
v 265 -78 315
v 365 0 189
v 265 0 315
f 15 16 18 17
v 265 -78 315
v -315 -78 315
v 265 0 315
v -315 0 315
f 19 20 22 21
v 265 -78 315
v 276 -78 170
v 1 -78 183
v 129 -78 108
f 23 24 26 25
v 337 -78 -81
v 158 -78 -81
v 276 -78 170
v 129 -78 108
f 27 28 30 29
v 1 0 183
v -315 0 183
v 1 -78 183
v -315 -78 183
f 31 32 34 33
v 0 0 108
v 1 0 183
v 0 -78 108
v 1 -78 183
f 35 36 38 37
v 129 0 108
v 0 0 108
v 129 -78 108
v 0 -78 108
f 39 40 42 41
v 158 0 -81
v 129 0 108
v 158 -78 -81
v 129 -78 108
f 43 44 46 45
v 276 0 170
v 337 0 -81
v 276 -78 170
v 337 -78 -81
f 47 48 50 49
v 276 -78 170
v 365 -78 189
v 276 0 170
v 365 0 189
f 51 52 54 53
v 1 -78 183
v -315 -78 183
v 265 -78 315
v -315 -78 315
f 55 56 58 57
