# RE2-Welt-Item-Modell mesh073 md5=c8967851d4dbee3593a9dd2b0680d5eb (Lab Card Key)
v -87 -1 54
v -30 -1 54
v -87 -1 19
v -30 -1 19
f 1 2 4 3
v -87 -1 54
v -90 -1 54
v -87 -1 57
v -89 -1 56
f 5 6 8 7
v -87 -1 54
v -87 -1 57
v -30 -1 54
v -30 -1 57
f 9 10 12 11
v -90 -1 54
v -87 -1 54
v -90 -1 19
v -87 -1 19
f 13 14 16 15
v 30 -1 54
v 87 -1 54
v 30 -1 19
v 87 -1 19
f 17 18 20 19
v -30 -1 54
v 30 -1 54
v -30 -1 19
v 30 -1 19
f 21 22 24 23
v 87 -1 54
v 87 -1 57
v 90 -1 54
v 89 -1 56
f 25 26 28 27
v 87 -1 54
v 90 -1 54
v 87 -1 19
v 90 -1 19
f 29 30 32 31
v 87 -1 57
v 87 -1 54
v 30 -1 57
v 30 -1 54
f 33 34 36 35
v -30 -1 54
v -30 -1 57
v 30 -1 54
v 30 -1 57
f 37 38 40 39
v -30 -1 -54
v -87 -1 -54
v -30 -1 -19
v -87 -1 -19
f 41 42 44 43
v -87 -1 19
v -30 -1 19
v -87 -1 -19
v -30 -1 -19
f 45 46 48 47
v -87 -1 -54
v -87 -1 -57
v -90 -1 -54
v -89 -1 -56
f 49 50 52 51
v -87 -1 -57
v -87 -1 -54
v -30 -1 -57
v -30 -1 -54
f 53 54 56 55
v -87 -1 -54
v -90 -1 -54
v -87 -1 -19
v -90 -1 -19
f 57 58 60 59
v -90 -1 19
v -87 -1 19
v -90 -1 -19
v -87 -1 -19
f 61 62 64 63
v 87 -1 -54
v 30 -1 -54
v 87 -1 -19
v 30 -1 -19
f 65 66 68 67
v 30 -1 19
v 87 -1 19
v 30 -1 -19
v 87 -1 -19
f 69 70 72 71
v 30 -1 -54
v -30 -1 -54
v 30 -1 -19
v -30 -1 -19
f 73 74 76 75
v -30 -1 19
v 30 -1 19
v -30 -1 -19
v 30 -1 -19
f 77 78 80 79
v 87 -1 -54
v 90 -1 -54
v 87 -1 -57
v 89 -1 -56
f 81 82 84 83
v 90 -1 -54
v 87 -1 -54
v 90 -1 -19
v 87 -1 -19
f 85 86 88 87
v 87 -1 19
v 90 -1 19
v 87 -1 -19
v 90 -1 -19
f 89 90 92 91
v 87 -1 -54
v 87 -1 -57
v 30 -1 -54
v 30 -1 -57
f 93 94 96 95
v -30 -1 -57
v -30 -1 -54
v 30 -1 -57
v 30 -1 -54
f 97 98 100 99
