# RE2-Welt-Item-Modell mesh005 md5=b4f6e99fa47e735ebbcf19b072c21c63 (S. Machine Gun)
v -21 -58 414
v -21 -12 414
v -21 -58 60
v -21 -12 60
f 1 2 4 3
v -95 -58 414
v -95 -58 59
v -95 -12 414
v -95 -12 59
f 5 6 8 7
v -95 -58 414
v -95 -12 414
v -21 -58 414
v -21 -12 414
f 9 10 12 11
v -235 -72 63
v -235 0 63
v 180 -72 63
v 180 0 63
f 13 14 16 15
v -95 -58 59
v -95 -58 414
v -21 -58 60
v -21 -58 414
f 17 18 20 19
v 477 -70 44
v 477 -2 44
v 477 -70 -36
v 477 -2 -36
f 21 22 24 23
v 181 -70 44
v 181 -2 44
v 477 -70 44
v 477 -2 44
f 25 26 28 27
v 181 -70 -36
v 477 -70 -36
v 181 -2 -36
v 477 -2 -36
f 29 30 32 31
v 180 -72 63
v 180 -72 -60
v -235 -72 63
v -235 -72 -60
f 33 34 36 35
v 477 -70 44
v 477 -70 -36
v 181 -70 44
v 181 -70 -36
f 37 38 40 39
v 180 -72 63
v 180 0 63
v 180 -72 -60
v 180 0 -60
f 41 42 44 43
v -235 -72 63
v -235 -72 -60
v -235 0 63
v -235 0 -60
f 45 46 48 47
v -235 -72 -60
v 180 -72 -60
v -235 0 -60
v 180 0 -60
f 49 50 52 51
