# RE2-Welt-Item-Modell mesh052 md5=fedc467ab1913c1dabe752af1466772b (Film)
v 32 54 0
v 23 54 23
v 0 54 32
f 1 2 3
v 0 54 -32
v -32 54 0
v -23 54 -23
f 4 5 6
v 23 -54 -23
v 32 -54 0
v 23 54 -23
v 32 54 0
f 7 8 10 9
v 32 -54 0
v 23 -54 23
v 32 54 0
v 23 54 23
f 11 12 14 13
v -23 -54 -23
v 0 -54 -32
v -23 54 -23
v 0 54 -32
f 15 16 18 17
v -32 -54 0
v -23 -54 -23
v -32 54 0
v -23 54 -23
f 19 20 22 21
v 23 -54 23
v 0 -54 32
v 23 54 23
v 0 54 32
f 23 24 26 25
v 0 -54 -32
v 23 -54 -23
v 0 54 -32
v 23 54 -23
f 27 28 30 29
v -23 -54 23
v -32 -54 0
v -23 54 23
v -32 54 0
f 31 32 34 33
v 0 -54 32
v -23 -54 23
v 0 54 32
v -23 54 23
f 35 36 38 37
v 0 -54 -32
v 23 -54 23
v 23 -54 -23
v 32 -54 0
f 39 40 42 41
v -23 -54 -23
v 0 -54 32
v 0 -54 -32
v 23 -54 23
f 43 44 46 45
v 0 -54 32
v -23 -54 -23
v -23 -54 23
v -32 -54 0
f 47 48 50 49
v -23 54 23
v 23 54 -23
v 0 54 32
v 32 54 0
f 51 52 54 53
v -23 54 23
v -32 54 0
v 23 54 -23
v 0 54 -32
f 55 56 58 57
