# RE2-Welt-Item-Modell mesh002 md5=78d92b1dfa587cc7ef59a47e2bf5ce04 (Shotgun)
v -618 -63 43
v -618 -1 -51
v -618 -1 43
f 1 2 3
v -651 -45 98
v -650 0 45
v -651 0 98
f 4 5 6
v 594 -59 -93
v 465 -59 -121
v 582 -75 -38
f 7 8 9
v 465 -59 -121
v 594 -59 -93
v 606 -59 -298
f 10 11 12
v -332 -62 -6
v -332 -46 41
v -37 -62 -6
v -37 -46 41
f 13 14 16 15
v -333 -74 -29
v -618 -74 -29
v -334 -63 43
v -618 -63 43
f 17 18 20 19
v -618 -63 43
v -618 -74 -29
v -618 -1 -51
v -618 -46 -50
f 21 22 24 23
v -651 -45 98
v -651 0 98
v -323 -45 103
v -323 0 103
f 25 26 28 27
v -651 -45 98
v -651 -62 68
v -650 0 45
v -650 -45 45
f 29 30 32 31
v -40 -62 75
v -40 -45 45
v -325 -62 74
v -326 -45 45
f 33 34 36 35
v -323 -45 103
v -323 0 103
v -40 -45 105
v -40 0 105
f 37 38 40 39
v -37 0 -36
v -332 0 -36
v -37 -45 -36
v -332 -45 -36
f 41 42 44 43
v -618 -74 -29
v -333 -74 -29
v -618 -46 -50
v -334 -46 -50
f 45 46 48 47
v -334 -1 -51
v -618 -1 -51
v -334 -46 -50
v -618 -46 -50
f 49 50 52 51
v -332 -45 -36
v -332 -62 -6
v -37 -45 -36
v -37 -62 -6
f 53 54 56 55
v -333 -74 -29
v -332 -62 -6
v -334 -46 -50
v -332 -45 -36
f 57 58 60 59
v -332 0 -36
v -334 -1 -51
v -332 -45 -36
v -334 -46 -50
f 61 62 64 63
v -325 -62 74
v -326 -45 45
v -651 -62 68
v -650 -45 45
f 65 66 68 67
v -334 -63 43
v -332 -46 41
v -333 -74 -29
v -332 -62 -6
f 69 70 72 71
v -38 -75 113
v -39 -75 -50
v -38 0 113
v -39 0 -50
f 73 74 76 75
v -39 -75 -50
v 253 -75 -50
v -39 0 -50
v 250 0 -50
f 77 78 80 79
v 376 -75 113
v 376 0 113
v 611 -75 13
v 611 0 13
f 81 82 84 83
v 376 -75 113
v -38 -75 113
v 376 0 113
v -38 0 113
f 85 86 88 87
v 253 -75 -50
v -39 -75 -50
v 376 -75 113
v -38 -75 113
f 89 90 92 91
v 701 0 -271
v 606 0 -298
v 700 -59 -271
v 606 -59 -298
f 93 94 96 95
v 591 0 -89
v 716 0 -213
v 594 -59 -93
v 716 -59 -213
f 97 98 100 99
v 582 -75 -38
v 611 -75 13
v 582 0 -38
v 611 0 13
f 101 102 104 103
v 594 -59 -93
v 716 -59 -213
v 606 -59 -298
v 700 -59 -271
f 105 106 108 107
v -40 -45 105
v -40 -62 75
v -323 -45 103
v -325 -62 74
f 109 110 112 111
v 346 0 -121
v 346 -60 -121
v 464 0 -118
v 465 -59 -121
f 113 114 116 115
v 582 -75 -38
v 582 0 -38
v 594 -59 -93
v 591 0 -89
f 117 118 120 119
v 700 -59 -271
v 716 -59 -213
v 701 0 -271
v 716 0 -213
f 121 122 124 123
v -651 -45 98
v -323 -45 103
v -651 -62 68
v -325 -62 74
f 125 126 128 127
v 253 -75 -50
v 346 -60 -121
v 250 0 -50
v 346 0 -121
f 129 130 132 131
v 253 -75 -50
v 376 -75 113
v 582 -75 -38
v 611 -75 13
f 133 134 136 135
v 253 -75 -50
v 582 -75 -38
v 346 -60 -121
v 465 -59 -121
f 137 138 140 139
v 606 0 -298
v 464 0 -118
v 606 -59 -298
v 465 -59 -121
f 141 142 144 143
