# RE2-Welt-Item-Modell mesh037 md5=9e2117d6ee8bcb3542181eb4ed3800cd (Blue Herb, Green Herb, Red Herb)
v 156 -759 218
v -70 -820 155
v 125 -777 27
f 1 2 3
v 125 -777 27
v 349 -821 97
v 156 -759 218
f 4 5 6
v -57 -626 10
v -266 -664 -93
v -62 -588 -184
f 7 8 9
v -62 -588 -184
v 155 -661 -102
v -57 -626 10
f 10 11 12
v 80 -488 -40
v -46 -605 221
v -168 -488 -40
f 13 14 15
v -168 -488 -40
v -46 -546 -315
v 80 -488 -40
f 16 17 18
v 108 -536 165
v -97 -633 106
v 58 -565 -56
f 19 20 21
v 58 -565 -56
v 366 -635 12
v 108 -536 165
f 22 23 24
v 265 -685 69
v 177 -734 307
v -11 -685 98
f 25 26 27
v -11 -685 98
v 126 -797 -78
v 265 -685 69
f 28 29 30
v -19 -358 0
v 9 -358 16
v -82 -722 -124
f 31 32 33
v -82 -722 -124
v 9 -358 -16
v -19 -358 0
f 34 35 36
v 9 -358 -16
v -82 -722 -124
v 9 -358 16
f 37 38 39
v -19 -358 0
v 9 -358 16
v 156 -822 130
f 40 41 42
v 156 -822 130
v 9 -358 -16
v -19 -358 0
f 43 44 45
v 9 -358 -16
v 156 -822 130
v 9 -358 16
f 46 47 48
v 130 -360 -130
v 0 -360 0
v 183 -360 0
f 49 50 51
v 120 -1 0
v 130 -360 130
v 85 -1 85
f 52 53 54
v 120 -1 0
v 183 -360 0
v 130 -360 130
f 55 56 57
v 183 -360 0
v 0 -360 0
v 130 -360 130
f 58 59 60
v 85 -1 -85
v 183 -360 0
v 120 -1 0
f 61 62 63
v 85 -1 -85
v 130 -360 -130
v 183 -360 0
f 64 65 66
v 85 -1 85
v 0 -360 183
v 0 -1 120
f 67 68 69
v 85 -1 85
v 130 -360 130
v 0 -360 183
f 70 71 72
v 130 -360 130
v 0 -360 0
v 0 -360 183
f 73 74 75
v 0 -1 120
v -130 -360 130
v -85 -1 85
f 76 77 78
v 0 -1 120
v 0 -360 183
v -130 -360 130
f 79 80 81
v 0 -360 183
v 0 -360 0
v -130 -360 130
f 82 83 84
v -85 -1 85
v -183 -360 0
v -120 -1 0
f 85 86 87
v -85 -1 85
v -130 -360 130
v -183 -360 0
f 88 89 90
v -130 -360 130
v 0 -360 0
v -183 -360 0
f 91 92 93
v -120 -1 0
v -130 -360 -130
v -85 -1 -85
f 94 95 96
v -120 -1 0
v -183 -360 0
v -130 -360 -130
f 97 98 99
v -183 -360 0
v 0 -360 0
v -130 -360 -130
f 100 101 102
v 0 -360 -183
v 0 -360 0
v 130 -360 -130
f 103 104 105
v -85 -1 -85
v 0 -360 -183
v 0 -1 -120
f 106 107 108
v -85 -1 -85
v -130 -360 -130
v 0 -360 -183
f 109 110 111
v -130 -360 -130
v 0 -360 0
v 0 -360 -183
f 112 113 114
v 0 -1 -120
v 130 -360 -130
v 85 -1 -85
f 115 116 117
v 0 -1 -120
v 0 -360 -183
v 130 -360 -130
f 118 119 120
v -57 -626 10
v -62 -588 -184
v -266 -664 -93
f 121 122 123
v -62 -588 -184
v -57 -626 10
v 155 -661 -102
f 124 125 126
v 125 -777 27
v 156 -759 218
v 349 -821 97
f 127 128 129
v 156 -759 218
v 125 -777 27
v -70 -820 155
f 130 131 132
v 265 -685 69
v 177 -734 307
v -11 -685 98
f 133 134 135
v -11 -685 98
v 126 -797 -78
v 265 -685 69
f 136 137 138
v 265 -685 69
v -11 -685 98
v 177 -734 307
f 139 140 141
v -11 -685 98
v 265 -685 69
v 126 -797 -78
f 142 143 144
v 58 -565 -56
v 108 -536 165
v 366 -635 12
f 145 146 147
v 108 -536 165
v 58 -565 -56
v -97 -633 106
f 148 149 150
v 80 -488 -40
v -168 -488 -40
v -46 -605 221
f 151 152 153
v -168 -488 -40
v 80 -488 -40
v -46 -546 -315
f 154 155 156
