# RE2-Welt-Item-Modell mesh023 md5=0e2d156de2d1f3e016c3434c92e1b3cd (M.G. Bullets)
v -90 35 361
v -90 -35 361
v -90 35 -344
v -90 -35 -344
f 1 2 4 3
v 90 35 -344
v 90 35 361
v 83 45 -344
v 83 45 361
f 5 6 8 7
v 90 -35 -344
v 90 -35 361
v 90 35 -344
v 90 35 361
f 9 10 12 11
v 90 -35 361
v 90 -35 -344
v 83 -45 361
v 83 -45 -344
f 13 14 16 15
v -83 45 361
v -83 45 -344
v 83 45 361
v 83 45 -344
f 17 18 20 19
v 83 -45 361
v 83 -45 -344
v -83 -45 361
v -83 -45 -344
f 21 22 24 23
v -90 -35 -344
v -90 -35 361
v -83 -45 -344
v -83 -45 361
f 25 26 28 27
v -90 35 361
v -90 35 -344
v -83 45 361
v -83 45 -344
f 29 30 32 31
v 83 -45 361
v 83 45 361
v 90 -35 361
v 90 35 361
f 33 34 36 35
v -83 45 361
v -83 -45 361
v -90 35 361
v -90 -35 361
f 37 38 40 39
v -83 45 361
v 83 45 361
v -83 -45 361
v 83 -45 361
f 41 42 44 43
v -83 45 -344
v -90 35 -344
v -83 -45 -344
v -90 -35 -344
f 45 46 48 47
v 83 -45 -344
v 83 45 -344
v -83 -45 -344
v -83 45 -344
f 49 50 52 51
v 83 45 -344
v 83 -45 -344
v 90 35 -344
v 90 -35 -344
f 53 54 56 55
