# RE2-Welt-Item-Modell mesh053 md5=910ff371fb377d2b0d4e801a176ead76 (G. Cogwheel)
v 61 -100 14
v 94 -69 31
v 61 -100 31
f 1 2 3
v 115 18 -14
v 114 -28 -36
v 115 18 -36
f 4 5 6
v 100 61 14
v 69 94 31
v 100 61 31
f 7 8 9
v 28 114 31
v -18 115 14
v -18 115 31
f 10 11 12
v -61 100 14
v -94 69 31
v -61 100 31
f 13 14 15
v -114 28 31
v -115 -18 14
v -115 -18 31
f 16 17 18
v 18 -115 -14
v -28 -114 -36
v 18 -115 -36
f 19 20 21
v -100 -61 14
v -69 -94 31
v -100 -61 31
f 22 23 24
v 69 94 -36
v 100 61 -14
v 100 61 -36
f 25 26 27
v -18 115 -14
v 28 114 -36
v -18 115 -36
f 28 29 30
v 114 -28 31
v 115 18 14
v 115 18 31
f 31 32 33
v 94 -69 -36
v 61 -100 -14
v 61 -100 -36
f 34 35 36
v -94 69 -36
v -61 100 -14
v -61 100 -36
f 37 38 39
v -115 -18 -14
v -114 28 -36
v -115 -18 -36
f 40 41 42
v -69 -94 -36
v -100 -61 -14
v -100 -61 -36
f 43 44 45
v -28 -114 31
v 18 -115 14
v 18 -115 31
f 46 47 48
v 94 -69 -36
v 94 -69 31
v 61 -100 -14
v 61 -100 14
f 49 50 52 51
v 194 -81 -20
v 187 -95 -20
v 194 -81 20
v 187 -95 20
f 53 54 56 55
v 0 0 -43
v -44 11 -43
v -38 -23 -43
v -44 -7 -43
f 57 58 60 59
v 210 -1 -20
v 210 -16 -20
v 210 -1 20
v 210 -16 20
f 61 62 64 63
v 148 -149 -20
v 137 -160 -20
v 148 -149 20
v 137 -160 20
f 65 66 68 67
v -79 195 -20
v -65 200 -20
v -79 195 20
v -65 200 20
f 69 70 72 71
v 195 79 -20
v 200 65 -20
v 195 79 20
v 200 65 20
f 73 74 76 75
v 79 -195 -20
v 65 -200 -20
v 79 -195 20
v 65 -200 20
f 77 78 80 79
v -195 -79 -20
v -200 -65 -20
v -195 -79 20
v -200 -65 20
f 81 82 84 83
v 1 210 -20
v 16 210 -20
v 1 210 20
v 16 210 20
f 85 86 88 87
v -1 -210 -20
v -16 -210 -20
v -1 -210 20
v -16 -210 20
f 89 90 92 91
v 149 148 -20
v 160 137 -20
v 149 148 20
v 160 137 20
f 93 94 96 95
v -194 81 -20
v -187 95 -20
v -194 81 20
v -187 95 20
f 97 98 100 99
v -81 -194 -20
v -95 -187 -20
v -81 -194 20
v -95 -187 20
f 101 102 104 103
v -210 1 -20
v -210 16 -20
v -210 1 20
v -210 16 20
f 105 106 108 107
v 81 194 -20
v 95 187 -20
v 81 194 20
v 95 187 20
f 109 110 112 111
v -149 -148 -20
v -160 -137 -20
v -149 -148 20
v -160 -137 20
f 113 114 116 115
v -148 149 -20
v -137 160 -20
v -148 149 20
v -137 160 20
f 117 118 120 119
v -36 -149 -36
v -36 -149 31
v -16 -210 -20
v -16 -210 20
f 121 122 124 123
v 24 -152 31
v 24 -152 -36
v -1 -210 20
v -1 -210 -20
f 125 126 128 127
v 24 -152 -36
v -36 -149 -36
v -1 -210 -20
v -16 -210 -20
f 129 130 132 131
v -90 -124 -36
v -90 -124 31
v -95 -187 -20
v -95 -187 20
f 133 134 136 135
v -36 -149 31
v -36 -149 -36
v -81 -194 20
v -81 -194 -20
f 137 138 140 139
v -36 -149 -36
v -90 -124 -36
v -81 -194 -20
v -95 -187 -20
f 141 142 144 143
v 114 -28 31
v 114 -28 -36
v 115 18 14
v 115 18 -14
f 145 146 148 147
v -90 -124 31
v -90 -124 -36
v -149 -148 20
v -149 -148 -20
f 149 150 152 151
v -131 -80 -36
v -131 -80 31
v -160 -137 -20
v -160 -137 20
f 153 154 156 155
v -90 -124 -36
v -131 -80 -36
v -149 -148 -20
v -160 -137 -20
f 157 158 160 159
v -152 -24 -36
v -152 -24 31
v -200 -65 -20
v -200 -65 20
f 161 162 164 163
v -131 -80 31
v -131 -80 -36
v -195 -79 20
v -195 -79 -20
f 165 166 168 167
v -131 -80 -36
v -152 -24 -36
v -195 -79 -20
v -200 -65 -20
f 169 170 172 171
v 69 94 -36
v 69 94 31
v 100 61 -14
v 100 61 14
f 173 174 176 175
v -149 36 -36
v -149 36 31
v -210 16 -20
v -210 16 20
f 177 178 180 179
v -152 -24 31
v -152 -24 -36
v -210 1 20
v -210 1 -20
f 181 182 184 183
v -152 -24 -36
v -149 36 -36
v -210 1 -20
v -210 16 -20
f 185 186 188 187
v -124 90 -36
v -124 90 31
v -187 95 -20
v -187 95 20
f 189 190 192 191
v -149 36 31
v -149 36 -36
v -194 81 20
v -194 81 -20
f 193 194 196 195
v -149 36 -36
v -124 90 -36
v -194 81 -20
v -187 95 -20
f 197 198 200 199
v 28 114 31
v 28 114 -36
v -18 115 14
v -18 115 -14
f 201 202 204 203
v -124 90 31
v -124 90 -36
v -148 149 20
v -148 149 -20
f 205 206 208 207
v -80 131 -36
v -80 131 31
v -137 160 -20
v -137 160 20
f 209 210 212 211
v -124 90 -36
v -80 131 -36
v -148 149 -20
v -137 160 -20
f 213 214 216 215
v -24 152 -36
v -24 152 31
v -65 200 -20
v -65 200 20
f 217 218 220 219
v -80 131 31
v -80 131 -36
v -79 195 20
v -79 195 -20
f 221 222 224 223
v -80 131 -36
v -24 152 -36
v -79 195 -20
v -65 200 -20
f 225 226 228 227
v -94 69 -36
v -94 69 31
v -61 100 -14
v -61 100 14
f 229 230 232 231
v 36 149 -36
v 36 149 31
v 16 210 -20
v 16 210 20
f 233 234 236 235
v -24 152 31
v -24 152 -36
v 1 210 20
v 1 210 -20
f 237 238 240 239
v -24 152 -36
v 36 149 -36
v 1 210 -20
v 16 210 -20
f 241 242 244 243
v 90 124 -36
v 90 124 31
v 95 187 -20
v 95 187 20
f 245 246 248 247
v 36 149 31
v 36 149 -36
v 81 194 20
v 81 194 -20
f 249 250 252 251
v 36 149 -36
v 90 124 -36
v 81 194 -20
v 95 187 -20
f 253 254 256 255
v -114 28 31
v -114 28 -36
v -115 -18 14
v -115 -18 -14
f 257 258 260 259
v 90 124 31
v 90 124 -36
v 149 148 20
v 149 148 -20
f 261 262 264 263
v 131 80 -36
v 131 80 31
v 160 137 -20
v 160 137 20
f 265 266 268 267
v 90 124 -36
v 131 80 -36
v 149 148 -20
v 160 137 -20
f 269 270 272 271
v 131 80 31
v 131 80 -36
v 195 79 20
v 195 79 -20
f 273 274 276 275
v 152 24 -36
v 152 24 31
v 200 65 -20
v 200 65 20
f 277 278 280 279
v 131 80 -36
v 152 24 -36
v 195 79 -20
v 200 65 -20
f 281 282 284 283
v -28 -114 31
v -28 -114 -36
v 18 -115 14
v 18 -115 -14
f 285 286 288 287
v 152 24 31
v 152 24 -36
v 210 -1 20
v 210 -1 -20
f 289 290 292 291
v 152 24 -36
v 149 -36 -36
v 210 -1 -20
v 210 -16 -20
f 293 294 296 295
v 149 -36 -36
v 149 -36 31
v 210 -16 -20
v 210 -16 20
f 297 298 300 299
v 124 -90 -36
v 124 -90 31
v 187 -95 -20
v 187 -95 20
f 301 302 304 303
v 149 -36 31
v 149 -36 -36
v 194 -81 20
v 194 -81 -20
f 305 306 308 307
v 149 -36 -36
v 124 -90 -36
v 194 -81 -20
v 187 -95 -20
f 309 310 312 311
v -69 -94 -36
v -69 -94 31
v -100 -61 -14
v -100 -61 14
f 313 314 316 315
v 80 -131 -36
v 80 -131 31
v 137 -160 -20
v 137 -160 20
f 317 318 320 319
v 124 -90 -36
v 80 -131 -36
v 148 -149 -20
v 137 -160 -20
f 321 322 324 323
v 124 -90 31
v 124 -90 -36
v 148 -149 20
v 148 -149 -20
f 325 326 328 327
v 24 -152 -36
v 24 -152 31
v 65 -200 -20
v 65 -200 20
f 329 330 332 331
v 80 -131 31
v 80 -131 -36
v 79 -195 20
v 79 -195 -20
f 333 334 336 335
v 80 -131 -36
v 24 -152 -36
v 79 -195 -20
v 65 -200 -20
f 337 338 340 339
v 0 0 -43
v 11 44 -43
v -23 38 -43
v -7 44 -43
f 341 342 344 343
v 36 149 -36
v -24 152 -36
v 28 114 -36
v -18 115 -36
f 345 346 348 347
v -24 152 -36
v -80 131 -36
v -18 115 -36
v -61 100 -36
f 349 350 352 351
v -80 131 -36
v -124 90 -36
v -61 100 -36
v -94 69 -36
f 353 354 356 355
v -124 90 -36
v -149 36 -36
v -94 69 -36
v -114 28 -36
f 357 358 360 359
v -149 36 -36
v -152 -24 -36
v -114 28 -36
v -115 -18 -36
f 361 362 364 363
v -152 -24 -36
v -131 -80 -36
v -115 -18 -36
v -100 -61 -36
f 365 366 368 367
v -131 -80 -36
v -90 -124 -36
v -100 -61 -36
v -69 -94 -36
f 369 370 372 371
v -90 -124 -36
v -36 -149 -36
v -69 -94 -36
v -28 -114 -36
f 373 374 376 375
v -36 -149 -36
v 24 -152 -36
v -28 -114 -36
v 18 -115 -36
f 377 378 380 379
v 24 -152 -36
v 80 -131 -36
v 18 -115 -36
v 61 -100 -36
f 381 382 384 383
v 80 -131 -36
v 124 -90 -36
v 61 -100 -36
v 94 -69 -36
f 385 386 388 387
v 149 -36 -36
v 152 24 -36
v 114 -28 -36
v 115 18 -36
f 389 390 392 391
v 152 24 -36
v 131 80 -36
v 115 18 -36
v 100 61 -36
f 393 394 396 395
v 90 124 -36
v 36 149 -36
v 69 94 -36
v 28 114 -36
f 397 398 400 399
v 131 80 -36
v 90 124 -36
v 100 61 -36
v 69 94 -36
f 401 402 404 403
v 124 -90 -36
v 149 -36 -36
v 94 -69 -36
v 114 -28 -36
f 405 406 408 407
v 38 23 -43
v 26 36 -43
v 0 0 -43
v 11 44 -43
f 409 410 412 411
v 0 0 -43
v -11 -44 -43
v 23 -38 -43
v 7 -44 -43
f 413 414 416 415
v -38 -23 -43
v -26 -36 -43
v 0 0 -43
v -11 -44 -43
f 417 418 420 419
v -23 38 -43
v -36 26 -43
v 0 0 -43
v -44 11 -43
f 421 422 424 423
v 23 -38 -43
v 36 -26 -43
v 0 0 -43
v 44 -11 -43
f 425 426 428 427
v 0 0 -43
v 44 -11 -43
v 38 23 -43
v 44 7 -43
f 429 430 432 431
v 69 94 -36
v 28 114 -36
v 69 94 31
v 28 114 31
f 433 434 436 435
v -9 60 14
v -18 115 14
v -9 60 -14
v -18 115 -14
f 437 438 440 439
v 14 59 14
v -9 60 14
v 14 59 -14
v -9 60 -14
f 441 442 444 443
v 36 49 14
v 14 59 14
v 36 49 -14
v 14 59 -14
f 445 446 448 447
v 52 32 14
v 36 49 14
v 52 32 -14
v 36 49 -14
f 449 450 452 451
v 100 61 -14
v 100 61 14
v 52 32 -14
v 52 32 14
f 453 454 456 455
v 115 18 -14
v 60 9 -14
v 115 18 14
v 60 9 14
f 457 458 460 459
v -115 -18 14
v -100 -61 14
v -115 -18 31
v -100 -61 31
f 461 462 464 463
v -18 115 14
v -61 100 14
v -18 115 31
v -61 100 31
f 465 466 468 467
v 115 18 14
v 100 61 14
v 115 18 31
v 100 61 31
f 469 470 472 471
v 18 -115 14
v 61 -100 14
v 18 -115 31
v 61 -100 31
f 473 474 476 475
v -61 100 -14
v -18 115 -14
v -61 100 -36
v -18 115 -36
f 477 478 480 479
v -100 -61 -14
v -115 -18 -14
v -100 -61 -36
v -115 -18 -36
f 481 482 484 483
v 61 -100 -14
v 18 -115 -14
v 61 -100 -36
v 18 -115 -36
f 485 486 488 487
v 100 61 -14
v 115 18 -14
v 100 61 -36
v 115 18 -36
f 489 490 492 491
v 60 9 -14
v 52 32 -14
v 44 7 -43
v 38 23 -43
f 493 494 496 495
v 59 -14 -14
v 60 9 -14
v 44 -11 -43
v 44 7 -43
f 497 498 500 499
v 49 -36 -14
v 59 -14 -14
v 36 -26 -43
v 44 -11 -43
f 501 502 504 503
v -18 115 -14
v -61 100 -14
v -9 60 -14
v -32 52 -14
f 505 506 508 507
v 32 -52 -14
v 49 -36 -14
v 23 -38 -43
v 36 -26 -43
f 509 510 512 511
v 9 -60 -14
v 32 -52 -14
v 7 -44 -43
v 23 -38 -43
f 513 514 516 515
v -14 -59 -14
v 9 -60 -14
v -11 -44 -43
v 7 -44 -43
f 517 518 520 519
v -115 -18 -14
v -100 -61 -14
v -60 -9 -14
v -52 -32 -14
f 521 522 524 523
v -36 -49 -14
v -14 -59 -14
v -26 -36 -43
v -11 -44 -43
f 525 526 528 527
v -52 -32 -14
v -36 -49 -14
v -38 -23 -43
v -26 -36 -43
f 529 530 532 531
v -60 -9 -14
v -52 -32 -14
v -44 -7 -43
v -38 -23 -43
f 533 534 536 535
v 18 -115 -14
v 61 -100 -14
v 9 -60 -14
v 32 -52 -14
f 537 538 540 539
v -59 14 -14
v -60 -9 -14
v -44 11 -43
v -44 -7 -43
f 541 542 544 543
v -49 36 -14
v -59 14 -14
v -36 26 -43
v -44 11 -43
f 545 546 548 547
v -32 52 -14
v -49 36 -14
v -23 38 -43
v -36 26 -43
f 549 550 552 551
v 115 18 -14
v 100 61 -14
v 60 9 -14
v 52 32 -14
f 553 554 556 555
v -9 60 -14
v -32 52 -14
v -7 44 -43
v -23 38 -43
f 557 558 560 559
v 14 59 -14
v -9 60 -14
v 11 44 -43
v -7 44 -43
f 561 562 564 563
v 36 49 -14
v 14 59 -14
v 26 36 -43
v 11 44 -43
f 565 566 568 567
v 114 -28 31
v 94 -69 31
v 114 -28 -36
v 94 -69 -36
f 569 570 572 571
v 52 32 -14
v 36 49 -14
v 38 23 -43
v 26 36 -43
f 573 574 576 575
v 32 -52 14
v 9 -60 14
v 23 -38 43
v 7 -44 43
f 577 578 580 579
v 49 -36 14
v 32 -52 14
v 36 -26 43
v 23 -38 43
f 581 582 584 583
v 59 -14 14
v 49 -36 14
v 44 -11 43
v 36 -26 43
f 585 586 588 587
v 60 9 14
v 59 -14 14
v 44 7 43
v 44 -11 43
f 589 590 592 591
v 52 32 14
v 60 9 14
v 38 23 43
v 44 7 43
f 593 594 596 595
v 61 -100 -14
v 61 -100 14
v 32 -52 -14
v 32 -52 14
f 597 598 600 599
v 36 49 14
v 52 32 14
v 26 36 43
v 38 23 43
f 601 602 604 603
v 14 59 14
v 36 49 14
v 11 44 43
v 26 36 43
f 605 606 608 607
v -9 60 14
v 14 59 14
v -7 44 43
v 11 44 43
f 609 610 612 611
v 59 -14 14
v 60 9 14
v 59 -14 -14
v 60 9 -14
f 613 614 616 615
v 9 -60 14
v -14 -59 14
v 7 -44 43
v -11 -44 43
f 617 618 620 619
v -14 -59 14
v -36 -49 14
v -11 -44 43
v -26 -36 43
f 621 622 624 623
v -36 -49 14
v -52 -32 14
v -26 -36 43
v -38 -23 43
f 625 626 628 627
v -52 -32 14
v -60 -9 14
v -38 -23 43
v -44 -7 43
f 629 630 632 631
v -60 -9 14
v -59 14 14
v -44 -7 43
v -44 11 43
f 633 634 636 635
v -59 14 14
v -49 36 14
v -44 11 43
v -36 26 43
f 637 638 640 639
v -49 36 14
v -32 52 14
v -36 26 43
v -23 38 43
f 641 642 644 643
v -32 52 14
v -9 60 14
v -23 38 43
v -7 44 43
f 645 646 648 647
v -60 -9 -14
v -60 -9 14
v -115 -18 -14
v -115 -18 14
f 649 650 652 651
v -59 14 -14
v -59 14 14
v -60 -9 -14
v -60 -9 14
f 653 654 656 655
v -49 36 -14
v -49 36 14
v -59 14 -14
v -59 14 14
f 657 658 660 659
v -32 52 -14
v -32 52 14
v -49 36 -14
v -49 36 14
f 661 662 664 663
v -61 100 -14
v -61 100 14
v -32 52 -14
v -32 52 14
f 665 666 668 667
v -94 69 -36
v -114 28 -36
v -94 69 31
v -114 28 31
f 669 670 672 671
v -100 -61 14
v -52 -32 14
v -100 -61 -14
v -52 -32 -14
f 673 674 676 675
v -69 -94 -36
v -28 -114 -36
v -69 -94 31
v -28 -114 31
f 677 678 680 679
v 9 -60 -14
v 9 -60 14
v 18 -115 -14
v 18 -115 14
f 681 682 684 683
v -36 -49 -14
v -36 -49 14
v -14 -59 -14
v -14 -59 14
f 685 686 688 687
v -14 -59 14
v 9 -60 14
v -14 -59 -14
v 9 -60 -14
f 689 690 692 691
v -52 -32 -14
v -52 -32 14
v -36 -49 -14
v -36 -49 14
f 693 694 696 695
v 32 -52 14
v 49 -36 14
v 32 -52 -14
v 49 -36 -14
f 697 698 700 699
v 49 -36 14
v 59 -14 14
v 49 -36 -14
v 59 -14 -14
f 701 702 704 703
v -39 0 301
v -39 0 41
v 0 39 301
v 0 39 41
f 705 706 708 707
v -39 0 41
v 0 -39 41
v 0 39 41
v 39 0 41
f 709 710 712 711
v 0 -39 41
v 0 -39 301
v 39 0 41
v 39 0 301
f 713 714 716 715
v 0 -39 301
v 0 -39 41
v -39 0 301
v -39 0 41
f 717 718 720 719
v 0 39 301
v 0 39 41
v 39 0 301
v 39 0 41
f 721 722 724 723
