# RE2-Welt-Item-Modell mesh030 md5=ecf38671014658901915d43a129a42be (H. Gun Parts, Shotgun Parts)
v -630 0 0
v -630 -234 0
v -630 0 -272
v -630 -234 -272
f 1 2 4 3
v 0 -234 -272
v 630 -234 -272
v 0 0 -272
v 630 0 -272
f 5 6 8 7
v 630 -234 0
v 630 -234 272
v 630 0 0
v 630 0 272
f 9 10 12 11
v 0 -234 272
v -630 -234 272
v 0 0 272
v -630 0 272
f 13 14 16 15
v -630 -234 0
v -630 -234 272
v 0 -234 0
v 0 -234 272
f 17 18 20 19
v 0 -234 0
v 0 -234 272
v 630 -234 0
v 630 -234 272
f 21 22 24 23
v 0 0 272
v 630 0 272
v 0 -234 272
v 630 -234 272
f 25 26 28 27
v 0 0 -272
v -630 0 -272
v 0 -234 -272
v -630 -234 -272
f 29 30 32 31
v 0 -234 0
v 0 -234 -272
v -630 -234 0
v -630 -234 -272
f 33 34 36 35
v 630 -234 0
v 630 -234 -272
v 0 -234 0
v 0 -234 -272
f 37 38 40 39
v -630 0 0
v -630 0 272
v -630 -234 0
v -630 -234 272
f 41 42 44 43
v 630 0 0
v 630 0 -272
v 630 -234 0
v 630 -234 -272
f 45 46 48 47
