# RE2-Welt-Item-Modell mesh041 md5=24185873136026c6a3b80d76a2d6bbb6 (Valve Handle)
v -50 -130 -87
v 50 -130 -87
v -50 0 -87
v 50 0 -87
f 1 2 4 3
v 100 -130 0
v 50 -130 87
v 100 0 0
v 50 0 87
f 5 6 8 7
v -100 -130 0
v -50 -130 -87
v -100 0 0
v -50 0 -87
f 9 10 12 11
v 50 -130 -87
v 100 -130 0
v 50 0 -87
v 100 0 0
f 13 14 16 15
v 50 -130 87
v -50 -130 87
v 50 0 87
v -50 0 87
f 17 18 20 19
v -50 -130 87
v -100 -130 0
v -50 0 87
v -100 0 0
f 21 22 24 23
v -100 -130 0
v -50 -130 87
v 100 -130 0
v 50 -130 87
f 25 26 28 27
v -100 -130 0
v 100 -130 0
v -50 -130 -87
v 50 -130 -87
f 29 30 32 31
v -28 -369 -346
v -27 -369 -34
v -1 -397 -346
v -1 -397 -34
f 33 34 36 35
v -1 -397 -34
v 27 -370 -34
v -1 -397 -346
v 26 -370 -346
f 37 38 40 39
v 279 -397 162
v 292 -369 139
v 30 -397 17
v 43 -369 -6
f 41 42 44 43
v 265 -370 186
v 279 -397 162
v 16 -370 40
v 30 -397 17
f 45 46 48 47
v -280 -397 160
v -267 -369 183
v -29 -397 17
v -16 -369 40
f 49 50 52 51
v -294 -370 136
v -280 -397 160
v -43 -370 -7
v -29 -397 17
f 53 54 56 55
v 288 -349 288
v 408 -349 0
v 238 -411 238
v 336 -411 0
f 57 58 60 59
v 336 -328 0
v 238 -328 238
v 336 -411 0
v 238 -411 238
f 61 62 64 63
v 238 -328 -238
v 336 -328 0
v 238 -411 -238
v 336 -411 0
f 65 66 68 67
v 0 -349 408
v 288 -349 288
v 0 -411 336
v 238 -411 238
f 69 70 72 71
v 238 -328 238
v 0 -328 336
v 238 -411 238
v 0 -411 336
f 73 74 76 75
v 408 -349 0
v 288 -349 -288
v 336 -411 0
v 238 -411 -238
f 77 78 80 79
v -288 -349 288
v 0 -349 408
v -238 -411 238
v 0 -411 336
f 81 82 84 83
v 0 -328 336
v -238 -328 238
v 0 -411 336
v -238 -411 238
f 85 86 88 87
v 0 -328 -336
v 238 -328 -238
v 0 -411 -336
v 238 -411 -238
f 89 90 92 91
v -408 -349 0
v -288 -349 288
v -336 -411 0
v -238 -411 238
f 93 94 96 95
v -238 -328 238
v -336 -328 0
v -238 -411 238
v -336 -411 0
f 97 98 100 99
v 288 -349 -288
v 0 -349 -408
v 238 -411 -238
v 0 -411 -336
f 101 102 104 103
v -288 -349 -288
v -408 -349 0
v -238 -411 -238
v -336 -411 0
f 105 106 108 107
v -336 -328 0
v -238 -328 -238
v -336 -411 0
v -238 -411 -238
f 109 110 112 111
v -238 -328 -238
v 0 -328 -336
v -238 -411 -238
v 0 -411 -336
f 113 114 116 115
v 0 -349 -408
v -288 -349 -288
v 0 -411 -336
v -238 -411 -238
f 117 118 120 119
v -45 -401 50
v -45 -401 -50
v -45 -110 50
v -45 -110 -50
f 121 122 124 123
v -45 -401 -50
v 45 -401 -50
v -45 -110 -50
v 45 -110 -50
f 125 126 128 127
v 45 -401 -50
v 45 -401 50
v 45 -110 -50
v 45 -110 50
f 129 130 132 131
v 45 -401 50
v -45 -401 50
v 45 -110 50
v -45 -110 50
f 133 134 136 135
v 45 -401 50
v 45 -401 -50
v -45 -401 50
v -45 -401 -50
f 137 138 140 139
