# RE2-Welt-Item-Modell mesh054 md5=1b6143c153f68119e2ed0c9cdf70c4bc (Manhole Opener)
v -40 503 9
v -58 507 8
v -28 538 10
f 1 2 3
v -40 503 -9
v -58 507 -8
v -83 413 -5
f 4 5 6
v -58 507 -8
v -40 503 -9
v -28 538 -10
f 7 8 9
v -58 507 8
v -40 503 9
v -83 413 5
f 10 11 12
v -12 -18 11
v -12 -18 -11
v -12 486 11
v -12 486 -11
f 13 14 16 15
v 14 -18 -11
v 13 500 -11
v -12 -18 -11
v -12 486 -11
f 17 18 20 19
v 14 -18 -11
v 14 -18 11
v 13 500 -11
v 13 500 11
f 21 22 24 23
v 14 -18 11
v -12 -18 11
v 13 500 11
v -12 486 11
f 25 26 28 27
v -58 507 8
v -83 413 5
v -58 507 -8
v -83 413 -5
f 29 30 32 31
v 14 -18 11
v 14 -18 -11
v -12 -18 11
v -12 -18 -11
f 33 34 36 35
v -22 508 -10
v -40 503 -9
v -22 508 10
v -40 503 9
f 37 38 40 39
v -1 526 10
v -28 538 10
v -1 526 -10
v -28 538 -10
f 41 42 44 43
v -28 538 10
v -1 526 10
v -40 503 9
v -22 508 10
f 45 46 48 47
v -40 503 9
v -40 503 -9
v -83 413 5
v -83 413 -5
f 49 50 52 51
v 13 500 -11
v -1 526 -10
v -12 486 -11
v -22 508 -10
f 53 54 56 55
v 13 500 -11
v 13 500 11
v -1 526 -10
v -1 526 10
f 57 58 60 59
v 13 500 11
v -12 486 11
v -1 526 10
v -22 508 10
f 61 62 64 63
v -28 538 -10
v -28 538 10
v -58 507 -8
v -58 507 8
f 65 66 68 67
v -12 486 11
v -12 486 -11
v -22 508 10
v -22 508 -10
f 69 70 72 71
v -28 538 -10
v -40 503 -9
v -1 526 -10
v -22 508 -10
f 73 74 76 75
