# Wavefront OBJ exported by RE2MV
#
# object Object_0 to come ...
#
v  0.000000 -0.040000 2.880000
v  71.959999 -0.040000 2.880000
v  0.000000 131.979996 2.880000
v  71.959999 131.979996 2.880000
v  0.000000 -0.040000 -2.860000
v  71.959999 -0.040000 -2.860000
v  0.000000 131.979996 -2.860000
v  71.959999 131.979996 -2.860000
# 8 vertices

vt  0.000000 0.149020
vt  0.000000 1.000000
vt  0.984375 0.149020
vt  0.000000 1.000000
vt  0.984375 1.000000
vt  0.984375 0.149020
vt  0.992188 0.149020
vt  0.992188 1.000000
vt  0.968750 0.149020
vt  0.992188 1.000000
vt  0.968750 1.000000
vt  0.968750 0.149020
vt  0.984375 0.149020
vt  0.984375 1.000000
vt  0.000000 0.149020
vt  0.984375 1.000000
vt  0.000000 1.000000
vt  0.000000 0.149020
vt  0.960938 1.000000
vt  0.007813 1.000000
vt  0.960938 0.984314
vt  0.007813 1.000000
vt  0.007813 0.984314
vt  0.960938 0.984314
vt  0.992188 0.149020
vt  0.968750 0.149020
vt  0.992188 1.000000
vt  0.968750 0.149020
vt  0.968750 1.000000
vt  0.992188 1.000000
vt  0.960938 0.984314
vt  0.007813 0.984314
vt  0.960938 1.000000
vt  0.007813 0.984314
vt  0.007813 1.000000
vt  0.960938 1.000000
# 36 texture coordinates

vn  0.000000 0.000000 0.957514
vn  0.000000 0.000000 0.957514
vn  0.856502 -0.428368 0.000000
vn  0.428134 -0.856735 0.000000
vn  0.856502 0.428134 0.000000
vn  0.856502 -0.428368 0.000000
vn  0.856502 0.428134 0.000000
vn  0.428134 0.856502 0.000000
vn  0.000000 0.000000 -0.957748
vn  0.000000 0.000000 -0.957748
vn  0.428134 0.856502 0.000000
vn  0.856502 0.428134 0.000000
vn  -0.677158 0.676924 0.000000
vn  0.428134 0.856502 0.000000
vn  -0.677158 0.676924 0.000000
vn  -0.677158 0.676924 0.000000
vn  -0.677158 -0.677158 0.000000
vn  -0.677158 0.676924 0.000000
vn  -0.677158 -0.677158 0.000000
vn  0.428134 -0.856735 0.000000
vn  0.856502 -0.428368 0.000000
vn  -0.677158 -0.677158 0.000000
vn  0.428134 -0.856735 0.000000
vn  -0.677158 -0.677158 0.000000
# 24 vertex normals

g Object_0
s 1
f 2/1/1 4/2/1 1/3/1
f 4/4/2 3/5/2 1/6/2
f 6/7/4 8/8/5 2/9/3
f 8/10/7 4/11/8 2/12/6
f 5/13/9 7/14/9 6/15/9
f 7/16/10 8/17/10 6/18/10
f 8/19/12 7/20/13 4/21/11
f 7/22/15 3/23/15 4/24/14
f 5/25/17 1/26/17 7/27/16
f 1/28/19 3/29/18 7/30/18
f 2/31/21 1/32/22 6/33/20
f 1/34/24 5/35/24 6/36/23
# 12 faces

g
v  -1.200000 0.000000 0.000000
v  -1.200000 0.000000 -3.600000
v  -1.200000 -3.600000 -3.600000
v  -1.200000 -3.600000 0.000000
v  -1.200000 -3.000000 0.000000
v  -1.200000 -3.000000 -3.000000
v  -1.200000 -0.600000 -3.000000
v  -1.200000 -0.600000 0.000000
v  0.000000 0.000000 0.000000
v  0.000000 0.000000 -3.600000
v  0.000000 -3.600000 -3.600000
v  0.000000 -3.600000 0.000000
v  0.000000 -3.000000 0.000000
v  0.000000 -3.000000 -3.000000
v  0.000000 -0.600000 -3.000000
v  0.000000 -0.600000 0.000000
# 16 vertices

vt  0.375000 0.086275
vt  0.343750 0.086275
vt  0.375000 0.133333
vt  0.375000 0.145098
vt  0.375000 0.145098
vt  0.343750 0.145098
vt  0.375000 0.074510
vt  0.375000 0.145098
vt  0.343750 0.074510
vt  0.343750 0.074510
vt  0.375000 0.074510
vt  0.343750 0.074510
vt  0.343750 0.145098
vt  0.343750 0.074510
vt  0.375000 0.145098
vt  0.375000 0.086275
vt  0.375000 0.086275
vt  0.343750 0.086275
vt  0.343750 0.133333
vt  0.375000 0.133333
vt  0.343750 0.086275
vt  0.343750 0.133333
vt  0.375000 0.133333
vt  0.343750 0.133333
vt  0.375000 0.086275
vt  0.375000 0.086275
vt  0.375000 0.074510
vt  0.343750 0.086275
vt  0.343750 0.074510
vt  0.343750 0.086275
vt  0.343750 0.145098
vt  0.343750 0.133333
vt  0.343750 0.145098
vt  0.343750 0.145098
vt  0.343750 0.133333
vt  0.343750 0.074510
vt  0.375000 0.145098
vt  0.375000 0.145098
vt  0.375000 0.133333
vt  0.375000 0.086275
vt  0.375000 0.133333
vt  0.375000 0.074510
vt  0.375000 0.145098
vt  0.375000 0.074510
vt  0.375000 0.133333
vt  0.343750 0.086275
vt  0.343750 0.074510
vt  0.343750 0.133333
vt  0.375000 0.133333
vt  0.343750 0.133333
vt  0.375000 0.133333
vt  0.343750 0.086275
vt  0.343750 0.086275
vt  0.375000 0.086275
vt  0.375000 0.074510
vt  0.343750 0.074510
vt  0.375000 0.074510
vt  0.343750 0.074510
vt  0.343750 0.086275
vt  0.343750 0.074510
vt  0.375000 0.074510
vt  0.375000 0.074510
vt  0.375000 0.086275
vt  0.343750 0.145098
vt  0.343750 0.145098
vt  0.375000 0.145098
vt  0.375000 0.133333
vt  0.375000 0.133333
vt  0.375000 0.145098
vt  0.343750 0.133333
vt  0.343750 0.145098
vt  0.343750 0.133333
# 72 texture coordinates

vn  0.000000 0.000000 0.957514
vn  0.000000 0.957514 0.000000
vn  0.000000 0.000000 -0.957748
vn  0.000000 -0.957748 0.000000
vn  0.000000 0.000000 -0.957748
vn  0.000000 0.957514 0.000000
vn  0.000000 0.000000 0.957514
vn  0.000000 -0.957748 0.000000
vn  -0.957748 0.000000 0.000000
vn  0.957514 0.000000 0.000000
vn  0.957514 0.000000 0.000000
vn  0.957514 0.000000 0.000000
vn  -0.957748 0.000000 0.000000
vn  -0.957748 0.000000 0.000000
vn  -0.957748 0.000000 0.000000
vn  0.957514 0.000000 0.000000
vn  0.000000 -0.957748 0.000000
vn  0.000000 0.957514 0.000000
vn  0.000000 -0.957748 0.000000
vn  0.957514 0.000000 0.000000
vn  -0.957748 0.000000 0.000000
vn  0.000000 0.957514 0.000000
vn  -0.957748 0.000000 0.000000
vn  0.957514 0.000000 0.000000
# 24 vertex normals

g Object_1
s 1
f 14/37/25 22/38/25 15/39/25
f 10/40/26 9/41/26 18/42/26
f 11/43/27 10/44/27 19/45/27
f 20/46/28 12/47/28 19/48/28
f 18/49/29 19/50/29 10/51/29
f 14/52/30 13/53/30 22/54/30
f 23/55/31 15/56/31 22/57/31
f 24/58/32 16/59/32 23/60/32
f 13/61/33 14/62/33 12/63/33
f 21/64/34 20/65/34 22/66/34
f 17/67/35 24/68/35 18/69/35
f 18/70/36 23/71/36 19/72/36
f 9/73/37 10/74/37 16/75/37
f 14/76/38 15/77/38 11/78/38
f 10/79/39 11/80/39 15/81/39
f 22/82/40 19/83/40 23/84/40
f 15/85/41 23/86/41 16/87/41
f 21/88/42 22/89/42 13/90/42
f 11/91/43 19/92/43 12/93/43
f 19/94/44 22/95/44 20/96/44
f 11/97/45 12/98/45 14/99/45
f 17/100/46 18/101/46 9/102/46
f 15/103/47 16/104/47 10/105/47
f 23/106/48 18/107/48 24/108/48
# 24 faces

g
v  0.000000 0.580000 0.000000
v  0.000000 0.280000 0.500000
v  0.000000 -0.300000 0.500000
v  0.000000 -0.600000 0.000000
v  0.000000 -0.300000 -0.520000
v  0.000000 0.280000 -0.520000
v  -3.820000 -0.980000 0.000000
v  -3.600000 -1.180000 0.500000
v  -3.180000 -1.620000 0.500000
v  -2.960000 -1.820000 0.000000
v  -3.180000 -1.620000 -0.520000
v  -3.600000 -1.180000 -0.520000
v  -5.400000 -4.800000 0.000000
v  -5.100000 -4.800000 0.500000
v  -4.500000 -4.800000 0.500000
v  -4.200000 -4.800000 0.000000
v  -4.500000 -4.800000 -0.520000
v  -5.100000 -4.800000 -0.520000
v  -3.820000 -8.620000 0.000000
v  -3.600000 -8.400000 0.500000
v  -3.180000 -7.980000 0.500000
v  -2.960000 -7.760000 0.000000
v  -3.180000 -7.980000 -0.520000
v  -3.600000 -8.400000 -0.520000
v  0.000000 -10.200000 0.000000
v  0.000000 -9.900000 0.500000
v  0.000000 -9.300000 0.500000
v  0.000000 -9.000000 0.000000
v  0.000000 -9.300000 -0.520000
v  0.000000 -9.900000 -0.520000
v  3.800000 -8.620000 0.000000
v  3.580000 -8.400000 0.500000
v  3.160000 -7.980000 0.500000
v  2.940000 -7.760000 0.000000
v  3.160000 -7.980000 -0.520000
v  3.580000 -8.400000 -0.520000
v  5.380000 -4.800000 0.000000
v  5.080000 -4.800000 0.500000
v  4.480000 -4.800000 0.500000
v  4.180000 -4.800000 0.000000
v  4.480000 -4.800000 -0.520000
v  5.080000 -4.800000 -0.520000
v  3.800000 -0.980000 0.000000
v  3.580000 -1.180000 0.500000
v  3.160000 -1.620000 0.500000
v  2.940000 -1.820000 0.000000
v  3.160000 -1.620000 -0.520000
v  3.580000 -1.180000 -0.520000
# 48 vertices

vt  0.031250 0.117647
vt  0.039063 0.117647
vt  0.000000 0.070588
vt  0.039063 0.117647
vt  0.007813 0.070588
vt  0.000000 0.070588
vt  0.039063 0.117647
vt  0.046875 0.109804
vt  0.007813 0.070588
vt  0.046875 0.109804
vt  0.015625 0.074510
vt  0.007813 0.070588
vt  0.046875 0.109804
vt  0.054688 0.109804
vt  0.015625 0.074510
vt  0.054688 0.109804
vt  0.023438 0.074510
vt  0.015625 0.074510
vt  0.054688 0.109804
vt  0.046875 0.109804
vt  0.023438 0.074510
vt  0.046875 0.109804
vt  0.015625 0.074510
vt  0.023438 0.074510
vt  0.046875 0.109804
vt  0.039063 0.117647
vt  0.015625 0.074510
vt  0.039063 0.117647
vt  0.007813 0.070588
vt  0.015625 0.074510
vt  0.039063 0.117647
vt  0.031250 0.117647
vt  0.007813 0.070588
vt  0.031250 0.117647
vt  0.000000 0.070588
vt  0.007813 0.070588
vt  0.125000 0.137255
vt  0.125000 0.133333
vt  0.031250 0.117647
vt  0.125000 0.133333
vt  0.039063 0.117647
vt  0.031250 0.117647
vt  0.125000 0.133333
vt  0.125000 0.129412
vt  0.039063 0.117647
vt  0.125000 0.129412
vt  0.046875 0.109804
vt  0.039063 0.117647
vt  0.125000 0.129412
vt  0.125000 0.125490
vt  0.046875 0.109804
vt  0.125000 0.125490
vt  0.054688 0.109804
vt  0.046875 0.109804
vt  0.125000 0.125490
vt  0.125000 0.129412
vt  0.054688 0.109804
vt  0.125000 0.129412
vt  0.046875 0.109804
vt  0.054688 0.109804
vt  0.125000 0.129412
vt  0.125000 0.133333
vt  0.046875 0.109804
vt  0.125000 0.133333
vt  0.039063 0.117647
vt  0.046875 0.109804
vt  0.125000 0.133333
vt  0.125000 0.137255
vt  0.039063 0.117647
vt  0.125000 0.137255
vt  0.031250 0.117647
vt  0.039063 0.117647
vt  0.218750 0.117647
vt  0.210938 0.117647
vt  0.125000 0.137255
vt  0.210938 0.117647
vt  0.125000 0.133333
vt  0.125000 0.137255
vt  0.210938 0.117647
vt  0.195313 0.109804
vt  0.125000 0.133333
vt  0.195313 0.109804
vt  0.125000 0.129412
vt  0.125000 0.133333
vt  0.195313 0.109804
vt  0.195313 0.109804
vt  0.125000 0.129412
vt  0.195313 0.109804
vt  0.125000 0.125490
vt  0.125000 0.129412
vt  0.195313 0.109804
vt  0.195313 0.109804
vt  0.125000 0.125490
vt  0.195313 0.109804
vt  0.125000 0.129412
vt  0.125000 0.125490
vt  0.195313 0.109804
vt  0.210938 0.117647
vt  0.125000 0.129412
vt  0.210938 0.117647
vt  0.125000 0.133333
vt  0.125000 0.129412
vt  0.210938 0.117647
vt  0.218750 0.117647
vt  0.125000 0.133333
vt  0.218750 0.117647
vt  0.125000 0.137255
vt  0.125000 0.133333
vt  0.250000 0.074510
vt  0.242188 0.074510
vt  0.218750 0.117647
vt  0.242188 0.074510
vt  0.210938 0.117647
vt  0.218750 0.117647
vt  0.242188 0.074510
vt  0.226563 0.074510
vt  0.210938 0.117647
vt  0.226563 0.074510
vt  0.195313 0.109804
vt  0.210938 0.117647
vt  0.226563 0.074510
vt  0.226563 0.074510
vt  0.195313 0.109804
vt  0.226563 0.074510
vt  0.195313 0.109804
vt  0.195313 0.109804
vt  0.226563 0.074510
vt  0.226563 0.074510
vt  0.195313 0.109804
vt  0.226563 0.074510
vt  0.195313 0.109804
vt  0.195313 0.109804
vt  0.226563 0.074510
vt  0.242188 0.074510
vt  0.195313 0.109804
vt  0.242188 0.074510
vt  0.210938 0.117647
vt  0.195313 0.109804
vt  0.242188 0.074510
vt  0.250000 0.074510
vt  0.210938 0.117647
vt  0.250000 0.074510
vt  0.218750 0.117647
vt  0.210938 0.117647
vt  0.218750 0.023529
vt  0.210938 0.027451
vt  0.250000 0.074510
vt  0.210938 0.027451
vt  0.242188 0.074510
vt  0.250000 0.074510
vt  0.210938 0.027451
vt  0.195313 0.031373
vt  0.242188 0.074510
vt  0.195313 0.031373
vt  0.226563 0.074510
vt  0.242188 0.074510
vt  0.195313 0.031373
vt  0.195313 0.035294
vt  0.226563 0.074510
vt  0.195313 0.035294
vt  0.226563 0.074510
vt  0.226563 0.074510
vt  0.195313 0.035294
vt  0.195313 0.031373
vt  0.226563 0.074510
vt  0.195313 0.031373
vt  0.226563 0.074510
vt  0.226563 0.074510
vt  0.195313 0.031373
vt  0.210938 0.027451
vt  0.226563 0.074510
vt  0.210938 0.027451
vt  0.242188 0.074510
vt  0.226563 0.074510
vt  0.210938 0.027451
vt  0.218750 0.023529
vt  0.242188 0.074510
vt  0.218750 0.023529
vt  0.250000 0.074510
vt  0.242188 0.074510
vt  0.125000 0.003922
vt  0.125000 0.007843
vt  0.218750 0.023529
vt  0.125000 0.007843
vt  0.210938 0.027451
vt  0.218750 0.023529
vt  0.125000 0.007843
vt  0.125000 0.015686
vt  0.210938 0.027451
vt  0.125000 0.015686
vt  0.195313 0.031373
vt  0.210938 0.027451
vt  0.125000 0.015686
vt  0.125000 0.019608
vt  0.195313 0.031373
vt  0.125000 0.019608
vt  0.195313 0.035294
vt  0.195313 0.031373
vt  0.125000 0.019608
vt  0.125000 0.015686
vt  0.195313 0.035294
vt  0.125000 0.015686
vt  0.195313 0.031373
vt  0.195313 0.035294
vt  0.125000 0.015686
vt  0.125000 0.007843
vt  0.195313 0.031373
vt  0.125000 0.007843
vt  0.210938 0.027451
vt  0.195313 0.031373
vt  0.125000 0.007843
vt  0.125000 0.003922
vt  0.210938 0.027451
vt  0.125000 0.003922
vt  0.218750 0.023529
vt  0.210938 0.027451
vt  0.031250 0.023529
vt  0.039063 0.027451
vt  0.125000 0.003922
vt  0.039063 0.027451
vt  0.125000 0.007843
vt  0.125000 0.003922
vt  0.039063 0.027451
vt  0.046875 0.031373
vt  0.125000 0.007843
vt  0.046875 0.031373
vt  0.125000 0.015686
vt  0.125000 0.007843
vt  0.046875 0.031373
vt  0.054688 0.035294
vt  0.125000 0.015686
vt  0.054688 0.035294
vt  0.125000 0.019608
vt  0.125000 0.015686
vt  0.054688 0.035294
vt  0.046875 0.031373
vt  0.125000 0.019608
vt  0.046875 0.031373
vt  0.125000 0.015686
vt  0.125000 0.019608
vt  0.046875 0.031373
vt  0.039063 0.027451
vt  0.125000 0.015686
vt  0.039063 0.027451
vt  0.125000 0.007843
vt  0.125000 0.015686
vt  0.039063 0.027451
vt  0.031250 0.023529
vt  0.125000 0.007843
vt  0.031250 0.023529
vt  0.125000 0.003922
vt  0.125000 0.007843
vt  0.000000 0.070588
vt  0.007813 0.070588
vt  0.031250 0.023529
vt  0.007813 0.070588
vt  0.039063 0.027451
vt  0.031250 0.023529
vt  0.007813 0.070588
vt  0.015625 0.074510
vt  0.039063 0.027451
vt  0.015625 0.074510
vt  0.046875 0.031373
vt  0.039063 0.027451
vt  0.015625 0.074510
vt  0.023438 0.074510
vt  0.046875 0.031373
vt  0.023438 0.074510
vt  0.054688 0.035294
vt  0.046875 0.031373
vt  0.023438 0.074510
vt  0.015625 0.074510
vt  0.054688 0.035294
vt  0.015625 0.074510
vt  0.046875 0.031373
vt  0.054688 0.035294
vt  0.015625 0.074510
vt  0.007813 0.070588
vt  0.046875 0.031373
vt  0.007813 0.070588
vt  0.039063 0.027451
vt  0.046875 0.031373
vt  0.007813 0.070588
vt  0.000000 0.070588
vt  0.039063 0.027451
vt  0.000000 0.070588
vt  0.031250 0.023529
vt  0.039063 0.027451
# 288 texture coordinates

vn  0.000000 0.957514 0.000000
vn  -0.677158 0.676924 0.000000
vn  -0.586433 0.586200 0.478640
vn  0.000000 0.957514 0.000000
vn  -0.586433 0.586200 0.478640
vn  0.000000 0.829144 0.478640
vn  0.000000 0.000000 0.957514
vn  0.000000 0.000000 0.957514
vn  0.000000 -0.829378 0.478640
vn  0.586200 -0.586433 0.478640
vn  0.676924 -0.677158 0.000000
vn  0.000000 -0.829378 0.478640
vn  0.676924 -0.677158 0.000000
vn  0.000000 -0.957748 0.000000
vn  0.000000 -0.957748 0.000000
vn  0.676924 -0.677158 0.000000
vn  0.586200 -0.586433 -0.478874
vn  0.000000 -0.957748 0.000000
vn  0.586200 -0.586433 -0.478874
vn  0.000000 -0.829378 -0.478874
vn  0.000000 0.000000 -0.957748
vn  0.000000 0.000000 -0.957748
vn  0.000000 0.829144 -0.478874
vn  -0.586433 0.586200 -0.478874
vn  -0.677158 0.676924 0.000000
vn  0.000000 0.829144 -0.478874
vn  -0.677158 0.676924 0.000000
vn  0.000000 0.957514 0.000000
vn  -0.677158 0.676924 0.000000
vn  -0.957748 0.000000 0.000000
vn  -0.829378 0.000000 0.478640
vn  -0.677158 0.676924 0.000000
vn  -0.829378 0.000000 0.478640
vn  -0.586433 0.586200 0.478640
vn  0.000000 0.000000 0.957514
vn  0.000000 0.000000 0.957514
vn  0.586200 -0.586433 0.478640
vn  0.829144 0.000000 0.478640
vn  0.957514 0.000000 0.000000
vn  0.586200 -0.586433 0.478640
vn  0.957514 0.000000 0.000000
vn  0.676924 -0.677158 0.000000
vn  0.676924 -0.677158 0.000000
vn  0.957514 0.000000 0.000000
vn  0.829144 0.000000 -0.478874
vn  0.676924 -0.677158 0.000000
vn  0.829144 0.000000 -0.478874
vn  0.586200 -0.586433 -0.478874
vn  0.000000 0.000000 -0.957748
vn  0.000000 0.000000 -0.957748
vn  -0.586433 0.586200 -0.478874
vn  -0.829378 0.000000 -0.478874
vn  -0.957748 0.000000 0.000000
vn  -0.586433 0.586200 -0.478874
vn  -0.957748 0.000000 0.000000
vn  -0.677158 0.676924 0.000000
vn  -0.957748 0.000000 0.000000
vn  -0.677158 -0.677158 0.000000
vn  -0.586433 -0.586433 0.478640
vn  -0.957748 0.000000 0.000000
vn  -0.586433 -0.586433 0.478640
vn  -0.829378 0.000000 0.478640
vn  0.000000 0.000000 0.957514
vn  0.000000 0.000000 0.957514
vn  0.829144 0.000000 0.478640
vn  0.586200 0.586200 0.478640
vn  0.676924 0.676924 0.000000
vn  0.829144 0.000000 0.478640
vn  0.676924 0.676924 0.000000
vn  0.957514 0.000000 0.000000
vn  0.957514 0.000000 0.000000
vn  0.676924 0.676924 0.000000
vn  0.586200 0.586200 -0.478874
vn  0.957514 0.000000 0.000000
vn  0.586200 0.586200 -0.478874
vn  0.829144 0.000000 -0.478874
vn  0.000000 0.000000 -0.957748
vn  0.000000 0.000000 -0.957748
vn  -0.829378 0.000000 -0.478874
vn  -0.586433 -0.586433 -0.478874
vn  -0.677158 -0.677158 0.000000
vn  -0.829378 0.000000 -0.478874
vn  -0.677158 -0.677158 0.000000
vn  -0.957748 0.000000 0.000000
vn  -0.677158 -0.677158 0.000000
vn  0.000000 -0.957748 0.000000
vn  0.000000 -0.829378 0.478640
vn  -0.677158 -0.677158 0.000000
vn  0.000000 -0.829378 0.478640
vn  -0.586433 -0.586433 0.478640
vn  0.000000 0.000000 0.957514
vn  0.000000 0.000000 0.957514
vn  0.586200 0.586200 0.478640
vn  0.000000 0.829144 0.478640
vn  0.000000 0.957514 0.000000
vn  0.586200 0.586200 0.478640
vn  0.000000 0.957514 0.000000
vn  0.676924 0.676924 0.000000
vn  0.676924 0.676924 0.000000
vn  0.000000 0.957514 0.000000
vn  0.000000 0.829144 -0.478874
vn  0.676924 0.676924 0.000000
vn  0.000000 0.829144 -0.478874
vn  0.586200 0.586200 -0.478874
vn  0.000000 0.000000 -0.957748
vn  0.000000 0.000000 -0.957748
vn  -0.586433 -0.586433 -0.478874
vn  0.000000 -0.829378 -0.478874
vn  0.000000 -0.957748 0.000000
vn  -0.586433 -0.586433 -0.478874
vn  0.000000 -0.957748 0.000000
vn  -0.677158 -0.677158 0.000000
vn  0.000000 -0.957748 0.000000
vn  0.676924 -0.677158 0.000000
vn  0.586200 -0.586433 0.478640
vn  0.000000 -0.957748 0.000000
vn  0.586200 -0.586433 0.478640
vn  0.000000 -0.829378 0.478640
vn  0.000000 0.000000 0.957514
vn  0.000000 0.000000 0.957514
vn  0.000000 0.829144 0.478640
vn  -0.586433 0.586200 0.478640
vn  -0.677158 0.676924 0.000000
vn  0.000000 0.829144 0.478640
vn  -0.677158 0.676924 0.000000
vn  0.000000 0.957514 0.000000
vn  0.000000 0.957514 0.000000
vn  -0.677158 0.676924 0.000000
vn  -0.586433 0.586200 -0.478874
vn  0.000000 0.957514 0.000000
vn  -0.586433 0.586200 -0.478874
vn  0.000000 0.829144 -0.478874
vn  0.000000 0.000000 -0.957748
vn  0.000000 0.000000 -0.957748
vn  0.000000 -0.829378 -0.478874
vn  0.586200 -0.586433 -0.478874
vn  0.676924 -0.677158 0.000000
vn  0.000000 -0.829378 -0.478874
vn  0.676924 -0.677158 0.000000
vn  0.000000 -0.957748 0.000000
vn  0.676924 -0.677158 0.000000
vn  0.957514 0.000000 0.000000
vn  0.829144 0.000000 0.478640
vn  0.676924 -0.677158 0.000000
vn  0.829144 0.000000 0.478640
vn  0.586200 -0.586433 0.478640
vn  0.000000 0.000000 0.957514
vn  0.000000 0.000000 0.957514
vn  -0.586433 0.586200 0.478640
vn  -0.829378 0.000000 0.478640
vn  -0.957748 0.000000 0.000000
vn  -0.586433 0.586200 0.478640
vn  -0.957748 0.000000 0.000000
vn  -0.677158 0.676924 0.000000
vn  -0.677158 0.676924 0.000000
vn  -0.957748 0.000000 0.000000
vn  -0.829378 0.000000 -0.478874
vn  -0.677158 0.676924 0.000000
vn  -0.829378 0.000000 -0.478874
vn  -0.586433 0.586200 -0.478874
vn  0.000000 0.000000 -0.957748
vn  0.000000 0.000000 -0.957748
vn  0.586200 -0.586433 -0.478874
vn  0.829144 0.000000 -0.478874
vn  0.957514 0.000000 0.000000
vn  0.586200 -0.586433 -0.478874
vn  0.957514 0.000000 0.000000
vn  0.676924 -0.677158 0.000000
vn  0.957514 0.000000 0.000000
vn  0.676924 0.676924 0.000000
vn  0.586200 0.586200 0.478640
vn  0.957514 0.000000 0.000000
vn  0.586200 0.586200 0.478640
vn  0.829144 0.000000 0.478640
vn  0.000000 0.000000 0.957514
vn  0.000000 0.000000 0.957514
vn  -0.829378 0.000000 0.478640
vn  -0.586433 -0.586433 0.478640
vn  -0.677158 -0.677158 0.000000
vn  -0.829378 0.000000 0.478640
vn  -0.677158 -0.677158 0.000000
vn  -0.957748 0.000000 0.000000
vn  -0.957748 0.000000 0.000000
vn  -0.677158 -0.677158 0.000000
vn  -0.586433 -0.586433 -0.478874
vn  -0.957748 0.000000 0.000000
vn  -0.586433 -0.586433 -0.478874
vn  -0.829378 0.000000 -0.478874
vn  0.000000 0.000000 -0.957748
vn  0.000000 0.000000 -0.957748
vn  0.829144 0.000000 -0.478874
vn  0.586200 0.586200 -0.478874
vn  0.676924 0.676924 0.000000
vn  0.829144 0.000000 -0.478874
vn  0.676924 0.676924 0.000000
vn  0.957514 0.000000 0.000000
vn  0.676924 0.676924 0.000000
vn  0.000000 0.957514 0.000000
vn  0.000000 0.829144 0.478640
vn  0.676924 0.676924 0.000000
vn  0.000000 0.829144 0.478640
vn  0.586200 0.586200 0.478640
vn  0.000000 0.000000 0.957514
vn  0.000000 0.000000 0.957514
vn  -0.586433 -0.586433 0.478640
vn  0.000000 -0.829378 0.478640
vn  0.000000 -0.957748 0.000000
vn  -0.586433 -0.586433 0.478640
vn  0.000000 -0.957748 0.000000
vn  -0.677158 -0.677158 0.000000
vn  -0.677158 -0.677158 0.000000
vn  0.000000 -0.957748 0.000000
vn  0.000000 -0.829378 -0.478874
vn  -0.677158 -0.677158 0.000000
vn  0.000000 -0.829378 -0.478874
vn  -0.586433 -0.586433 -0.478874
vn  0.000000 0.000000 -0.957748
vn  0.000000 0.000000 -0.957748
vn  0.586200 0.586200 -0.478874
vn  0.000000 0.829144 -0.478874
vn  0.000000 0.957514 0.000000
vn  0.586200 0.586200 -0.478874
vn  0.000000 0.957514 0.000000
vn  0.676924 0.676924 0.000000
# 224 vertex normals

g Object_2
s 1
f 31/109/50 32/110/51 25/111/49
f 32/112/53 26/113/54 25/114/52
f 32/115/55 33/116/55 26/117/55
f 33/118/56 27/119/56 26/120/56
f 33/121/58 34/122/59 27/123/57
f 34/124/61 28/125/62 27/126/60
f 34/127/64 35/128/65 28/129/63
f 35/130/67 29/131/68 28/132/66
f 35/133/69 36/134/69 29/135/69
f 36/136/70 30/137/70 29/138/70
f 36/139/72 31/140/73 30/141/71
f 31/142/75 25/143/76 30/144/74
f 37/145/78 38/146/79 31/147/77
f 38/148/81 32/149/82 31/150/80
f 38/151/83 39/152/83 32/153/83
f 39/154/84 33/155/84 32/156/84
f 39/157/86 40/158/87 33/159/85
f 40/160/89 34/161/90 33/162/88
f 40/163/92 41/164/93 34/165/91
f 41/166/95 35/167/96 34/168/94
f 41/169/97 42/170/97 35/171/97
f 42/172/98 36/173/98 35/174/98
f 42/175/100 37/176/101 36/177/99
f 37/178/103 31/179/104 36/180/102
f 43/181/106 44/182/107 37/183/105
f 44/184/109 38/185/110 37/186/108
f 44/187/111 45/188/111 38/189/111
f 45/190/112 39/191/112 38/192/112
f 45/193/114 46/194/115 39/195/113
f 46/196/117 40/197/118 39/198/116
f 46/199/120 47/200/121 40/201/119
f 47/202/123 41/203/124 40/204/122
f 47/205/125 48/206/125 41/207/125
f 48/208/126 42/209/126 41/210/126
f 48/211/128 43/212/129 42/213/127
f 43/214/131 37/215/132 42/216/130
f 49/217/134 50/218/135 43/219/133
f 50/220/137 44/221/138 43/222/136
f 50/223/139 51/224/139 44/225/139
f 51/226/140 45/227/140 44/228/140
f 51/229/142 52/230/143 45/231/141
f 52/232/145 46/233/146 45/234/144
f 52/235/148 53/236/149 46/237/147
f 53/238/151 47/239/152 46/240/150
f 53/241/153 54/242/153 47/243/153
f 54/244/154 48/245/154 47/246/154
f 54/247/156 49/248/157 48/249/155
f 49/250/159 43/251/160 48/252/158
f 55/253/162 56/254/163 49/255/161
f 56/256/165 50/257/166 49/258/164
f 56/259/167 57/260/167 50/261/167
f 57/262/168 51/263/168 50/264/168
f 57/265/170 58/266/171 51/267/169
f 58/268/173 52/269/174 51/270/172
f 58/271/176 59/272/177 52/273/175
f 59/274/179 53/275/180 52/276/178
f 59/277/181 60/278/181 53/279/181
f 60/280/182 54/281/182 53/282/182
f 60/283/184 55/284/185 54/285/183
f 55/286/187 49/287/188 54/288/186
f 61/289/190 62/290/191 55/291/189
f 62/292/193 56/293/194 55/294/192
f 62/295/195 63/296/195 56/297/195
f 63/298/196 57/299/196 56/300/196
f 63/301/198 64/302/199 57/303/197
f 64/304/201 58/305/202 57/306/200
f 64/307/204 65/308/205 58/309/203
f 65/310/207 59/311/208 58/312/206
f 65/313/209 66/314/209 59/315/209
f 66/316/210 60/317/210 59/318/210
f 66/319/212 61/320/213 60/321/211
f 61/322/215 55/323/216 60/324/214
f 67/325/218 68/326/219 61/327/217
f 68/328/221 62/329/222 61/330/220
f 68/331/223 69/332/223 62/333/223
f 69/334/224 63/335/224 62/336/224
f 69/337/226 70/338/227 63/339/225
f 70/340/229 64/341/230 63/342/228
f 70/343/232 71/344/233 64/345/231
f 71/346/235 65/347/236 64/348/234
f 71/349/237 72/350/237 65/351/237
f 72/352/238 66/353/238 65/354/238
f 72/355/240 67/356/241 66/357/239
f 67/358/243 61/359/244 66/360/242
f 25/361/246 26/362/247 67/363/245
f 26/364/249 68/365/250 67/366/248
f 26/367/251 27/368/251 68/369/251
f 27/370/252 69/371/252 68/372/252
f 27/373/254 28/374/255 69/375/253
f 28/376/257 70/377/258 69/378/256
f 28/379/260 29/380/261 70/381/259
f 29/382/263 71/383/264 70/384/262
f 29/385/265 30/386/265 71/387/265
f 30/388/266 72/389/266 71/390/266
f 30/391/268 25/392/269 72/393/267
f 25/394/271 67/395/272 72/396/270
# 96 faces

g
