# Wavefront OBJ exported by RE2MV
#
# object Object_0 to come ...
#
v  0.000000 -0.040000 2.880000
v  71.959999 -0.040000 2.880000
v  0.000000 131.979996 2.880000
v  71.959999 131.979996 2.880000
v  0.000000 -0.040000 -2.860000
v  71.959999 -0.040000 -2.860000
v  0.000000 131.979996 -2.860000
v  71.959999 131.979996 -2.860000
# 8 vertices

vt  0.000000 0.149020
vt  0.000000 1.000000
vt  0.984375 0.149020
vt  0.000000 1.000000
vt  0.984375 1.000000
vt  0.984375 0.149020
vt  0.992188 0.152941
vt  0.992188 1.000000
vt  0.960938 0.152941
vt  0.992188 1.000000
vt  0.960938 1.000000
vt  0.960938 0.152941
vt  0.984375 0.149020
vt  0.984375 1.000000
vt  0.000000 0.149020
vt  0.984375 1.000000
vt  0.000000 1.000000
vt  0.000000 0.149020
vt  0.960938 1.000000
vt  0.007813 1.000000
vt  0.960938 0.984314
vt  0.007813 1.000000
vt  0.007813 0.984314
vt  0.960938 0.984314
vt  0.992188 0.152941
vt  0.960938 0.152941
vt  0.992188 1.000000
vt  0.960938 0.152941
vt  0.960938 1.000000
vt  0.992188 1.000000
vt  0.960938 0.984314
vt  0.007813 0.984314
vt  0.960938 1.000000
vt  0.007813 0.984314
vt  0.007813 1.000000
vt  0.960938 1.000000
# 36 texture coordinates

vn  0.000000 0.000000 0.957514
vn  0.000000 0.000000 0.957514
vn  0.856502 -0.428368 0.000000
vn  0.428134 -0.856735 0.000000
vn  0.856502 0.428134 0.000000
vn  0.856502 -0.428368 0.000000
vn  0.856502 0.428134 0.000000
vn  0.428134 0.856502 0.000000
vn  0.000000 0.000000 -0.957748
vn  0.000000 0.000000 -0.957748
vn  0.428134 0.856502 0.000000
vn  0.856502 0.428134 0.000000
vn  -0.677158 0.676924 0.000000
vn  0.428134 0.856502 0.000000
vn  -0.677158 0.676924 0.000000
vn  -0.677158 0.676924 0.000000
vn  -0.677158 -0.677158 0.000000
vn  -0.677158 0.676924 0.000000
vn  -0.677158 -0.677158 0.000000
vn  0.428134 -0.856735 0.000000
vn  0.856502 -0.428368 0.000000
vn  -0.677158 -0.677158 0.000000
vn  0.428134 -0.856735 0.000000
vn  -0.677158 -0.677158 0.000000
# 24 vertex normals

g Object_0
s 1
f 2/1/1 4/2/1 1/3/1
f 4/4/2 3/5/2 1/6/2
f 6/7/4 8/8/5 2/9/3
f 8/10/7 4/11/8 2/12/6
f 5/13/9 7/14/9 6/15/9
f 7/16/10 8/17/10 6/18/10
f 8/19/12 7/20/13 4/21/11
f 7/22/15 3/23/15 4/24/14
f 5/25/17 1/26/17 7/27/16
f 1/28/19 3/29/18 7/30/18
f 2/31/21 1/32/22 6/33/20
f 1/34/24 5/35/24 6/36/23
# 12 faces

g
v  -0.820000 0.000000 -2.520000
v  -0.820000 0.000000 -0.020000
v  0.840000 0.000000 -2.520000
v  0.840000 0.000000 -0.020000
v  1.480000 1.500000 -2.600000
v  1.480000 1.500000 -6.120000
v  0.000000 2.120000 -6.120000
v  0.000000 2.120000 -2.600000
v  -1.500000 1.500000 -6.120000
v  -1.500000 1.500000 -2.600000
v  -2.120000 0.000000 -6.120000
v  -2.120000 0.000000 -2.600000
v  -1.500000 -1.520000 -6.120000
v  -1.500000 -1.520000 -2.600000
v  0.000000 -2.140000 -6.120000
v  0.000000 -2.140000 -2.600000
v  1.480000 -1.520000 -6.120000
v  1.480000 -1.520000 -2.600000
v  2.100000 0.000000 -6.120000
v  2.100000 0.000000 -2.600000
v  0.000000 -0.940000 -2.520000
v  0.000000 -0.940000 -0.020000
v  0.000000 0.860000 -0.020000
v  0.000000 0.860000 -2.520000
# 24 vertices

vt  0.468750 0.105882
vt  0.312500 0.105882
vt  0.468750 0.074510
vt  0.312500 0.105882
vt  0.312500 0.074510
vt  0.468750 0.074510
vt  0.015625 0.129412
vt  0.000000 0.101961
vt  0.062500 0.141176
vt  0.000000 0.101961
vt  0.015625 0.078431
vt  0.062500 0.141176
vt  0.015625 0.078431
vt  0.062500 0.066667
vt  0.062500 0.141176
vt  0.062500 0.141176
vt  0.062500 0.066667
vt  0.109375 0.129412
vt  0.312500 0.105882
vt  0.468750 0.101961
vt  0.312500 0.074510
vt  0.468750 0.101961
vt  0.468750 0.074510
vt  0.312500 0.074510
vt  0.125000 0.105882
vt  0.109375 0.129412
vt  0.109375 0.078431
vt  0.429688 0.066667
vt  0.062500 0.066667
vt  0.429688 0.054902
vt  0.062500 0.066667
vt  0.062500 0.054902
vt  0.429688 0.054902
vt  0.000000 0.054902
vt  0.359375 0.054902
vt  0.000000 0.066667
vt  0.359375 0.054902
vt  0.359375 0.066667
vt  0.000000 0.066667
vt  0.000000 0.035294
vt  0.359375 0.031373
vt  0.000000 0.054902
vt  0.359375 0.031373
vt  0.359375 0.054902
vt  0.000000 0.054902
vt  0.000000 0.011765
vt  0.359375 0.011765
vt  0.000000 0.035294
vt  0.359375 0.011765
vt  0.359375 0.031373
vt  0.000000 0.035294
vt  0.000000 0.000000
vt  0.359375 0.000000
vt  0.000000 0.011765
vt  0.359375 0.000000
vt  0.359375 0.011765
vt  0.000000 0.011765
vt  0.429688 0.011765
vt  0.062500 0.011765
vt  0.429688 0.000000
vt  0.062500 0.011765
vt  0.062500 0.000000
vt  0.429688 0.000000
vt  0.429688 0.031373
vt  0.062500 0.031373
vt  0.429688 0.011765
vt  0.062500 0.031373
vt  0.062500 0.011765
vt  0.429688 0.011765
vt  0.429688 0.054902
vt  0.062500 0.054902
vt  0.429688 0.031373
vt  0.062500 0.054902
vt  0.062500 0.031373
vt  0.429688 0.031373
vt  0.218750 0.066667
vt  0.171875 0.078431
vt  0.210938 0.141176
vt  0.171875 0.078431
vt  0.156250 0.101961
vt  0.210938 0.141176
vt  0.156250 0.101961
vt  0.171875 0.129412
vt  0.210938 0.141176
vt  0.062500 0.066667
vt  0.109375 0.078431
vt  0.109375 0.129412
vt  0.468750 0.101961
vt  0.312500 0.105882
vt  0.468750 0.129412
vt  0.312500 0.105882
vt  0.312500 0.129412
vt  0.468750 0.129412
vt  0.312500 0.105882
vt  0.468750 0.105882
vt  0.312500 0.129412
vt  0.468750 0.105882
vt  0.468750 0.129412
vt  0.312500 0.129412
# 99 texture coordinates

vn  -0.340216 -0.895317 0.000000
vn  -0.913321 0.288306 0.000000
vn  -0.920336 -0.265392 0.000000
vn  -0.340216 -0.895317 0.000000
vn  -0.920336 -0.265392 0.000000
vn  0.326186 -0.900461 0.000000
vn  0.000000 0.842004 -0.456193
vn  0.596722 0.593916 -0.455959
vn  0.842238 0.000000 -0.455491
vn  0.000000 0.842004 -0.456193
vn  0.842238 0.000000 -0.455491
vn  0.596722 -0.594150 -0.455959
vn  0.000000 0.842004 -0.456193
vn  0.596722 -0.594150 -0.455959
vn  0.000000 -0.842238 -0.456193
vn  -0.596956 0.593916 -0.455959
vn  0.000000 0.842004 -0.456193
vn  0.000000 -0.842238 -0.456193
vn  0.326186 -0.900461 0.000000
vn  0.907242 0.306077 0.000000
vn  0.918465 -0.270770 0.000000
vn  0.326186 -0.900461 0.000000
vn  0.918465 -0.270770 0.000000
vn  -0.340216 -0.895317 0.000000
vn  -0.596956 -0.594150 -0.455959
vn  -0.842472 0.000000 -0.455491
vn  -0.596956 0.593916 -0.455959
vn  0.460402 0.458297 -0.703580
vn  0.000000 0.649332 -0.703814
vn  0.000000 0.649332 0.703580
vn  0.460402 0.458297 -0.703580
vn  0.000000 0.649332 0.703580
vn  0.460402 0.458297 0.703346
vn  0.000000 0.649332 -0.703814
vn  -0.460636 0.458297 -0.703580
vn  -0.460636 0.458297 0.703346
vn  0.000000 0.649332 -0.703814
vn  -0.460636 0.458297 0.703346
vn  0.000000 0.649332 0.703580
vn  -0.460636 0.458297 -0.703580
vn  -0.650268 0.000000 -0.703112
vn  -0.650268 0.000000 0.702878
vn  -0.460636 0.458297 -0.703580
vn  -0.650268 0.000000 0.702878
vn  -0.460636 0.458297 0.703346
vn  -0.650268 0.000000 -0.703112
vn  -0.460636 -0.458531 -0.703580
vn  -0.460636 -0.458531 0.703346
vn  -0.650268 0.000000 -0.703112
vn  -0.460636 -0.458531 0.703346
vn  -0.650268 0.000000 0.702878
vn  -0.460636 -0.458531 -0.703580
vn  0.000000 -0.649566 -0.703814
vn  0.000000 -0.649566 0.703580
vn  -0.460636 -0.458531 -0.703580
vn  0.000000 -0.649566 0.703580
vn  -0.460636 -0.458531 0.703346
vn  0.000000 -0.649566 -0.703814
vn  0.460402 -0.458531 -0.703580
vn  0.460402 -0.458531 0.703346
vn  0.000000 -0.649566 -0.703814
vn  0.460402 -0.458531 0.703346
vn  0.000000 -0.649566 0.703580
vn  0.460402 -0.458531 -0.703580
vn  0.650034 0.000000 -0.703112
vn  0.650034 0.000000 0.702878
vn  0.460402 -0.458531 -0.703580
vn  0.650034 0.000000 0.702878
vn  0.460402 -0.458531 0.703346
vn  0.650034 0.000000 -0.703112
vn  0.460402 0.458297 -0.703580
vn  0.460402 0.458297 0.703346
vn  0.650034 0.000000 -0.703112
vn  0.460402 0.458297 0.703346
vn  0.650034 0.000000 0.702878
vn  0.000000 0.842004 0.455959
vn  0.000000 -0.842238 0.455959
vn  0.596722 -0.594150 0.455725
vn  0.000000 0.842004 0.455959
vn  0.596722 -0.594150 0.455725
vn  0.842238 0.000000 0.455258
vn  0.000000 0.842004 0.455959
vn  0.842238 0.000000 0.455258
vn  0.596722 0.593916 0.455725
vn  -0.596956 0.593916 -0.455959
vn  0.000000 -0.842238 -0.456193
vn  -0.596956 -0.594150 -0.455959
vn  0.301401 0.908878 0.000000
vn  0.918465 -0.270770 0.000000
vn  0.907242 0.306077 0.000000
vn  0.301401 0.908878 0.000000
vn  0.907242 0.306077 0.000000
vn  -0.328057 0.899525 0.000000
vn  -0.328057 0.899525 0.000000
vn  -0.920336 -0.265392 0.000000
vn  -0.913321 0.288306 0.000000
vn  -0.328057 0.899525 0.000000
vn  -0.913321 0.288306 0.000000
vn  0.301401 0.908878 0.000000
# 99 vertex normals

g Object_1
s 1
f 10/37/26 9/38/27 30/39/25
f 9/40/29 29/41/30 30/42/28
f 14/43/32 27/44/33 15/45/31
f 27/46/35 25/47/36 15/48/34
f 25/49/38 23/50/39 15/51/37
f 15/52/41 23/53/42 17/54/40
f 11/55/44 12/56/45 29/57/43
f 12/58/47 30/59/48 29/60/46
f 19/61/50 17/62/51 21/63/49
f 15/64/53 16/65/54 14/66/52
f 16/67/56 13/68/57 14/69/55
f 17/70/59 18/71/60 15/72/58
f 18/73/62 16/74/63 15/75/61
f 19/76/65 20/77/66 17/78/64
f 20/79/68 18/80/69 17/81/67
f 21/82/71 22/83/72 19/84/70
f 22/85/74 20/86/75 19/87/73
f 23/88/77 24/89/78 21/90/76
f 24/91/80 22/92/81 21/93/79
f 25/94/83 26/95/84 23/96/82
f 26/97/86 24/98/87 23/99/85
f 27/100/89 28/101/90 25/102/88
f 28/103/92 26/104/93 25/105/91
f 14/106/95 13/107/96 27/108/94
f 13/109/98 28/110/99 27/111/97
f 24/112/101 26/113/102 16/114/100
f 26/115/104 28/116/105 16/117/103
f 28/118/107 13/119/108 16/120/106
f 23/121/110 21/122/111 17/123/109
f 12/124/113 11/125/114 31/126/112
f 11/127/116 32/128/117 31/129/115
f 9/130/119 10/131/120 32/132/118
f 10/133/122 31/134/123 32/135/121
# 33 faces

g
