# ROOM60D0.RDT Prop-Slot 1 -> Fuse Case
v 19 324 34
v 0 324 0
v 38 324 0
f 1 2 3
v 19 324 -34
v 0 324 0
v -19 324 -34
f 4 5 6
v -19 324 34
v 0 324 0
v 19 324 34
f 7 8 9
v -38 324 0
v 0 324 0
v -19 324 34
f 10 11 12
v 38 324 0
v 0 324 0
v 19 324 -34
f 13 14 15
v -19 324 -34
v 0 324 0
v -38 324 0
f 16 17 18
v 38 108 0
v 19 108 34
v 38 324 0
v 19 324 34
f 19 20 22 21
v 34 108 62
v 19 108 34
v 68 108 0
v 38 108 0
f 23 24 26 25
v 68 -180 0
v 34 -180 62
v 68 108 0
v 34 108 62
f 27 28 30 29
v -68 -180 0
v -34 -180 -62
v -68 108 0
v -34 108 -62
f 31 32 34 33
v 34 -180 -62
v 68 -180 0
v 34 108 -62
v 68 108 0
f 35 36 38 37
v 19 108 34
v -19 108 34
v 19 324 34
v -19 324 34
f 39 40 42 41
v 34 108 62
v -34 108 62
v 19 108 34
v -19 108 34
f 43 44 46 45
v 34 -180 62
v -34 -180 62
v 34 108 62
v -34 108 62
f 47 48 50 49
v -34 -180 -62
v 34 -180 -62
v -34 108 -62
v 34 108 -62
f 51 52 54 53
v 34 108 -62
v 68 108 0
v 19 108 -34
v 38 108 0
f 55 56 58 57
v 19 108 -34
v 38 108 0
v 19 324 -34
v 38 324 0
f 59 60 62 61
v -19 108 34
v -38 108 0
v -19 324 34
v -38 324 0
f 63 64 66 65
v -34 108 62
v -68 108 0
v -19 108 34
v -38 108 0
f 67 68 70 69
v -34 -180 62
v -68 -180 0
v -34 108 62
v -68 108 0
f 71 72 74 73
v -34 108 -62
v 34 108 -62
v -19 108 -34
v 19 108 -34
f 75 76 78 77
v -19 108 -34
v 19 108 -34
v -19 324 -34
v 19 324 -34
f 79 80 82 81
v -38 108 0
v -19 108 -34
v -38 324 0
v -19 324 -34
f 83 84 86 85
v -34 108 -62
v -19 108 -34
v -68 108 0
v -38 108 0
f 87 88 90 89
v -68 -180 0
v 68 -180 0
v -34 -180 -62
v 34 -180 -62
f 91 92 94 93
v 68 -180 0
v -68 -180 0
v 34 -180 62
v -34 -180 62
f 95 96 98 97
