# RE15_ROOM4050_m03_spraydose_rot — extracted from ROOM4050.RDT  md1@0x3788 tim@0x2DDA8
# PSX model space with Y flipped (Y' = -Y), 1 unit = 1 PSX unit.
mtllib RE15_ROOM4050_m03_spraydose_rot.mtl
usemtl RE15_ROOM4050_m03_spraydose_rot
v 64 0 -36
v 64 315 37
v 64 0 37
v 64 0 -36
v 64 315 -36
v 64 315 37
v 64 315 -36
v 10 376 5
v 64 315 37
v 64 315 -36
v 10 376 -5
v 10 376 5
v 10 376 -5
v 10 400 6
v 10 376 5
v 10 376 -5
v 10 400 -5
v 10 400 6
v 64 0 37
v 0 315 74
v 0 0 74
v 64 0 37
v 64 315 37
v 0 315 74
v 64 315 37
v 0 376 11
v 0 315 74
v 64 315 37
v 10 376 5
v 0 376 11
v 10 376 5
v 0 400 11
v 0 376 11
v 10 376 5
v 10 400 6
v 0 400 11
v 0 0 74
v -63 315 37
v -63 0 37
v 0 0 74
v 0 315 74
v -63 315 37
v 0 315 74
v -9 376 6
v -63 315 37
v 0 315 74
v 0 376 11
v -9 376 6
v 0 376 11
v -9 400 6
v -9 376 6
v 0 376 11
v 0 400 11
v -9 400 6
v -63 0 37
v -63 315 -36
v -63 0 -36
v -63 0 37
v -63 315 37
v -63 315 -36
v -63 315 37
v -9 376 -4
v -63 315 -36
v -63 315 37
v -9 376 6
v -9 376 -4
v -9 376 6
v -9 400 -5
v -9 376 -4
v -9 376 6
v -9 400 6
v -9 400 -5
v -63 0 -36
v 0 315 -73
v 0 0 -73
v -63 0 -36
v -63 315 -36
v 0 315 -73
v -63 315 -36
v 0 376 -10
v 0 315 -73
v -63 315 -36
v -9 376 -4
v 0 376 -10
v -9 376 -4
v 0 400 -10
v 0 376 -10
v -9 376 -4
v -9 400 -5
v 0 400 -10
v 0 0 -73
v 64 315 -36
v 64 0 -36
v 0 0 -73
v 0 315 -73
v 64 315 -36
v 0 315 -73
v 10 376 -5
v 64 315 -36
v 0 315 -73
v 0 376 -10
v 10 376 -5
v 0 376 -10
v 10 400 -5
v 10 376 -5
v 0 376 -10
v 0 400 -10
v 10 400 -5
v 0 400 11
v -9 400 -5
v -9 400 6
v 0 400 11
v 0 400 -10
v -9 400 -5
v 0 400 -10
v 0 400 11
v 10 400 6
v 0 400 -10
v 10 400 6
v 10 400 -5
vt 0.656250 0.421875
vt 0.695312 0.835938
vt 0.695312 0.441406
vt 0.656250 0.421875
vt 0.656250 0.835938
vt 0.695312 0.835938
vt 0.531250 0.855469
vt 0.562500 0.945312
vt 0.554688 0.859375
vt 0.531250 0.855469
vt 0.554688 0.945312
vt 0.562500 0.945312
vt 0.812500 0.917969
vt 0.804688 0.945312
vt 0.804688 0.917969
vt 0.812500 0.917969
vt 0.812500 0.945312
vt 0.804688 0.945312
vt 0.742188 0.441406
vt 0.789062 0.835938
vt 0.789062 0.421875
vt 0.742188 0.441406
vt 0.742188 0.835938
vt 0.789062 0.835938
vt 0.554688 0.859375
vt 0.562500 0.945312
vt 0.593750 0.855469
vt 0.554688 0.859375
vt 0.562500 0.945312
vt 0.562500 0.945312
vt 0.804688 0.917969
vt 0.804688 0.945312
vt 0.804688 0.917969
vt 0.804688 0.917969
vt 0.804688 0.945312
vt 0.804688 0.945312
vt 0.789062 0.421875
vt 0.882812 0.835938
vt 0.882812 0.421875
vt 0.789062 0.421875
vt 0.789062 0.835938
vt 0.882812 0.835938
vt 0.593750 0.855469
vt 0.570312 0.945312
vt 0.593750 0.851562
vt 0.593750 0.855469
vt 0.562500 0.945312
vt 0.570312 0.945312
vt 0.804688 0.917969
vt 0.812500 0.945312
vt 0.812500 0.917969
vt 0.804688 0.917969
vt 0.804688 0.945312
vt 0.812500 0.945312
vt 0.882812 0.421875
vt 0.921875 0.835938
vt 0.921875 0.441406
vt 0.882812 0.421875
vt 0.882812 0.835938
vt 0.921875 0.835938
vt 0.593750 0.851562
vt 0.562500 0.945312
vt 0.570312 0.843750
vt 0.593750 0.851562
vt 0.570312 0.945312
vt 0.562500 0.945312
vt 0.812500 0.917969
vt 0.828125 0.945312
vt 0.828125 0.917969
vt 0.812500 0.917969
vt 0.812500 0.945312
vt 0.828125 0.945312
vt 0.523438 0.441406
vt 0.562500 0.835938
vt 0.562500 0.421875
vt 0.523438 0.441406
vt 0.523438 0.835938
vt 0.562500 0.835938
vt 0.570312 0.843750
vt 0.554688 0.945312
vt 0.531250 0.851562
vt 0.570312 0.843750
vt 0.562500 0.945312
vt 0.554688 0.945312
vt 0.828125 0.917969
vt 0.828125 0.945312
vt 0.828125 0.917969
vt 0.828125 0.917969
vt 0.828125 0.945312
vt 0.828125 0.945312
vt 0.562500 0.421875
vt 0.656250 0.835938
vt 0.656250 0.421875
vt 0.562500 0.421875
vt 0.562500 0.835938
vt 0.656250 0.835938
vt 0.531250 0.851562
vt 0.554688 0.945312
vt 0.531250 0.855469
vt 0.531250 0.851562
vt 0.554688 0.945312
vt 0.554688 0.945312
vt 0.828125 0.917969
vt 0.812500 0.945312
vt 0.812500 0.917969
vt 0.828125 0.917969
vt 0.828125 0.945312
vt 0.812500 0.945312
vt 0.859375 0.945312
vt 0.851562 0.929688
vt 0.851562 0.937500
vt 0.859375 0.945312
vt 0.859375 0.921875
vt 0.851562 0.929688
vt 0.859375 0.921875
vt 0.859375 0.945312
vt 0.867188 0.937500
vt 0.859375 0.921875
vt 0.867188 0.937500
vt 0.867188 0.929688
f 1/1 2/2 3/3
f 4/4 5/5 6/6
f 7/7 8/8 9/9
f 10/10 11/11 12/12
f 13/13 14/14 15/15
f 16/16 17/17 18/18
f 19/19 20/20 21/21
f 22/22 23/23 24/24
f 25/25 26/26 27/27
f 28/28 29/29 30/30
f 31/31 32/32 33/33
f 34/34 35/35 36/36
f 37/37 38/38 39/39
f 40/40 41/41 42/42
f 43/43 44/44 45/45
f 46/46 47/47 48/48
f 49/49 50/50 51/51
f 52/52 53/53 54/54
f 55/55 56/56 57/57
f 58/58 59/59 60/60
f 61/61 62/62 63/63
f 64/64 65/65 66/66
f 67/67 68/68 69/69
f 70/70 71/71 72/72
f 73/73 74/74 75/75
f 76/76 77/77 78/78
f 79/79 80/80 81/81
f 82/82 83/83 84/84
f 85/85 86/86 87/87
f 88/88 89/89 90/90
f 91/91 92/92 93/93
f 94/94 95/95 96/96
f 97/97 98/98 99/99
f 100/100 101/101 102/102
f 103/103 104/104 105/105
f 106/106 107/107 108/108
f 109/109 110/110 111/111
f 112/112 113/113 114/114
f 115/115 116/116 117/117
f 118/118 119/119 120/120
