# RE2_ROOM60D0_m02_laborflasche — extracted from ROOM60D0.RDT  md1@0x1424 tim@0x1F384
# PSX model space with Y flipped (Y' = -Y), 1 unit = 1 PSX unit.
mtllib RE2_ROOM60D0_m02_laborflasche.mtl
usemtl RE2_ROOM60D0_m02_laborflasche
v 24 -180 24
v 0 -187 0
v 34 -180 0
v 0 -180 34
v 0 -187 0
v 24 -180 24
v 34 -180 0
v 0 -187 0
v 24 -180 -24
v -24 -180 24
v 0 -187 0
v 0 -180 34
v -34 -180 0
v 0 -187 0
v -24 -180 24
v 24 -180 -24
v 0 -187 0
v 0 -180 -34
v -24 -180 -24
v 0 -187 0
v -34 -180 0
v 0 -180 -34
v 0 -187 0
v -24 -180 -24
v -29 221 -29
v 29 221 -29
v 0 221 -41
v -29 221 29
v 0 221 41
v 29 221 29
v 29 -162 29
v 24 -180 24
v 41 -162 0
v 34 -180 0
v 41 121 0
v 29 121 29
v 41 -162 0
v 29 -162 29
v 41 194 0
v 41 221 0
v 29 194 29
v 29 221 29
v 29 194 -29
v 29 221 -29
v 41 194 0
v 41 221 0
v 29 121 -29
v 41 121 0
v 29 -162 -29
v 41 -162 0
v 29 -162 29
v 0 -162 41
v 24 -180 24
v 0 -180 34
v 29 121 29
v 0 121 41
v 29 -162 29
v 0 -162 41
v 29 194 29
v 29 221 29
v 0 194 41
v 0 221 41
v 29 -162 -29
v 41 -162 0
v 24 -180 -24
v 34 -180 0
v -29 -162 29
v -24 -180 24
v 0 -162 41
v 0 -180 34
v 0 121 41
v -29 121 29
v 0 -162 41
v -29 -162 29
v 0 194 41
v 0 221 41
v -29 194 29
v -29 221 29
v 0 194 -41
v 0 221 -41
v 29 194 -29
v 29 221 -29
v 0 121 -41
v 29 121 -29
v 0 -162 -41
v 29 -162 -29
v -29 -162 29
v -41 -162 0
v -24 -180 24
v -34 -180 0
v -29 121 29
v -41 121 0
v -29 -162 29
v -41 -162 0
v -29 194 29
v -29 221 29
v -41 194 0
v -41 221 0
v 29 -162 -29
v 24 -180 -24
v 0 -162 -41
v 0 -180 -34
v -29 -162 -29
v -24 -180 -24
v -41 -162 0
v -34 -180 0
v -41 121 0
v -29 121 -29
v -41 -162 0
v -29 -162 -29
v -41 194 0
v -41 221 0
v -29 194 -29
v -29 221 -29
v -29 194 -29
v -29 221 -29
v 0 194 -41
v 0 221 -41
v -29 121 -29
v 0 121 -41
v -29 -162 -29
v 0 -162 -41
v -29 -162 -29
v 0 -162 -41
v -24 -180 -24
v 0 -180 -34
v 41 221 0
v 29 221 -29
v -41 221 0
v -29 221 -29
v 41 221 0
v -41 221 0
v 29 221 29
v -29 221 29
v 29 121 -29
v 0 121 -41
v 23 122 -23
v 0 122 -33
v 29 121 -29
v 23 122 -23
v 41 121 0
v 33 122 0
v 29 121 29
v 41 121 0
v 23 122 23
v 33 122 0
v 29 121 29
v 23 122 23
v 0 121 41
v 0 122 33
v -29 121 29
v 0 121 41
v -23 122 23
v 0 122 33
v -29 121 29
v -23 122 23
v -41 121 0
v -33 122 0
v -29 121 -29
v -41 121 0
v -23 122 -23
v -33 122 0
v -29 121 -29
v -23 122 -23
v 0 121 -41
v 0 122 -33
v 29 194 -29
v 23 192 -23
v 0 194 -41
v 0 192 -33
v 41 194 0
v 33 192 0
v 29 194 -29
v 23 192 -23
v 29 194 29
v 23 192 23
v 41 194 0
v 33 192 0
v 0 194 41
v 0 192 33
v 29 194 29
v 23 192 23
v -29 194 29
v -23 192 23
v 0 194 41
v 0 192 33
v -41 194 0
v -33 192 0
v -29 194 29
v -23 192 23
v -29 194 -29
v -23 192 -23
v -41 194 0
v -33 192 0
v 0 194 -41
v 0 192 -33
v -29 194 -29
v -23 192 -23
v 0 122 -33
v 0 192 -33
v 23 122 -23
v 23 192 -23
v 23 122 -23
v 23 192 -23
v 33 122 0
v 33 192 0
v 33 122 0
v 33 192 0
v 23 122 23
v 23 192 23
v 23 122 23
v 23 192 23
v 0 122 33
v 0 192 33
v 0 122 33
v 0 192 33
v -23 122 23
v -23 192 23
v -23 122 23
v -23 192 23
v -33 122 0
v -33 192 0
v -33 122 0
v -33 192 0
v -23 122 -23
v -23 192 -23
v -23 122 -23
v -23 192 -23
v 0 122 -33
v 0 192 -33
vt 0.976562 0.625000
vt 0.992188 0.578125
vt 0.976562 0.645833
vt 0.976562 0.578125
vt 0.992188 0.578125
vt 0.976562 0.625000
vt 0.976562 0.645833
vt 0.992188 0.578125
vt 0.976562 0.625000
vt 0.976562 0.536458
vt 0.992188 0.578125
vt 0.976562 0.578125
vt 0.976562 0.515625
vt 0.992188 0.578125
vt 0.976562 0.536458
vt 0.976562 0.625000
vt 0.992188 0.578125
vt 0.976562 0.578125
vt 0.976562 0.536458
vt 0.992188 0.578125
vt 0.976562 0.515625
vt 0.976562 0.578125
vt 0.992188 0.578125
vt 0.976562 0.536458
vt 0.039062 0.369792
vt 0.148438 0.369792
vt 0.093750 0.354167
vt 0.039062 0.432292
vt 0.093750 0.447917
vt 0.148438 0.432292
vt 0.929688 0.635417
vt 0.976562 0.625000
vt 0.929688 0.661458
vt 0.976562 0.645833
vt 0.242188 0.661458
vt 0.242188 0.635417
vt 0.929688 0.661458
vt 0.929688 0.635417
vt 0.062500 0.661458
vt 0.000000 0.661458
vt 0.062500 0.635417
vt 0.000000 0.635417
vt 0.062500 0.635417
vt 0.000000 0.635417
vt 0.062500 0.661458
vt 0.000000 0.661458
vt 0.242188 0.635417
vt 0.242188 0.661458
vt 0.929688 0.635417
vt 0.929688 0.661458
vt 0.929688 0.635417
vt 0.929688 0.578125
vt 0.976562 0.625000
vt 0.976562 0.578125
vt 0.242188 0.635417
vt 0.242188 0.583333
vt 0.929688 0.635417
vt 0.929688 0.578125
vt 0.062500 0.635417
vt 0.000000 0.635417
vt 0.062500 0.583333
vt 0.000000 0.583333
vt 0.929688 0.635417
vt 0.929688 0.661458
vt 0.976562 0.625000
vt 0.976562 0.645833
vt 0.929688 0.526042
vt 0.976562 0.536458
vt 0.929688 0.578125
vt 0.976562 0.578125
vt 0.242188 0.583333
vt 0.242188 0.526042
vt 0.929688 0.578125
vt 0.929688 0.526042
vt 0.062500 0.583333
vt 0.000000 0.583333
vt 0.062500 0.526042
vt 0.000000 0.526042
vt 0.062500 0.583333
vt 0.000000 0.583333
vt 0.062500 0.635417
vt 0.000000 0.635417
vt 0.242188 0.583333
vt 0.242188 0.635417
vt 0.929688 0.578125
vt 0.929688 0.635417
vt 0.929688 0.526042
vt 0.929688 0.494792
vt 0.976562 0.536458
vt 0.976562 0.515625
vt 0.242188 0.526042
vt 0.242188 0.494792
vt 0.929688 0.526042
vt 0.929688 0.494792
vt 0.062500 0.526042
vt 0.000000 0.526042
vt 0.062500 0.494792
vt 0.000000 0.494792
vt 0.929688 0.635417
vt 0.976562 0.625000
vt 0.929688 0.578125
vt 0.976562 0.578125
vt 0.929688 0.526042
vt 0.976562 0.536458
vt 0.929688 0.494792
vt 0.976562 0.515625
vt 0.242188 0.494792
vt 0.242188 0.526042
vt 0.929688 0.494792
vt 0.929688 0.526042
vt 0.062500 0.494792
vt 0.000000 0.494792
vt 0.062500 0.526042
vt 0.000000 0.526042
vt 0.062500 0.526042
vt 0.000000 0.526042
vt 0.062500 0.583333
vt 0.000000 0.583333
vt 0.242188 0.526042
vt 0.242188 0.583333
vt 0.929688 0.526042
vt 0.929688 0.578125
vt 0.929688 0.526042
vt 0.929688 0.578125
vt 0.976562 0.536458
vt 0.976562 0.578125
vt 0.179688 0.401042
vt 0.148438 0.369792
vt 0.015625 0.401042
vt 0.039062 0.369792
vt 0.179688 0.401042
vt 0.015625 0.401042
vt 0.148438 0.432292
vt 0.039062 0.432292
vt 0.242188 0.635417
vt 0.242188 0.583333
vt 0.242188 0.625000
vt 0.242188 0.583333
vt 0.242188 0.635417
vt 0.242188 0.625000
vt 0.242188 0.661458
vt 0.242188 0.645833
vt 0.242188 0.635417
vt 0.242188 0.661458
vt 0.242188 0.625000
vt 0.242188 0.645833
vt 0.242188 0.635417
vt 0.242188 0.625000
vt 0.242188 0.583333
vt 0.242188 0.583333
vt 0.242188 0.526042
vt 0.242188 0.583333
vt 0.242188 0.536458
vt 0.242188 0.583333
vt 0.242188 0.526042
vt 0.242188 0.536458
vt 0.242188 0.494792
vt 0.242188 0.515625
vt 0.242188 0.526042
vt 0.242188 0.494792
vt 0.242188 0.536458
vt 0.242188 0.515625
vt 0.242188 0.526042
vt 0.242188 0.536458
vt 0.242188 0.583333
vt 0.242188 0.583333
vt 0.062500 0.635417
vt 0.070312 0.625000
vt 0.062500 0.583333
vt 0.070312 0.583333
vt 0.062500 0.661458
vt 0.070312 0.645833
vt 0.062500 0.635417
vt 0.070312 0.625000
vt 0.062500 0.635417
vt 0.070312 0.625000
vt 0.062500 0.661458
vt 0.070312 0.645833
vt 0.062500 0.583333
vt 0.070312 0.583333
vt 0.062500 0.635417
vt 0.070312 0.625000
vt 0.062500 0.526042
vt 0.070312 0.536458
vt 0.062500 0.583333
vt 0.070312 0.583333
vt 0.062500 0.494792
vt 0.070312 0.515625
vt 0.062500 0.526042
vt 0.070312 0.536458
vt 0.062500 0.526042
vt 0.070312 0.536458
vt 0.062500 0.494792
vt 0.070312 0.515625
vt 0.062500 0.583333
vt 0.070312 0.583333
vt 0.062500 0.526042
vt 0.070312 0.536458
vt 0.242188 0.583333
vt 0.070312 0.583333
vt 0.242188 0.625000
vt 0.070312 0.625000
vt 0.242188 0.625000
vt 0.070312 0.625000
vt 0.242188 0.645833
vt 0.070312 0.645833
vt 0.242188 0.645833
vt 0.070312 0.645833
vt 0.242188 0.625000
vt 0.070312 0.625000
vt 0.242188 0.625000
vt 0.070312 0.625000
vt 0.242188 0.583333
vt 0.070312 0.583333
vt 0.242188 0.583333
vt 0.070312 0.583333
vt 0.242188 0.536458
vt 0.070312 0.536458
vt 0.242188 0.536458
vt 0.070312 0.536458
vt 0.242188 0.515625
vt 0.070312 0.515625
vt 0.242188 0.515625
vt 0.070312 0.515625
vt 0.242188 0.536458
vt 0.070312 0.536458
vt 0.242188 0.536458
vt 0.070312 0.536458
vt 0.242188 0.583333
vt 0.070312 0.583333
f 1/1 2/2 3/3
f 4/4 5/5 6/6
f 7/7 8/8 9/9
f 10/10 11/11 12/12
f 13/13 14/14 15/15
f 16/16 17/17 18/18
f 19/19 20/20 21/21
f 22/22 23/23 24/24
f 25/25 26/26 27/27
f 28/28 29/29 30/30
f 31/31 32/32 33/33 34/34
f 35/35 36/36 37/37 38/38
f 39/39 40/40 41/41 42/42
f 43/43 44/44 45/45 46/46
f 47/47 48/48 49/49 50/50
f 51/51 52/52 53/53 54/54
f 55/55 56/56 57/57 58/58
f 59/59 60/60 61/61 62/62
f 63/63 64/64 65/65 66/66
f 67/67 68/68 69/69 70/70
f 71/71 72/72 73/73 74/74
f 75/75 76/76 77/77 78/78
f 79/79 80/80 81/81 82/82
f 83/83 84/84 85/85 86/86
f 87/87 88/88 89/89 90/90
f 91/91 92/92 93/93 94/94
f 95/95 96/96 97/97 98/98
f 99/99 100/100 101/101 102/102
f 103/103 104/104 105/105 106/106
f 107/107 108/108 109/109 110/110
f 111/111 112/112 113/113 114/114
f 115/115 116/116 117/117 118/118
f 119/119 120/120 121/121 122/122
f 123/123 124/124 125/125 126/126
f 127/127 128/128 129/129 130/130
f 131/131 132/132 133/133 134/134
f 135/135 136/136 137/137 138/138
f 139/139 140/140 141/141 142/142
f 143/143 144/144 145/145 146/146
f 147/147 148/148 149/149 150/150
f 151/151 152/152 153/153 154/154
f 155/155 156/156 157/157 158/158
f 159/159 160/160 161/161 162/162
f 163/163 164/164 165/165 166/166
f 167/167 168/168 169/169 170/170
f 171/171 172/172 173/173 174/174
f 175/175 176/176 177/177 178/178
f 179/179 180/180 181/181 182/182
f 183/183 184/184 185/185 186/186
f 187/187 188/188 189/189 190/190
f 191/191 192/192 193/193 194/194
f 195/195 196/196 197/197 198/198
f 199/199 200/200 201/201 202/202
f 203/203 204/204 205/205 206/206
f 207/207 208/208 209/209 210/210
f 211/211 212/212 213/213 214/214
f 215/215 216/216 217/217 218/218
f 219/219 220/220 221/221 222/222
f 223/223 224/224 225/225 226/226
f 227/227 228/228 229/229 230/230
