# RE2_ROOM1010_m03_sprayflasche — extracted from ROOM1010.RDT  md1@0x3394 tim@0x2A4A0
# PSX model space with Y flipped (Y' = -Y), 1 unit = 1 PSX unit.
mtllib RE2_ROOM1010_m03_sprayflasche.mtl
usemtl RE2_ROOM1010_m03_sprayflasche
v 78 0 -46
v 79 386 45
v 79 0 45
v 78 0 -46
v 78 386 -46
v 79 386 45
v 78 386 -46
v 12 460 7
v 79 386 45
v 78 386 -46
v 12 460 -7
v 12 460 7
v 12 460 -7
v 12 489 7
v 12 460 7
v 12 460 -7
v 12 489 -7
v 12 489 7
v 79 0 45
v 0 386 90
v 0 0 90
v 79 0 45
v 79 386 45
v 0 386 90
v 79 386 45
v 0 460 13
v 0 386 90
v 79 386 45
v 12 460 7
v 0 460 13
v 12 460 7
v 0 489 14
v 0 460 13
v 12 460 7
v 12 489 7
v 0 489 14
v 0 0 90
v -78 386 46
v -78 0 46
v 0 0 90
v 0 386 90
v -78 386 46
v 0 386 90
v -12 460 7
v -78 386 46
v 0 386 90
v 0 460 13
v -12 460 7
v 0 460 13
v -12 489 7
v -12 460 7
v 0 460 13
v 0 489 14
v -12 489 7
v -78 0 46
v -79 386 -45
v -79 0 -45
v -78 0 46
v -78 386 46
v -79 386 -45
v -78 386 46
v -12 460 -7
v -79 386 -45
v -78 386 46
v -12 460 7
v -12 460 -7
v -12 460 7
v -12 489 -7
v -12 460 -7
v -12 460 7
v -12 489 7
v -12 489 -7
v -79 0 -45
v 0 386 -90
v 0 0 -90
v -79 0 -45
v -79 386 -45
v 0 386 -90
v -79 386 -45
v 0 460 -13
v 0 386 -90
v -79 386 -45
v -12 460 -7
v 0 460 -13
v -12 460 -7
v 0 489 -14
v 0 460 -13
v -12 460 -7
v -12 489 -7
v 0 489 -14
v 0 0 -90
v 78 386 -46
v 78 0 -46
v 0 0 -90
v 0 386 -90
v 78 386 -46
v 0 386 -90
v 12 460 -7
v 78 386 -46
v 0 386 -90
v 0 460 -13
v 12 460 -7
v 0 460 -13
v 12 489 -7
v 12 460 -7
v 0 460 -13
v 0 489 -14
v 12 489 -7
v 0 489 14
v -12 489 -7
v -12 489 7
v 0 489 14
v 0 489 -14
v -12 489 -7
v 0 489 -14
v 0 489 14
v 12 489 7
v 0 489 -14
v 12 489 7
v 12 489 -7
vt 0.414062 0.203125
vt 0.843750 0.119792
vt 0.414062 0.119792
vt 0.414062 0.203125
vt 0.843750 0.203125
vt 0.843750 0.119792
vt 0.843750 0.177083
vt 0.921875 0.244792
vt 0.843750 0.177083
vt 0.843750 0.177083
vt 0.921875 0.244792
vt 0.921875 0.244792
vt 0.890625 0.135417
vt 0.945312 0.119792
vt 0.890625 0.119792
vt 0.890625 0.135417
vt 0.945312 0.135417
vt 0.945312 0.119792
vt 0.414062 0.119792
vt 0.843750 0.046875
vt 0.414062 0.046875
vt 0.414062 0.119792
vt 0.843750 0.119792
vt 0.843750 0.046875
vt 0.843750 0.177083
vt 0.921875 0.250000
vt 0.843750 0.250000
vt 0.843750 0.177083
vt 0.921875 0.244792
vt 0.921875 0.250000
vt 0.882812 0.135417
vt 0.945312 0.125000
vt 0.882812 0.125000
vt 0.882812 0.135417
vt 0.945312 0.140625
vt 0.945312 0.125000
vt 0.406250 0.010417
vt 0.835938 0.135417
vt 0.406250 0.135417
vt 0.406250 0.010417
vt 0.835938 0.010417
vt 0.835938 0.135417
vt 0.843750 0.250000
vt 0.921875 0.265625
vt 0.843750 0.328125
vt 0.843750 0.250000
vt 0.921875 0.250000
vt 0.921875 0.265625
vt 0.882812 0.125000
vt 0.945312 0.114583
vt 0.882812 0.114583
vt 0.882812 0.125000
vt 0.945312 0.125000
vt 0.945312 0.114583
vt 0.414062 0.119792
vt 0.843750 0.203125
vt 0.414062 0.203125
vt 0.414062 0.119792
vt 0.843750 0.119792
vt 0.843750 0.203125
vt 0.843750 0.328125
vt 0.921875 0.265625
vt 0.843750 0.333333
vt 0.843750 0.328125
vt 0.921875 0.265625
vt 0.921875 0.265625
vt 0.890625 0.135417
vt 0.945312 0.119792
vt 0.890625 0.119792
vt 0.890625 0.135417
vt 0.945312 0.135417
vt 0.945312 0.119792
vt 0.414062 0.333333
vt 0.843750 0.260417
vt 0.414062 0.260417
vt 0.414062 0.333333
vt 0.843750 0.333333
vt 0.843750 0.260417
vt 0.843750 0.333333
vt 0.921875 0.255208
vt 0.843750 0.255208
vt 0.843750 0.333333
vt 0.921875 0.265625
vt 0.921875 0.255208
vt 0.882812 0.135417
vt 0.945312 0.125000
vt 0.882812 0.125000
vt 0.882812 0.135417
vt 0.945312 0.140625
vt 0.945312 0.125000
vt 0.414062 0.260417
vt 0.843750 0.187500
vt 0.414062 0.187500
vt 0.414062 0.260417
vt 0.843750 0.260417
vt 0.843750 0.187500
vt 0.843750 0.255208
vt 0.921875 0.244792
vt 0.843750 0.177083
vt 0.843750 0.255208
vt 0.921875 0.255208
vt 0.921875 0.244792
vt 0.882812 0.125000
vt 0.945312 0.114583
vt 0.882812 0.114583
vt 0.882812 0.125000
vt 0.945312 0.125000
vt 0.945312 0.114583
vt 0.929688 0.104167
vt 0.914062 0.093750
vt 0.914062 0.098958
vt 0.929688 0.104167
vt 0.929688 0.088542
vt 0.914062 0.093750
vt 0.929688 0.088542
vt 0.929688 0.104167
vt 0.937500 0.098958
vt 0.929688 0.088542
vt 0.937500 0.098958
vt 0.937500 0.093750
f 1/1 2/2 3/3
f 4/4 5/5 6/6
f 7/7 8/8 9/9
f 10/10 11/11 12/12
f 13/13 14/14 15/15
f 16/16 17/17 18/18
f 19/19 20/20 21/21
f 22/22 23/23 24/24
f 25/25 26/26 27/27
f 28/28 29/29 30/30
f 31/31 32/32 33/33
f 34/34 35/35 36/36
f 37/37 38/38 39/39
f 40/40 41/41 42/42
f 43/43 44/44 45/45
f 46/46 47/47 48/48
f 49/49 50/50 51/51
f 52/52 53/53 54/54
f 55/55 56/56 57/57
f 58/58 59/59 60/60
f 61/61 62/62 63/63
f 64/64 65/65 66/66
f 67/67 68/68 69/69
f 70/70 71/71 72/72
f 73/73 74/74 75/75
f 76/76 77/77 78/78
f 79/79 80/80 81/81
f 82/82 83/83 84/84
f 85/85 86/86 87/87
f 88/88 89/89 90/90
f 91/91 92/92 93/93
f 94/94 95/95 96/96
f 97/97 98/98 99/99
f 100/100 101/101 102/102
f 103/103 104/104 105/105
f 106/106 107/107 108/108
f 109/109 110/110 111/111
f 112/112 113/113 114/114
f 115/115 116/116 117/117
f 118/118 119/119 120/120
